{"glyphs":{"0":{"ha":869,"x_min":49,"x_max":849,"o":"m 410 201 l 410 201 q 488 244 456 201 q 536 353 521 286 q 558 481 551 419 q 565 599 565 542 l 565 599 q 545 726 565 681 q 489 771 525 771 l 489 771 q 410 728 443 771 q 362 621 378 686 q 339 500 346 556 q 332 399 332 444 l 332 399 q 410 201 332 201 z m 525 986 l 525 986 q 768 881 688 986 q 849 604 849 776 l 849 604 q 831 424 849 511 q 776 256 814 336 q 685 117 739 176 q 551 22 631 57 q 378 -14 472 -14 l 378 -14 q 224 17 290 -14 q 122 101 158 47 q 67 222 85 156 q 49 367 49 288 l 49 367 q 79 585 49 478 q 167 784 110 693 q 317 931 224 875 q 525 986 411 986 z "},"1":{"ha":869,"x_min":101,"x_max":754,"o":"m 714 0 l 101 0 l 142 225 l 315 225 l 410 736 l 188 736 l 174 918 l 581 983 q 692 957 661 996 q 710 856 722 918 l 710 856 l 594 225 l 754 225 l 714 0 z "},"2":{"ha":869,"x_min":-4,"x_max":811,"o":"m 386 260 l 388 253 l 771 253 l 725 0 l -4 0 l 32 197 l 299 401 q 475 560 425 499 q 525 678 525 622 l 525 678 q 428 761 525 761 l 428 761 q 249 692 336 761 l 249 692 l 140 867 q 485 986 301 986 l 485 986 q 719 917 628 986 q 811 714 811 849 l 811 714 q 746 519 811 600 q 538 351 681 438 l 538 351 l 386 260 z "},"3":{"ha":869,"x_min":15,"x_max":804,"o":"m 254 718 l 254 718 l 161 897 q 508 986 315 986 l 508 986 q 721 929 638 986 q 804 750 804 872 l 804 750 q 738 592 804 657 q 569 510 672 526 l 569 510 l 568 504 q 717 435 665 492 q 769 294 769 378 l 769 294 q 708 121 769 193 q 554 17 646 49 q 353 -14 463 -14 l 353 -14 q 15 82 164 -14 l 15 82 l 104 275 q 342 215 207 215 l 342 215 q 445 240 404 215 q 486 311 486 264 l 486 311 q 475 356 486 339 q 442 381 464 374 q 398 391 419 389 q 343 393 376 393 l 343 393 l 265 393 l 301 594 l 339 594 q 521 693 521 594 l 521 693 q 421 764 521 764 l 421 764 q 327 749 375 764 q 254 718 279 735 z "},"4":{"ha":869,"x_min":-39,"x_max":851,"o":"m 378 0 l 404 147 l -39 147 l -4 342 l 464 986 l 839 986 l 728 376 l 851 376 l 810 147 l 686 147 l 660 0 l 378 0 z m 289 382 l 290 376 l 453 376 l 479 518 q 508 640 490 574 q 538 743 525 706 l 538 743 l 550 781 l 544 782 q 406 543 482 649 l 406 543 l 289 382 z "},"5":{"ha":869,"x_min":28,"x_max":840,"o":"m 28 89 l 28 89 l 117 282 q 219 236 154 257 q 343 215 283 215 l 343 215 q 455 242 410 215 q 500 318 500 268 l 500 318 q 315 408 500 408 l 315 408 q 133 389 226 408 l 133 389 l 125 400 l 228 964 l 239 972 l 840 972 l 794 719 l 383 719 l 361 594 q 440 599 400 599 l 440 599 q 688 531 592 599 q 783 325 783 464 l 783 325 q 718 140 783 219 q 557 23 653 60 q 354 -14 461 -14 l 354 -14 q 28 89 171 -14 z "},"6":{"ha":869,"x_min":57,"x_max":846,"o":"m 446 447 l 446 447 q 367 398 393 447 q 340 286 340 349 l 340 286 q 360 211 340 239 q 410 183 379 183 l 410 183 q 486 233 460 183 q 513 344 513 283 l 513 344 q 495 419 513 392 q 446 447 478 447 z m 378 608 l 378 608 l 382 604 q 531 644 446 644 l 531 644 q 726 560 656 644 q 796 349 796 476 l 796 349 q 685 87 796 188 q 401 -14 574 -14 l 401 -14 q 144 92 231 -14 q 57 351 57 197 l 57 351 q 233 813 57 640 q 689 986 408 986 l 689 986 q 846 969 781 986 l 846 969 l 807 774 q 701 782 758 782 l 701 782 q 378 608 450 782 z "},"7":{"ha":869,"x_min":132,"x_max":878,"o":"m 138 719 l 183 972 l 878 972 l 842 775 l 342 -28 l 132 119 l 586 719 l 138 719 z "},"8":{"ha":869,"x_min":33,"x_max":840,"o":"m 501 986 l 501 986 q 737 919 633 986 q 840 732 840 851 l 840 732 q 800 606 840 665 q 686 514 760 546 l 686 514 q 794 303 794 432 l 794 303 q 733 128 794 203 q 581 20 671 54 q 390 -14 492 -14 l 390 -14 q 143 58 253 -14 q 33 261 33 131 l 33 261 q 78 397 33 335 q 206 489 124 460 l 206 489 q 114 686 114 568 l 114 686 q 231 906 114 826 q 501 986 347 986 z m 336 399 l 336 399 q 296 294 296 356 l 296 294 q 327 206 296 238 q 417 174 358 174 l 417 174 q 492 196 458 174 q 525 257 525 218 l 525 257 q 515 293 525 276 q 481 324 504 310 q 440 349 458 339 q 386 375 421 360 q 336 399 351 390 z m 481 799 l 481 799 q 409 776 435 799 q 383 722 383 754 l 383 722 q 394 685 383 703 q 427 654 406 668 q 466 631 449 640 q 511 610 483 622 q 547 593 539 597 l 547 593 q 585 694 585 638 l 585 694 q 558 769 585 739 q 481 799 532 799 z "},"9":{"ha":869,"x_min":58,"x_max":838,"o":"m 451 539 l 451 539 q 529 582 504 539 q 554 686 554 625 l 554 686 q 535 761 554 733 q 485 789 515 789 l 485 789 q 408 745 435 789 q 382 642 382 701 l 382 642 q 401 567 382 596 q 451 539 419 539 z m 517 378 l 517 378 l 513 382 q 364 342 449 342 l 364 342 q 168 421 238 342 q 99 626 99 500 l 99 626 q 210 887 99 788 q 493 986 321 986 q 751 874 665 986 q 838 599 838 763 l 838 599 q 667 153 838 319 q 215 -14 496 -14 l 215 -14 q 58 3 122 -14 l 58 3 l 97 199 q 194 190 143 190 l 194 190 q 394 236 306 190 q 517 378 483 282 z "}," ":{"ha":319,"x_min":null,"x_max":null,"o":""},"!":{"ha":436,"x_min":38,"x_max":469,"o":"m 301 375 l 301 375 l 129 375 q 135 718 111 585 l 135 718 l 186 1000 l 469 1000 l 418 718 q 301 375 386 547 z m 38 104 l 38 104 q 74 232 38 193 q 197 271 110 271 l 197 271 q 285 246 256 271 q 315 160 315 221 l 315 160 q 281 34 315 75 q 157 -7 246 -7 l 157 -7 q 38 104 38 -7 z "},"\"":{"ha":685,"x_min":132,"x_max":726,"o":"m 199 1056 l 410 1056 l 301 557 l 132 557 l 199 1056 z m 515 1056 l 726 1056 l 618 557 l 449 557 l 515 1056 z "},"#":{"ha":797,"x_min":14,"x_max":818,"o":"m 274 586 l 107 586 l 128 704 l 311 704 l 399 972 l 515 972 l 428 704 l 544 704 l 632 972 l 749 972 l 661 704 l 818 704 l 797 586 l 624 586 l 561 394 l 725 394 l 704 276 l 522 276 l 433 0 l 317 0 l 406 276 l 289 276 l 200 0 l 83 0 l 172 276 l 14 276 l 35 394 l 211 394 l 274 586 z m 507 586 l 390 586 l 328 394 l 444 394 l 507 586 z "},"$":{"ha":869,"x_min":38,"x_max":836,"o":"m 38 131 l 38 131 l 144 306 q 389 238 258 238 l 389 238 q 475 253 443 238 q 507 297 507 269 l 507 297 q 499 322 507 311 q 473 342 492 332 q 439 358 454 351 q 392 377 424 365 q 342 396 360 389 l 342 396 q 126 671 126 482 l 126 671 q 217 860 126 790 q 439 946 307 929 l 439 946 l 464 1083 l 629 1083 l 604 946 q 836 865 733 928 l 836 865 l 751 686 q 513 740 643 740 l 513 740 q 400 692 400 740 l 400 692 q 408 665 400 676 q 435 642 417 653 q 471 625 454 632 q 521 606 488 618 q 574 585 554 593 l 574 585 q 728 484 672 543 q 785 324 785 425 l 785 324 q 687 111 785 188 q 439 22 589 35 l 439 22 l 414 -117 l 249 -117 l 275 29 q 38 131 143 53 z "},"%":{"ha":1272,"x_min":88,"x_max":1219,"o":"m 388 753 l 388 753 q 358 853 388 853 l 358 853 q 306 787 321 853 q 292 649 292 721 l 292 649 q 324 550 292 550 l 324 550 q 388 753 388 550 z m 386 986 l 386 986 q 540 921 489 986 q 592 758 592 856 l 592 758 q 512 517 592 617 q 299 417 432 417 l 299 417 q 143 483 199 417 q 88 651 88 550 l 88 651 q 167 888 88 789 q 386 986 247 986 z m 1015 322 l 1015 322 q 986 422 1015 422 l 986 422 q 934 356 949 422 q 919 218 919 290 l 919 218 q 951 119 919 119 l 951 119 q 1015 322 1015 119 z m 1014 556 l 1014 556 q 1168 490 1117 556 q 1219 328 1219 425 l 1219 328 q 1140 86 1219 186 q 926 -14 1060 -14 l 926 -14 q 771 53 826 -14 q 715 221 715 119 l 715 221 q 795 457 715 358 q 1014 556 875 556 z m 346 -43 l 232 44 l 958 1014 l 1072 926 l 346 -43 z "},"&":{"ha":1033,"x_min":21,"x_max":985,"o":"m 781 565 l 781 565 l 985 518 q 814 200 942 313 l 814 200 l 957 0 l 957 -14 l 649 -14 l 607 43 q 357 -14 500 -14 l 357 -14 q 115 49 208 -14 q 21 236 21 113 l 21 236 q 265 521 21 428 l 265 521 q 172 749 172 650 l 172 749 q 274 944 172 874 q 522 1014 375 1014 l 522 1014 q 749 947 667 1014 q 832 785 832 881 l 832 785 q 599 503 832 607 l 599 503 l 714 340 q 781 565 761 425 z m 515 174 l 515 174 l 357 396 q 289 278 289 353 l 289 278 q 330 196 289 229 q 443 163 371 163 l 443 163 q 515 174 485 163 z m 589 758 l 589 758 q 569 814 589 793 q 514 835 550 835 l 514 835 q 463 815 485 835 q 440 764 440 796 l 440 764 q 513 621 440 717 l 513 621 q 589 758 589 683 z "},"'":{"ha":368,"x_min":132,"x_max":410,"o":"m 199 1056 l 410 1056 l 301 557 l 132 557 l 199 1056 z "},"(":{"ha":471,"x_min":47,"x_max":561,"o":"m 508 1056 l 508 1056 l 561 936 q 382 813 451 894 l 382 813 q 219 204 219 621 l 219 204 q 254 -6 219 83 q 375 -183 289 -96 l 375 -183 l 283 -278 q 106 -69 164 -182 q 47 196 47 43 l 47 196 q 56 399 47 306 q 95 601 65 493 q 174 793 125 710 q 308 948 222 876 q 508 1056 394 1019 z "},")":{"ha":479,"x_min":-83,"x_max":431,"o":"m -31 -278 l -31 -278 l -83 -158 q 96 -35 26 -117 l 96 -35 q 258 574 258 157 l 258 574 q 224 784 258 694 q 103 961 189 874 l 103 961 l 194 1056 q 372 847 314 960 q 431 582 431 735 l 431 582 q 422 378 431 472 q 383 176 413 285 q 304 -15 353 68 q 169 -170 256 -99 q -31 -278 83 -242 z "},"*":{"ha":733,"x_min":97,"x_max":772,"o":"m 433 1075 l 558 1051 l 492 806 l 407 822 l 433 1075 z m 378 660 l 463 643 l 436 390 l 311 413 l 378 660 z m 469 646 l 524 713 l 732 565 l 650 468 l 469 646 z m 136 899 l 217 1000 l 400 819 l 347 756 l 136 899 z m 133 572 l 97 694 l 343 747 l 371 664 l 133 572 z m 525 719 l 499 800 l 733 899 l 772 778 l 525 719 z "},"+":{"ha":860,"x_min":56,"x_max":804,"o":"m 804 474 l 804 307 l 515 307 l 515 0 l 344 0 l 344 307 l 56 307 l 56 474 l 344 474 l 344 775 l 515 775 l 515 474 l 804 474 z "},",":{"ha":383,"x_min":-104,"x_max":278,"o":"m 17 -253 l 17 -253 l -104 -164 q 60 264 81 3 l 60 264 q 278 264 168 276 l 278 264 q 221 -50 285 76 q 17 -253 157 -176 z "},"-":{"ha":467,"x_min":26,"x_max":442,"o":"m 442 478 l 410 308 l 26 308 l 58 478 l 442 478 z "},".":{"ha":400,"x_min":14,"x_max":292,"o":"m 14 104 l 14 104 q 50 232 14 193 q 174 271 86 271 l 174 271 q 262 246 232 271 q 292 160 292 221 l 292 160 q 257 34 292 75 q 133 -7 222 -7 l 133 -7 q 14 104 14 -7 z "},"/":{"ha":715,"x_min":-69,"x_max":819,"o":"m 632 1042 l 817 1042 l 819 1036 l 118 -76 l -67 -76 l -69 -71 l 632 1042 z "},":":{"ha":392,"x_min":14,"x_max":368,"o":"m 90 569 l 90 569 q 126 697 90 658 q 250 736 163 736 l 250 736 q 338 711 308 736 q 368 625 368 686 l 368 625 q 333 499 368 540 q 210 458 299 458 l 210 458 q 90 569 90 458 z m 14 104 l 14 104 q 50 232 14 193 q 174 271 86 271 l 174 271 q 262 246 232 271 q 292 160 292 221 l 292 160 q 257 34 292 75 q 133 -7 222 -7 l 133 -7 q 14 104 14 -7 z "},";":{"ha":403,"x_min":-79,"x_max":368,"o":"m 90 569 l 90 569 q 126 697 90 658 q 250 736 163 736 l 250 736 q 338 711 308 736 q 368 625 368 686 l 368 625 q 333 499 368 540 q 210 458 299 458 l 210 458 q 90 569 90 458 z m 42 -253 l 42 -253 l -79 -164 q 85 264 106 3 l 85 264 q 303 264 194 276 l 303 264 q 246 -50 310 76 q 42 -253 182 -176 z "},"<":{"ha":860,"x_min":63,"x_max":811,"o":"m 811 151 l 744 0 l 63 304 l 63 471 l 744 775 l 811 624 l 288 390 l 288 385 l 811 151 z "},"=":{"ha":860,"x_min":56,"x_max":804,"o":"m 804 335 l 804 168 l 56 168 l 56 335 l 804 335 z m 804 613 l 804 446 l 56 446 l 56 613 l 804 613 z "},">":{"ha":860,"x_min":49,"x_max":797,"o":"m 797 471 l 797 304 l 115 0 l 49 151 l 572 385 l 572 390 l 49 624 l 115 775 l 797 471 z "},"?":{"ha":714,"x_min":110,"x_max":756,"o":"m 213 731 l 213 731 l 110 910 q 461 1014 271 1014 l 461 1014 q 668 958 581 1014 q 756 790 756 903 l 756 790 q 740 697 756 738 q 692 628 724 657 q 630 581 660 599 q 554 542 600 564 l 554 542 q 493 512 513 522 q 444 481 474 501 q 400 434 415 460 q 379 375 385 408 l 379 375 l 203 375 q 247 547 203 485 q 364 653 292 610 l 364 653 q 392 669 371 657 q 423 686 414 681 q 445 703 432 692 q 464 725 458 714 q 469 749 469 736 l 469 749 q 393 796 469 796 l 393 796 q 213 731 304 796 z m 121 104 l 121 104 q 157 232 121 193 q 281 271 193 271 l 281 271 q 369 246 339 271 q 399 160 399 221 l 399 160 q 364 34 399 75 q 240 -7 329 -7 l 240 -7 q 121 104 121 -7 z "},"@":{"ha":1240,"x_min":44,"x_max":1210,"o":"m 665 460 l 665 460 l 674 504 q 650 508 664 508 l 650 508 q 568 449 596 508 q 540 319 540 389 l 540 319 q 569 267 540 267 l 569 267 q 665 460 629 267 z m 669 208 l 669 208 l 664 208 q 588 119 636 149 q 483 89 539 89 l 483 89 q 360 148 403 89 q 318 293 318 207 l 318 293 q 401 540 318 432 q 619 647 485 647 l 619 647 q 725 621 674 647 l 725 621 q 821 647 747 647 l 821 647 l 917 647 l 868 388 q 858 301 858 339 l 858 301 q 922 225 858 225 l 922 225 q 1035 296 999 225 q 1072 463 1072 367 l 1072 463 q 962 712 1072 625 q 672 799 851 799 l 672 799 q 322 672 457 799 q 186 315 186 544 l 186 315 q 292 39 186 142 q 574 -64 397 -64 l 574 -64 q 790 -15 689 -64 l 790 -15 l 828 -107 q 556 -171 704 -171 l 556 -171 q 187 -36 329 -171 q 44 322 44 99 l 44 322 q 132 624 44 492 q 365 827 219 757 q 686 897 511 897 l 686 897 q 869 870 778 897 q 1037 792 960 843 q 1162 659 1114 742 q 1210 476 1210 576 l 1210 476 q 1097 197 1210 304 q 808 89 983 89 l 808 89 q 669 208 669 89 z "},"A":{"ha":942,"x_min":-62,"x_max":872,"o":"m 726 1006 l 872 0 l 576 0 l 563 214 l 332 214 l 251 0 l -62 0 l -62 14 l 411 956 l 715 1014 l 726 1006 z m 531 725 l 525 725 l 410 419 l 550 419 l 531 725 z "},"B":{"ha":888,"x_min":4,"x_max":853,"o":"m 460 800 l 460 800 l 432 800 l 399 621 l 453 621 q 535 647 504 621 q 567 718 567 672 l 567 718 q 460 800 567 800 z m 397 426 l 397 426 l 364 426 l 322 200 l 357 200 q 426 204 397 200 q 486 219 456 208 q 533 255 517 231 q 549 317 549 279 l 549 317 q 397 426 549 426 z m 308 0 l 4 0 l 186 1000 l 421 1000 q 510 998 471 1000 q 603 989 549 996 q 699 966 658 982 q 776 926 739 950 q 833 860 814 901 q 853 767 853 819 l 853 767 q 785 606 853 668 q 607 535 717 544 l 607 535 l 606 529 q 772 463 708 521 q 835 307 835 404 l 835 307 q 811 185 835 238 q 742 99 788 132 q 649 46 697 67 q 534 15 600 25 q 419 3 468 6 q 308 0 369 0 l 308 0 z "},"C":{"ha":842,"x_min":49,"x_max":897,"o":"m 719 276 l 719 276 l 810 81 q 492 -14 672 -14 l 492 -14 q 169 103 289 -14 q 49 418 49 219 l 49 418 q 220 842 49 669 q 639 1014 392 1014 l 639 1014 q 897 951 788 1014 l 897 951 l 808 763 q 654 789 740 789 l 654 789 q 421 686 507 789 q 335 433 335 583 l 335 433 q 385 277 335 336 q 529 218 435 218 l 529 218 q 719 276 635 218 z "},"D":{"ha":990,"x_min":4,"x_max":983,"o":"m 442 779 l 442 779 l 428 779 l 326 221 l 340 221 q 609 305 521 221 q 697 544 697 389 l 697 544 q 637 720 697 661 q 442 779 576 779 z m 264 0 l 4 0 l 186 1000 l 424 1000 q 644 977 546 1000 q 820 904 742 954 q 941 767 899 854 q 983 558 983 679 l 983 558 q 928 294 983 406 q 772 120 874 183 q 546 28 671 57 q 264 0 421 0 l 264 0 z "},"E":{"ha":775,"x_min":4,"x_max":817,"o":"m 665 0 l 4 0 l 186 1000 l 817 1000 l 776 775 l 428 775 l 399 619 l 679 619 l 640 407 l 360 407 l 326 225 l 724 225 l 665 0 z "},"F":{"ha":740,"x_min":4,"x_max":817,"o":"m 286 0 l 4 0 l 186 1000 l 817 1000 l 776 775 l 428 775 l 394 592 l 675 592 l 635 374 l 354 374 l 286 0 z "},"G":{"ha":1000,"x_min":49,"x_max":1001,"o":"m 644 215 l 644 215 l 667 339 l 522 339 l 563 553 l 960 553 l 871 64 q 515 -14 706 -14 l 515 -14 q 180 108 311 -14 q 49 432 49 229 l 49 432 q 230 847 49 681 q 665 1014 411 1014 l 665 1014 q 1001 932 856 1014 l 1001 932 l 913 743 q 675 789 801 789 l 675 789 q 424 692 514 789 q 335 439 335 596 l 335 439 q 546 201 335 201 l 546 201 q 644 215 599 201 z "},"H":{"ha":997,"x_min":4,"x_max":1031,"o":"m 849 0 l 567 0 l 640 403 l 360 403 l 286 0 l 4 0 l 186 1000 l 468 1000 l 404 644 l 683 644 l 749 1000 l 1031 1000 l 849 0 z "},"I":{"ha":435,"x_min":4,"x_max":468,"o":"m 286 0 l 4 0 l 186 1000 l 468 1000 l 286 0 z "},"J":{"ha":456,"x_min":-178,"x_max":489,"o":"m 53 154 l 207 1000 l 489 1000 l 321 79 q -147 -224 267 -218 l -147 -224 l -178 -14 q -117 -4 -142 -10 q -52 17 -93 1 q 16 69 -11 33 q 53 154 43 104 l 53 154 z "},"K":{"ha":935,"x_min":4,"x_max":983,"o":"m 867 14 l 867 0 l 572 0 l 385 499 l 707 1000 l 983 1000 l 983 986 l 672 508 l 867 14 z m 286 0 l 4 0 l 186 1000 l 468 1000 l 286 0 z "},"L":{"ha":700,"x_min":4,"x_max":686,"o":"m 624 0 l 4 0 l 186 1000 l 468 1000 l 331 242 l 686 242 l 624 0 z "},"M":{"ha":1275,"x_min":-14,"x_max":1233,"o":"m 735 618 l 735 618 l 890 1000 l 1233 1000 l 1150 0 l 875 0 l 918 399 q 941 562 926 474 q 967 700 956 650 l 967 700 l 978 750 l 972 750 q 849 390 917 560 l 849 390 l 711 51 l 446 0 l 425 385 q 420 547 421 456 q 421 694 419 638 l 421 694 l 422 750 l 417 750 q 347 375 386 547 l 347 375 l 264 0 l -14 0 l 253 1000 l 610 1000 l 631 615 q 632 460 633 536 q 628 331 631 385 l 628 331 l 624 275 l 629 275 q 735 618 671 461 z "},"N":{"ha":989,"x_min":4,"x_max":1022,"o":"m 378 663 l 368 726 l 363 726 q 324 314 357 508 l 324 314 l 271 0 l 4 0 l 186 1000 l 535 1000 l 608 676 q 640 508 625 604 q 661 353 654 413 l 661 353 l 667 292 l 672 292 q 703 686 672 508 l 703 686 l 756 1000 l 1022 1000 l 847 43 l 514 -14 l 440 310 q 404 494 422 390 q 378 663 386 599 l 378 663 z "},"O":{"ha":1043,"x_min":49,"x_max":1036,"o":"m 586 796 l 586 796 q 438 733 497 796 q 356 591 378 671 q 335 424 335 511 l 335 424 q 375 266 335 328 q 508 204 415 204 l 508 204 q 624 240 575 204 q 699 334 674 276 q 738 453 725 392 q 750 578 750 515 l 750 578 q 586 796 750 796 z m 615 1014 l 615 1014 q 849 951 751 1014 q 991 788 946 888 q 1036 567 1036 689 l 1036 567 q 876 156 1036 325 q 465 -14 717 -14 l 465 -14 q 157 115 265 -14 q 49 428 49 243 l 49 428 q 210 841 49 668 q 615 1014 372 1014 z "},"P":{"ha":838,"x_min":4,"x_max":868,"o":"m 286 0 l 4 0 l 186 1000 l 364 1000 q 868 703 868 1000 l 868 703 q 838 562 868 624 q 757 461 807 500 q 640 397 707 422 q 503 360 572 371 q 361 350 435 350 l 361 350 l 350 350 l 286 0 z m 443 800 l 432 800 l 386 550 l 397 550 q 533 586 483 550 q 582 694 582 622 l 582 694 q 539 777 582 754 q 443 800 496 800 l 443 800 z "},"Q":{"ha":1043,"x_min":49,"x_max":1036,"o":"m 615 1014 l 615 1014 q 849 951 751 1014 q 991 788 946 888 q 1036 567 1036 689 l 1036 567 q 928 218 1036 371 q 639 11 819 65 l 639 11 q 715 -71 658 -46 q 869 -104 772 -96 l 869 -104 l 838 -267 q 522 -204 657 -274 q 350 0 386 -135 l 350 0 q 126 153 204 35 q 49 428 49 272 l 49 428 q 210 841 49 668 q 615 1014 372 1014 z m 586 796 l 586 796 q 438 733 497 796 q 356 591 378 671 q 335 424 335 511 l 335 424 q 375 266 335 328 q 508 204 415 204 l 508 204 q 624 240 575 204 q 699 334 674 276 q 738 453 725 392 q 750 578 750 515 l 750 578 q 586 796 750 796 z "},"R":{"ha":903,"x_min":4,"x_max":868,"o":"m 286 0 l 4 0 l 186 1000 l 364 1000 q 868 706 868 1000 l 868 706 q 656 426 868 500 l 656 426 q 743 232 703 332 l 743 232 l 832 14 l 832 0 l 535 0 l 382 386 l 357 386 l 286 0 z m 443 800 l 432 800 l 393 586 l 403 586 q 582 701 582 586 l 582 701 q 443 800 582 800 l 443 800 z "},"S":{"ha":840,"x_min":0,"x_max":847,"o":"m 0 108 l 0 108 l 111 292 q 200 246 129 274 q 350 218 271 218 l 350 218 q 503 290 503 218 l 503 290 q 494 318 503 306 q 465 342 486 331 q 428 362 444 354 q 377 383 411 369 q 324 404 343 396 l 324 404 q 156 518 221 449 q 92 703 92 588 l 92 703 q 156 880 92 807 q 313 983 221 953 q 514 1014 406 1014 l 514 1014 q 847 918 706 1014 l 847 918 l 758 729 q 500 789 631 789 l 500 789 q 378 729 378 789 l 378 729 q 401 681 378 703 q 460 644 424 660 q 541 610 497 628 q 629 569 585 593 q 710 513 674 544 q 770 432 747 482 q 793 319 793 382 l 793 319 q 671 71 793 156 q 374 -14 549 -14 l 374 -14 q 0 108 139 -14 z "},"T":{"ha":733,"x_min":69,"x_max":838,"o":"m 435 0 l 153 0 l 290 758 l 69 758 l 114 1000 l 838 1000 l 793 758 l 572 758 l 435 0 z "},"U":{"ha":940,"x_min":56,"x_max":988,"o":"m 67 475 l 163 1000 l 444 1000 l 344 453 q 333 349 333 392 l 333 349 q 439 211 333 211 l 439 211 q 551 272 511 211 q 611 446 590 332 l 611 446 l 713 1000 l 988 1000 l 886 439 q 740 102 846 218 q 429 -14 635 -14 l 429 -14 q 145 88 235 -14 q 56 351 56 189 l 56 351 q 67 475 56 408 l 67 475 z "},"V":{"ha":910,"x_min":104,"x_max":1025,"o":"m 238 -14 l 104 1000 l 400 1000 l 421 675 q 429 496 426 596 q 432 336 432 396 l 432 336 l 432 275 l 438 275 q 575 668 501 489 l 575 668 l 711 1000 l 1025 1000 l 1025 986 l 543 44 l 238 -14 z "},"W":{"ha":1321,"x_min":111,"x_max":1439,"o":"m 176 -14 l 111 1000 l 390 1000 l 406 667 q 407 513 408 588 q 403 385 406 439 l 403 385 l 399 331 l 404 331 q 494 644 443 515 l 494 644 l 613 944 l 894 1000 l 899 664 q 892 518 899 601 q 881 383 886 435 l 881 383 l 874 331 l 879 331 q 997 675 926 528 l 997 675 l 1153 1000 l 1439 1000 l 1439 986 l 981 43 l 685 -14 l 681 339 q 685 498 681 411 q 696 636 690 585 l 696 636 l 701 686 l 696 686 q 596 354 658 511 l 596 354 l 472 43 l 176 -14 z "},"X":{"ha":906,"x_min":-35,"x_max":954,"o":"m 954 986 l 631 504 l 853 14 l 853 0 l 539 0 l 489 156 q 467 237 478 192 q 450 308 456 282 l 450 308 l 444 336 l 439 336 q 360 157 401 236 l 360 157 l 278 0 l -35 0 l -35 14 l 307 528 l 103 986 l 103 1000 l 414 1000 l 453 872 l 500 693 l 506 693 q 579 874 540 793 l 579 874 l 640 1000 l 954 1000 l 954 986 z "},"Y":{"ha":826,"x_min":90,"x_max":928,"o":"m 483 0 l 201 0 l 271 383 l 90 986 l 90 1000 l 386 1000 l 410 853 l 443 607 l 449 607 q 550 851 497 739 l 550 851 l 619 1000 l 928 1000 l 928 986 l 553 383 l 483 0 z "},"Z":{"ha":881,"x_min":-31,"x_max":922,"o":"m 839 228 l 781 0 l -31 0 l -3 153 l 274 510 q 380 636 322 572 q 472 733 438 700 l 472 733 l 506 767 l 506 772 l 103 772 l 144 1000 l 922 1000 l 894 847 l 618 490 q 513 365 571 429 q 419 267 454 300 l 419 267 l 386 233 l 386 228 l 839 228 z "},"[":{"ha":447,"x_min":-44,"x_max":531,"o":"m 531 1042 l 506 903 l 340 903 l 153 -125 l 318 -125 l 293 -264 l -44 -264 l 193 1042 l 531 1042 z "},"\\":{"ha":713,"x_min":118,"x_max":629,"o":"m 461 -76 l 118 1036 l 121 1042 l 286 1042 l 629 -71 l 626 -76 l 461 -76 z "},"]":{"ha":444,"x_min":-90,"x_max":485,"o":"m -90 -264 l -65 -125 l 100 -125 l 288 903 l 122 903 l 147 1042 l 485 1042 l 247 -264 l -90 -264 z "},"^":{"ha":860,"x_min":56,"x_max":803,"o":"m 204 318 l 56 383 l 313 972 l 546 972 l 803 383 l 654 318 l 432 831 l 426 831 l 204 318 z "},"_":{"ha":694,"x_min":-76,"x_max":618,"o":"m -76 -96 l 618 -96 l 618 -174 l -76 -174 l -76 -96 z "},"`":{"ha":556,"x_min":203,"x_max":519,"o":"m 203 1031 l 299 1131 l 519 889 l 440 807 l 203 1031 z "},"a":{"ha":818,"x_min":14,"x_max":821,"o":"m 513 515 l 513 515 l 518 546 q 468 560 497 560 l 468 560 q 344 460 396 560 q 292 269 292 360 l 292 269 q 324 215 292 215 l 324 215 q 431 303 374 215 q 513 515 489 390 z m 729 750 l 729 750 l 821 750 l 719 206 q 725 35 699 93 l 725 35 l 467 -14 q 453 119 438 42 l 453 119 l 460 157 l 454 157 q 213 -14 363 -14 l 213 -14 q 63 58 111 -14 q 14 240 14 129 l 14 240 q 140 594 14 438 q 443 750 267 750 l 443 750 q 592 708 531 750 l 592 708 q 629 738 606 728 q 672 749 653 747 q 729 750 690 750 z "},"b":{"ha":828,"x_min":0,"x_max":803,"o":"m 310 235 l 310 235 l 301 189 q 336 185 318 185 l 336 185 q 426 213 388 185 q 485 284 465 240 q 513 371 504 328 q 522 454 522 414 l 522 454 q 490 521 522 521 l 490 521 q 380 425 433 521 q 310 235 326 329 z m 147 1028 l 147 1028 l 317 1053 q 426 1025 403 1065 q 438 919 450 985 l 438 919 l 404 743 q 383 666 397 707 q 358 603 369 625 l 358 603 l 349 579 l 354 579 q 464 703 397 656 q 611 750 531 750 l 611 750 q 758 671 713 750 q 803 475 803 592 l 803 475 q 658 119 803 253 q 296 -14 514 -14 l 296 -14 q 0 53 122 -14 l 0 53 l 151 865 q 147 1028 169 960 z "},"c":{"ha":661,"x_min":14,"x_max":675,"o":"m 517 271 l 517 271 l 622 128 q 313 -14 500 -14 l 313 -14 q 90 72 167 -14 q 14 285 14 157 l 14 285 q 145 609 14 468 q 461 750 276 750 l 461 750 q 675 679 583 750 l 675 679 l 592 521 q 493 551 544 551 l 493 551 q 351 476 407 551 q 294 310 294 400 l 294 310 q 389 199 294 199 l 389 199 q 517 271 458 199 z "},"d":{"ha":819,"x_min":14,"x_max":853,"o":"m 725 35 l 725 35 l 467 -14 q 453 119 438 42 l 453 119 l 460 157 l 454 157 q 213 -14 363 -14 l 213 -14 q 63 58 111 -14 q 14 240 14 129 l 14 240 q 140 594 14 439 q 454 750 267 750 l 454 750 q 543 739 501 750 l 543 739 l 567 865 q 563 1028 586 963 l 563 1028 l 732 1053 q 841 1026 817 1065 q 853 919 865 988 l 853 919 l 719 206 q 725 35 699 93 z m 513 515 l 513 515 l 519 551 q 476 560 500 560 l 476 560 q 374 506 418 560 q 310 387 329 451 q 292 269 292 322 l 292 269 q 324 215 292 215 l 324 215 q 431 303 374 215 q 513 515 489 390 z "},"e":{"ha":743,"x_min":14,"x_max":718,"o":"m 428 565 l 428 565 q 347 528 381 565 q 303 413 313 490 l 303 413 l 425 453 q 476 517 476 469 l 476 517 q 464 551 476 538 q 428 565 451 565 z m 589 260 l 589 260 l 681 113 q 342 -14 543 -14 l 342 -14 q 94 72 175 -14 q 14 290 14 158 l 14 290 q 139 610 14 469 q 454 750 264 750 l 454 750 q 647 684 576 750 q 718 504 718 618 l 718 504 q 701 389 718 451 l 701 389 l 296 274 q 419 192 319 192 l 419 192 q 589 260 514 192 z "},"f":{"ha":544,"x_min":-229,"x_max":704,"o":"m 597 736 l 564 556 l 415 556 l 353 96 q 335 -4 344 36 q 300 -104 326 -44 q 235 -201 274 -164 q 128 -265 197 -237 q -35 -292 58 -292 l -35 -292 q -229 -243 -149 -292 l -229 -243 l -154 -47 q -64 -65 -108 -65 l -64 -65 q 36 -11 1 -65 q 86 157 71 43 l 86 157 l 140 556 l 42 556 l 68 694 l 165 736 l 175 808 q 284 992 192 929 q 499 1056 376 1056 l 499 1056 q 704 1004 614 1056 l 704 1004 l 640 842 q 550 864 593 864 l 550 864 q 447 786 458 864 l 447 786 l 440 736 l 597 736 z "},"g":{"ha":819,"x_min":-42,"x_max":828,"o":"m 521 522 l 521 522 l 525 546 q 469 560 503 560 l 469 560 q 349 486 399 560 q 299 331 299 413 l 299 331 q 344 265 299 265 l 344 265 q 455 344 407 265 q 521 522 503 424 z m 456 99 l 471 183 l 465 183 q 225 36 369 36 l 225 36 q 74 106 128 36 q 21 281 21 176 l 21 281 q 70 505 21 399 q 219 681 119 611 q 444 750 318 750 l 444 750 q 599 708 536 750 l 599 708 q 649 743 618 736 q 736 750 679 750 l 736 750 l 828 750 l 710 115 q 240 -292 633 -292 l 240 -292 q -42 -246 81 -292 l -42 -246 l 29 -36 q 214 -68 107 -68 l 214 -68 q 456 99 425 -68 l 456 99 z "},"h":{"ha":788,"x_min":-10,"x_max":756,"o":"m 699 35 l 699 35 l 426 -14 q 411 171 388 58 l 411 171 l 468 439 q 475 490 475 471 l 475 490 q 461 521 475 521 l 461 521 q 381 432 431 521 q 315 264 331 343 l 315 264 l 271 25 l 6 -14 l -10 0 l 151 864 q 147 1028 169 964 l 147 1028 l 317 1053 q 426 1026 401 1065 q 438 919 450 988 l 438 919 l 404 743 q 385 669 399 710 q 360 603 371 628 l 360 603 l 349 579 l 354 579 q 608 750 451 750 l 608 750 q 722 694 688 750 q 756 551 756 638 l 756 551 q 743 438 756 497 l 743 438 l 693 206 q 699 35 669 101 z "},"i":{"ha":408,"x_min":28,"x_max":431,"o":"m 315 35 l 315 35 l 43 -14 q 28 171 6 50 l 28 171 l 100 560 q 96 722 117 654 l 96 722 l 265 747 q 374 722 349 760 q 386 614 400 683 l 386 614 l 310 206 q 315 35 289 100 z m 153 936 l 153 936 q 190 1059 153 1021 q 314 1097 228 1097 l 314 1097 q 402 1074 374 1097 q 431 993 431 1051 l 431 993 q 395 868 431 908 q 271 828 360 828 l 271 828 q 183 852 213 828 q 153 936 153 876 z "},"j":{"ha":411,"x_min":-200,"x_max":424,"o":"m -154 -292 l -154 -292 l -200 -97 q -147 -83 -164 -87 q -97 -64 -131 -79 q -47 -31 -64 -49 q -10 20 -29 -12 q 17 96 8 53 l 17 96 l 103 560 q 99 722 119 651 l 99 722 l 268 747 q 377 721 353 760 q 389 614 401 682 l 389 614 l 274 -3 q -154 -292 224 -269 z m 146 935 l 146 935 q 183 1058 146 1019 q 307 1097 221 1097 l 307 1097 q 395 1074 367 1097 q 424 992 424 1050 l 424 992 q 388 865 424 906 q 264 825 353 825 l 264 825 q 176 850 206 825 q 146 935 146 875 z "},"k":{"ha":819,"x_min":-10,"x_max":833,"o":"m 438 919 l 438 919 l 271 25 l 6 -14 l -10 0 l 151 865 q 147 1028 171 963 l 147 1028 l 317 1053 q 426 1026 401 1065 q 438 919 450 988 z m 457 64 l 457 64 l 346 361 l 549 658 q 671 750 606 742 l 671 750 l 833 647 l 831 640 q 758 598 794 633 q 675 501 722 563 l 675 501 l 610 417 l 763 28 l 758 21 l 596 -10 q 504 -3 533 -21 q 457 64 475 14 z "},"l":{"ha":499,"x_min":47,"x_max":488,"o":"m 435 232 l 435 232 l 488 46 q 274 -14 401 -14 l 274 -14 q 84 63 144 -14 q 47 271 24 139 l 47 271 l 158 865 q 154 1028 176 961 l 154 1028 l 324 1053 q 433 1026 410 1065 q 444 919 457 986 l 444 919 l 333 324 q 389 224 314 224 l 389 224 q 435 232 414 224 z "},"m":{"ha":1167,"x_min":-6,"x_max":1138,"o":"m 1122 438 l 1122 438 l 1072 206 q 1078 35 1050 100 l 1078 35 l 813 -14 q 797 171 774 60 l 797 171 l 854 439 q 847 521 872 521 l 847 521 q 767 433 817 521 q 701 264 717 346 l 701 264 l 657 25 l 399 -14 l 383 0 l 465 439 q 458 521 481 521 l 458 521 q 378 433 428 521 q 313 264 328 346 l 313 264 l 268 25 l 10 -14 l -6 0 l 99 560 q 94 724 117 658 l 94 724 l 247 747 q 331 735 303 756 q 357 681 358 714 q 353 617 356 649 l 353 617 l 346 579 l 351 579 q 465 706 399 663 q 597 750 531 750 l 597 750 q 735 593 735 750 l 735 593 l 735 579 l 740 579 q 856 708 789 665 q 989 750 922 750 l 989 750 q 1103 696 1068 750 q 1138 561 1138 642 l 1138 561 q 1122 438 1138 504 z "},"n":{"ha":792,"x_min":-6,"x_max":760,"o":"m 703 35 l 703 35 l 431 -14 q 415 171 392 58 l 415 171 l 472 439 q 479 492 479 467 l 479 492 q 465 521 479 521 l 465 521 q 385 432 435 521 q 319 264 335 343 l 319 264 l 275 25 l 10 -14 l -6 0 l 99 560 q 94 724 117 660 l 94 724 l 254 747 q 351 720 331 758 q 360 617 372 682 l 360 617 l 353 579 l 358 579 q 613 750 456 750 l 613 750 q 726 694 692 750 q 760 551 760 638 l 760 551 q 747 438 760 497 l 747 438 l 697 206 q 703 35 674 101 z "},"o":{"ha":792,"x_min":31,"x_max":761,"o":"m 311 333 l 311 333 q 375 178 311 178 l 375 178 q 453 246 426 178 q 481 408 481 314 l 481 408 q 418 558 481 558 l 418 558 q 338 492 365 558 q 311 333 311 426 z m 365 -14 l 365 -14 q 122 87 213 -14 q 31 350 31 188 l 31 350 q 149 642 31 533 q 429 750 267 750 l 429 750 q 668 656 575 750 q 761 386 761 563 q 649 98 761 210 q 365 -14 536 -14 z "},"p":{"ha":833,"x_min":-33,"x_max":808,"o":"m 315 235 l 315 235 l 307 188 q 346 185 324 185 l 346 185 q 441 215 401 185 q 497 292 481 244 q 521 376 514 339 q 528 447 528 414 l 528 447 q 496 521 528 521 l 496 521 q 385 424 439 521 q 315 235 332 328 z m 263 -243 l 263 -243 l -10 -292 q -33 -211 -31 -250 q -22 -93 -36 -172 l -22 -93 l 100 560 q 96 724 117 663 l 96 724 l 256 747 q 337 736 310 756 q 365 685 364 717 q 361 617 365 653 l 361 617 l 354 579 l 360 579 q 617 750 458 750 l 617 750 q 763 667 718 750 q 808 468 808 585 l 808 468 q 672 117 808 247 q 326 -14 536 -14 l 326 -14 q 269 -11 294 -14 l 269 -11 l 254 -93 q 263 -243 238 -183 z "},"q":{"ha":814,"x_min":14,"x_max":821,"o":"m 513 515 l 513 515 l 518 546 q 468 560 496 560 l 468 560 q 376 507 418 560 q 313 388 333 454 q 292 269 292 322 l 292 269 q 324 215 292 215 l 324 215 q 431 301 372 215 q 513 515 489 386 z m 729 750 l 729 750 l 821 750 l 664 -99 q 674 -243 649 -185 l 674 -243 l 401 -292 q 386 -110 365 -219 l 386 -110 l 404 -11 q 425 69 411 26 q 450 133 439 111 l 450 133 l 460 157 l 454 157 q 213 -14 364 -14 l 213 -14 q 61 60 108 -14 q 14 240 14 133 l 14 240 q 140 592 14 435 q 443 750 267 750 l 443 750 q 592 708 531 750 l 592 708 q 641 743 610 736 q 729 750 672 750 z "},"r":{"ha":633,"x_min":-6,"x_max":703,"o":"m 703 725 l 703 725 l 624 514 q 578 518 600 518 l 578 518 q 319 264 367 518 l 319 264 l 275 25 l 10 -14 l -6 0 l 99 560 q 94 724 117 663 l 94 724 l 254 747 q 339 733 311 756 q 365 678 367 711 q 360 617 363 646 l 360 617 l 353 579 l 358 579 q 614 750 454 750 l 614 750 q 703 725 665 750 z "},"s":{"ha":639,"x_min":-35,"x_max":625,"o":"m -35 69 l -35 69 l 47 229 q 229 178 135 178 l 229 178 q 299 190 271 178 q 328 225 328 203 l 328 225 q 312 251 328 242 q 256 274 296 261 q 197 296 217 288 l 197 296 q 60 496 60 357 l 60 496 q 152 686 60 622 q 374 750 244 750 l 374 750 q 625 671 529 750 l 625 671 l 544 518 q 390 565 472 565 l 390 565 q 306 526 306 565 l 306 526 q 328 494 306 507 q 397 467 350 482 q 472 438 444 451 l 472 438 q 588 250 588 381 l 588 250 q 483 54 588 122 q 240 -14 379 -14 l 240 -14 q -35 69 69 -14 z "},"t":{"ha":561,"x_min":28,"x_max":585,"o":"m 475 225 l 475 225 l 528 46 q 313 -14 439 -14 l 313 -14 q 114 61 179 -14 q 74 271 49 136 l 74 271 l 126 556 l 28 556 l 54 694 l 161 736 l 204 925 l 465 963 l 478 956 l 436 736 l 585 736 l 551 556 l 403 556 l 358 317 q 421 217 340 217 l 421 217 q 475 225 447 217 z "},"u":{"ha":789,"x_min":31,"x_max":789,"o":"m 88 722 l 88 722 l 257 747 q 363 724 335 758 q 378 614 392 689 l 378 614 l 318 297 q 313 246 313 269 l 313 246 q 325 215 313 215 l 325 215 q 402 303 356 215 q 464 472 449 392 l 464 472 l 508 711 l 774 750 l 789 736 l 690 206 q 696 35 671 96 l 696 35 l 438 -14 q 424 119 410 42 l 424 119 l 431 157 l 425 157 q 178 -14 328 -14 l 178 -14 q 65 41 100 -14 q 31 178 31 96 l 31 178 q 43 299 31 236 l 43 299 l 92 560 q 88 722 110 657 z "},"v":{"ha":757,"x_min":29,"x_max":767,"o":"m 438 43 l 438 43 l 207 -14 l 192 0 l 76 568 q 29 711 54 675 l 29 711 l 174 742 q 297 738 258 760 q 343 650 335 717 l 343 650 l 392 272 l 397 272 q 507 592 507 467 l 507 592 q 485 681 507 644 l 485 681 l 690 764 q 767 593 767 692 l 767 593 q 662 307 767 469 q 438 43 557 144 z "},"w":{"ha":1136,"x_min":35,"x_max":1139,"o":"m 443 43 l 199 -14 l 183 0 l 82 568 q 35 711 65 668 l 35 711 l 186 743 q 295 740 260 758 q 338 649 331 721 l 338 649 l 358 442 q 365 349 363 397 q 367 274 367 300 l 367 274 l 365 247 l 371 247 q 414 443 388 368 l 414 443 l 497 679 l 742 736 l 754 729 l 763 446 q 761 353 764 403 q 756 275 758 304 l 756 275 l 753 247 l 758 247 q 842 396 796 293 q 888 589 888 499 l 888 589 q 869 681 888 640 l 869 681 l 1068 764 q 1139 590 1139 692 l 1139 590 q 1050 317 1139 464 q 838 43 961 169 l 838 43 l 593 -14 l 578 0 l 576 264 q 579 358 576 307 q 585 439 582 410 l 585 439 l 588 468 l 582 468 q 526 269 561 365 l 526 269 l 443 43 z "},"x":{"ha":764,"x_min":-39,"x_max":785,"o":"m 158 321 l 158 321 l 211 379 l 143 540 q 58 664 106 628 l 58 664 l 178 725 q 275 750 228 750 l 275 750 q 385 668 350 750 l 385 668 l 438 542 l 443 542 l 485 600 q 592 717 543 683 q 707 750 640 750 l 707 750 l 785 543 q 692 501 731 528 q 603 418 653 474 l 603 418 l 550 360 l 696 14 l 696 0 l 407 0 l 324 197 l 318 197 l 276 139 q 163 22 218 58 q 39 -14 108 -14 l 39 -14 l -39 193 q 158 321 68 221 z "},"y":{"ha":771,"x_min":-69,"x_max":771,"o":"m -69 -244 l -69 -244 l 19 -29 q 135 -53 72 -64 q 242 1 199 -43 l 242 1 l 92 497 q 17 676 54 622 l 17 676 l 131 724 q 236 750 194 750 l 236 750 q 338 650 314 750 l 338 650 l 424 272 l 429 272 q 517 571 517 453 l 517 571 q 492 681 517 631 l 492 681 l 697 764 q 771 578 771 682 l 771 578 q 708 348 771 493 q 551 60 646 203 q 330 -187 457 -83 q 90 -292 203 -292 l 90 -292 q -69 -244 -4 -292 z "},"z":{"ha":781,"x_min":-44,"x_max":760,"o":"m 456 0 l 456 0 l -44 0 l -15 158 l 229 383 q 292 439 258 411 q 344 481 325 467 l 344 481 l 364 496 l 363 501 l 74 501 l 117 736 l 758 736 l 729 578 l 485 353 q 424 298 457 326 q 372 256 390 269 l 372 256 l 353 240 l 354 235 l 419 235 q 527 264 494 235 q 574 342 560 293 l 574 342 l 760 282 q 742 206 751 240 q 709 132 732 172 q 655 65 686 92 q 572 19 624 38 q 456 0 521 0 z "},"{":{"ha":483,"x_min":0,"x_max":575,"o":"m 319 -122 l 367 -122 l 343 -264 l 260 -264 q 68 -89 68 -264 l 68 -89 q 76 -8 68 -58 l 76 -8 l 100 121 q 111 211 111 182 l 111 211 q 0 322 111 322 l 0 322 l 25 456 q 138 496 103 456 q 190 638 172 536 l 190 638 l 225 828 q 482 1042 265 1042 l 482 1042 l 575 1042 l 549 900 l 515 900 q 471 898 486 900 q 438 888 456 896 q 409 860 419 879 q 393 807 399 840 l 393 807 l 361 633 q 340 547 351 582 q 305 477 328 513 q 243 420 282 442 q 149 392 204 399 l 149 392 l 147 386 q 278 196 278 350 l 278 196 q 269 113 278 156 l 269 113 l 244 -31 q 242 -58 242 -47 l 242 -58 q 319 -122 242 -122 l 319 -122 z "},"|":{"ha":390,"x_min":125,"x_max":293,"o":"m 125 -319 l 125 1069 l 293 1069 l 293 -319 l 125 -319 z "},"}":{"ha":481,"x_min":-96,"x_max":479,"o":"m 160 900 l 113 900 l 136 1042 l 219 1042 q 411 867 411 1042 l 411 867 q 403 786 411 836 l 403 786 l 379 657 q 368 567 368 596 l 368 567 q 479 456 368 456 l 479 456 l 454 322 q 342 282 376 322 q 289 140 307 242 l 289 140 l 254 -50 q -3 -264 214 -264 l -3 -264 l -96 -264 l -69 -122 l -36 -122 q 8 -120 -7 -122 q 42 -110 24 -118 q 70 -82 60 -101 q 86 -29 81 -62 l 86 -29 l 118 144 q 140 231 128 196 q 174 301 151 265 q 236 358 197 336 q 331 386 275 379 l 331 386 l 332 392 q 201 582 201 428 l 201 582 q 210 665 201 621 l 210 665 l 235 808 q 238 836 238 825 l 238 836 q 160 900 238 900 l 160 900 z "},"~":{"ha":860,"x_min":49,"x_max":811,"o":"m 183 269 l 183 269 l 49 314 q 141 500 81 433 q 289 567 201 567 l 289 567 q 407 536 349 567 q 508 475 465 506 q 575 444 551 444 l 575 444 q 676 569 632 444 l 676 569 l 811 525 q 571 272 747 272 l 571 272 q 457 303 513 272 q 359 364 401 333 q 289 394 317 394 l 289 394 q 229 362 253 394 q 183 269 206 329 z "}," ":{"ha":319,"x_min":null,"x_max":null,"o":""},"¡":{"ha":436,"x_min":-44,"x_max":388,"o":"m 124 361 l 124 361 l 296 361 q 290 18 314 151 l 290 18 l 239 -264 l -44 -264 l 7 18 q 124 361 39 189 z m 388 632 l 388 632 q 351 504 388 543 q 228 465 315 465 l 228 465 q 140 490 169 465 q 110 576 110 515 l 110 576 q 144 702 110 661 q 268 743 179 743 l 268 743 q 388 632 388 743 z "},"¢":{"ha":869,"x_min":129,"x_max":790,"o":"m 483 -14 l 318 -14 l 343 129 q 184 233 239 153 q 129 419 129 313 l 129 419 q 226 699 129 575 q 475 858 324 824 l 475 858 l 501 1000 l 667 1000 l 642 865 q 790 800 726 850 l 790 800 l 707 642 q 608 672 660 672 l 608 672 q 466 603 522 672 q 410 444 410 533 l 410 444 q 504 333 410 333 l 504 333 q 632 406 574 333 l 632 406 l 738 263 q 508 126 640 150 l 508 126 l 483 -14 z "},"£":{"ha":869,"x_min":29,"x_max":847,"o":"m 243 407 l 103 407 l 133 575 l 250 575 q 375 892 258 786 l 375 892 q 636 986 478 986 l 636 986 q 847 928 753 986 l 847 928 l 758 739 q 664 761 711 761 l 664 761 q 529 575 529 761 l 529 575 l 728 575 l 697 407 l 528 407 q 488 312 515 350 q 397 247 461 274 l 397 247 l 397 242 l 789 242 l 726 0 l 29 0 l 63 178 q 182 242 129 182 q 243 407 235 303 l 243 407 z "},"¤":{"ha":869,"x_min":56,"x_max":846,"o":"m 165 501 l 165 501 q 206 643 165 576 l 206 643 l 56 788 l 167 897 l 315 746 q 451 781 378 781 l 451 781 q 586 746 524 781 l 586 746 l 735 897 l 846 788 l 696 644 q 738 501 738 579 l 738 501 q 696 357 738 422 l 696 357 l 846 214 l 735 104 l 585 256 q 451 222 525 222 l 451 222 q 315 256 382 222 l 315 256 l 167 104 l 56 214 l 207 358 q 165 501 165 424 z m 363 592 q 329 501 329 558 q 363 410 329 444 q 451 376 396 376 q 540 410 507 376 q 574 501 574 444 q 540 592 574 558 q 451 626 507 626 q 363 592 396 626 z "},"¥":{"ha":869,"x_min":64,"x_max":926,"o":"m 261 211 l 64 211 l 86 332 l 282 332 l 304 454 l 107 454 l 129 575 l 254 575 l 135 958 l 135 972 l 431 972 l 449 854 l 471 638 l 476 638 q 564 856 521 761 l 564 856 l 618 972 l 926 972 l 926 958 l 674 575 l 806 575 l 783 454 l 586 454 l 564 332 l 763 332 l 740 211 l 543 211 l 504 0 l 222 0 l 261 211 z "},"¦":{"ha":390,"x_min":125,"x_max":293,"o":"m 293 1000 l 293 465 l 125 465 l 125 1000 l 293 1000 z m 125 -250 l 125 285 l 293 285 l 293 -250 l 125 -250 z "},"§":{"ha":722,"x_min":0,"x_max":725,"o":"m 725 958 l 725 958 l 663 822 q 496 858 593 858 l 496 858 q 421 845 450 858 q 392 807 392 832 q 423 759 392 782 q 498 713 454 736 q 586 659 542 689 q 662 580 631 629 q 693 468 693 531 l 693 468 q 560 242 693 331 l 560 242 q 590 136 590 196 l 590 136 q 494 -46 590 15 q 261 -107 397 -107 l 261 -107 q 0 -37 107 -107 l 0 -37 l 68 104 q 249 61 149 61 l 249 61 q 331 76 299 61 q 363 118 363 90 l 363 118 q 340 156 363 138 q 285 190 318 175 q 213 231 251 206 q 140 283 174 256 q 85 358 107 311 q 63 464 63 406 l 63 464 q 204 678 63 603 l 204 678 q 175 783 175 725 l 175 783 q 273 954 175 894 q 503 1014 371 1014 l 503 1014 q 725 958 632 1014 z m 269 506 l 269 506 q 288 458 269 481 q 326 422 307 435 q 390 383 346 408 q 454 346 435 358 l 454 346 q 479 415 479 381 l 479 415 q 461 462 479 439 q 424 499 443 485 q 363 538 404 513 q 303 576 322 563 l 303 576 q 269 506 269 544 z "},"¨":{"ha":556,"x_min":100,"x_max":653,"o":"m 322 958 l 322 958 q 293 858 322 889 q 193 828 264 828 l 193 828 q 122 851 144 828 q 100 926 100 875 l 100 926 q 130 1020 100 990 q 231 1050 160 1050 l 231 1050 q 300 1028 278 1050 q 322 958 322 1007 z m 653 958 l 653 958 q 624 858 653 889 q 524 828 594 828 l 524 828 q 453 851 475 828 q 431 926 431 875 l 431 926 q 460 1020 431 990 q 561 1050 490 1050 l 561 1050 q 631 1028 608 1050 q 653 958 653 1007 z "},"©":{"ha":1018,"x_min":65,"x_max":988,"o":"m 192 165 q 65 500 65 292 q 192 835 65 708 q 526 961 318 961 q 861 835 735 961 q 988 500 988 708 q 861 165 988 292 q 526 39 735 39 q 192 165 318 39 z m 280 753 q 190 500 190 660 q 280 247 190 340 q 526 153 369 153 q 773 247 683 153 q 863 500 863 340 q 773 753 863 660 q 526 847 683 847 q 280 753 369 847 z m 731 732 l 731 732 l 686 608 q 601 626 647 626 l 601 626 q 493 510 493 626 l 493 510 q 599 381 493 381 l 599 381 q 707 408 651 381 l 707 408 l 740 281 q 553 233 656 233 l 553 233 q 367 303 433 233 q 301 506 301 374 l 301 506 q 378 699 301 632 q 569 767 454 767 l 569 767 q 731 732 657 767 z "},"ª":{"ha":574,"x_min":67,"x_max":625,"o":"m 403 767 l 403 767 l 407 789 q 383 794 397 794 l 383 794 q 301 733 333 794 q 269 611 269 671 l 269 611 q 285 576 269 576 l 285 576 q 349 631 310 576 q 403 767 388 685 z m 550 928 l 550 928 l 625 928 l 558 571 q 561 454 546 499 l 561 454 l 374 418 q 364 519 356 460 l 364 519 l 358 519 q 206 418 304 418 l 206 418 q 102 468 138 418 q 67 592 67 518 l 67 592 q 155 825 67 722 q 363 928 243 928 l 363 928 q 463 900 422 928 l 463 900 q 550 928 481 928 z "},"«":{"ha":789,"x_min":21,"x_max":782,"o":"m 251 50 l 21 375 l 319 700 l 435 600 l 229 375 l 379 139 l 251 50 z m 599 50 l 368 375 l 667 700 l 782 600 l 576 375 l 726 139 l 599 50 z "},"¬":{"ha":860,"x_min":42,"x_max":790,"o":"m 790 158 l 622 158 l 622 446 l 42 446 l 42 613 l 790 613 l 790 158 z "},"­":{"ha":467,"x_min":26,"x_max":442,"o":"m 442 478 l 410 308 l 26 308 l 58 478 l 442 478 z "},"®":{"ha":699,"x_min":93,"x_max":726,"o":"m 180 506 q 93 736 93 592 q 180 967 93 881 q 410 1053 267 1053 q 640 967 553 1053 q 726 736 726 881 q 640 506 726 592 q 410 419 553 419 q 180 506 267 419 z m 238 913 q 178 736 178 850 q 238 559 178 622 q 410 496 299 496 q 581 559 521 496 q 642 736 642 622 q 581 913 642 850 q 410 976 521 976 q 238 913 299 976 z m 397 699 l 383 699 l 383 596 l 299 596 l 299 890 l 425 890 q 546 797 546 890 l 546 797 q 490 708 546 732 l 490 708 l 565 601 l 565 596 l 464 596 l 397 699 z m 447 769 q 456 794 456 776 q 447 819 456 813 q 418 826 439 826 l 418 826 l 383 826 l 383 763 l 418 763 q 447 769 439 763 z "},"¯":{"ha":556,"x_min":142,"x_max":610,"o":"m 610 989 l 588 864 l 142 864 l 164 989 l 610 989 z "},"°":{"ha":575,"x_min":88,"x_max":613,"o":"m 88 738 l 88 738 q 172 939 88 864 q 367 1014 257 1014 l 367 1014 q 540 949 468 1014 q 613 765 613 883 l 613 765 q 528 563 613 638 q 331 489 444 489 l 331 489 q 159 553 231 489 q 88 738 88 618 z m 472 765 l 472 765 q 438 854 472 822 q 356 886 404 886 l 356 886 q 265 846 301 886 q 228 738 228 806 l 228 738 q 261 649 228 681 q 342 617 294 617 l 342 617 q 434 657 396 617 q 472 765 472 697 z "},"±":{"ha":860,"x_min":56,"x_max":804,"o":"m 804 621 l 804 454 l 514 454 l 514 208 l 346 208 l 346 454 l 56 454 l 56 621 l 346 621 l 346 861 l 514 861 l 514 621 l 804 621 z m 804 167 l 804 0 l 56 0 l 56 167 l 804 167 z "},"²":{"ha":519,"x_min":76,"x_max":568,"o":"m 336 826 l 338 821 l 551 821 l 521 653 l 76 653 l 100 776 l 249 892 q 310 942 292 926 q 344 981 329 958 q 360 1025 360 1003 l 360 1025 q 313 1064 360 1064 l 313 1064 q 204 1026 254 1064 l 204 1026 l 140 1140 q 376 1213 246 1213 l 376 1213 q 513 1173 458 1213 q 568 1058 568 1133 l 568 1058 q 536 958 568 997 q 440 885 504 919 l 440 885 l 336 826 z "},"³":{"ha":535,"x_min":83,"x_max":583,"o":"m 215 1043 l 215 1043 l 163 1160 q 393 1213 265 1213 l 393 1213 q 530 1181 476 1213 q 583 1081 583 1150 l 583 1081 q 538 986 583 1022 q 418 943 492 950 l 418 943 l 417 938 q 521 906 478 938 q 564 817 564 875 l 564 817 q 519 714 564 756 q 419 658 475 672 q 300 643 363 643 l 300 643 q 83 711 171 643 l 83 711 l 135 832 q 288 783 207 783 l 288 783 q 356 832 356 783 l 356 832 q 290 875 356 875 l 290 875 l 226 875 l 247 986 l 290 986 q 375 1035 375 986 l 375 1035 q 326 1072 375 1072 l 326 1072 q 215 1043 267 1072 z "},"´":{"ha":556,"x_min":215,"x_max":532,"o":"m 294 807 l 215 889 l 436 1131 l 532 1031 l 294 807 z "},"µ":{"ha":810,"x_min":-21,"x_max":796,"o":"m 471 472 l 471 472 l 515 711 l 781 750 l 796 736 l 711 279 q 718 231 706 247 q 771 221 731 215 l 771 221 l 731 8 q 604 -14 672 -14 l 604 -14 q 561 -9 583 -14 q 506 11 539 -4 q 454 64 474 26 q 438 157 435 101 l 438 157 l 432 157 q 246 -7 358 26 l 246 -7 l 238 -50 q 217 -278 217 -161 l 217 -278 l -18 -278 q -21 -187 -25 -251 q -17 -95 -17 -122 q -6 -6 -17 -68 q 8 80 4 57 q 24 159 13 103 q 38 231 35 215 l 38 231 l 99 560 q 94 722 117 654 l 94 722 l 264 747 q 342 742 313 754 q 380 709 372 731 q 390 662 388 688 q 385 614 392 636 l 385 614 l 325 297 q 319 246 319 269 l 319 246 q 332 215 319 215 l 332 215 q 408 303 361 215 q 471 472 456 390 z "},"¶":{"ha":721,"x_min":76,"x_max":754,"o":"m 476 1000 l 754 1000 l 543 -160 l 417 -160 l 606 878 l 522 878 l 333 -160 l 207 -160 l 310 404 q 138 483 199 407 q 76 665 76 560 l 76 665 q 188 916 76 832 q 476 1000 300 1000 l 476 1000 z "},"·":{"ha":400,"x_min":64,"x_max":342,"o":"m 64 367 l 64 367 q 100 494 64 456 q 224 533 136 533 l 224 533 q 312 508 282 533 q 342 422 342 483 l 342 422 q 307 297 342 338 q 183 256 272 256 l 183 256 q 64 367 64 256 z "},"¸":{"ha":556,"x_min":1,"x_max":326,"o":"m 200 17 l 200 17 l 311 17 q 326 -82 326 -36 l 326 -82 q 278 -228 326 -171 q 136 -286 231 -286 l 136 -286 q 1 -247 57 -286 l 1 -247 l 50 -139 q 111 -157 79 -157 l 111 -157 q 182 -122 158 -157 q 206 -35 206 -86 l 206 -35 q 200 17 206 -10 z "},"¹":{"ha":424,"x_min":118,"x_max":476,"o":"m 257 1033 l 125 1033 l 118 1167 l 369 1210 q 458 1193 429 1219 q 476 1111 486 1167 l 476 1111 l 393 653 l 188 653 l 257 1033 z "},"º":{"ha":572,"x_min":81,"x_max":603,"o":"m 354 794 l 354 794 q 301 753 319 794 q 283 656 283 713 l 283 656 q 331 551 283 551 l 331 551 q 383 592 365 551 q 400 692 400 633 l 400 692 q 354 794 400 794 z m 311 418 l 311 418 q 143 485 206 418 q 81 658 81 551 l 81 658 q 165 852 81 776 q 374 928 249 928 l 374 928 q 542 862 482 928 q 603 690 603 796 l 603 690 q 519 492 603 567 q 311 418 436 418 z "},"»":{"ha":789,"x_min":4,"x_max":765,"o":"m 535 700 l 765 375 l 467 50 l 351 150 l 557 375 l 407 611 l 535 700 z m 188 700 l 418 375 l 119 50 l 4 150 l 210 375 l 60 611 l 188 700 z "},"¼":{"ha":1333,"x_min":111,"x_max":1256,"o":"m 250 807 l 118 807 l 111 940 l 363 983 q 451 967 422 993 q 469 885 479 940 l 469 885 l 386 426 l 181 426 l 250 807 z m 935 0 l 950 86 l 703 86 l 726 218 l 963 550 l 1240 550 l 1182 232 l 1256 232 l 1229 86 l 1156 86 l 1140 0 l 935 0 z m 913 231 l 913 225 l 982 225 l 994 290 l 1028 413 l 1022 413 q 964 303 997 350 l 964 303 l 913 231 z m 344 -43 l 231 44 l 957 1014 l 1071 926 l 344 -43 z "},"½":{"ha":1333,"x_min":114,"x_max":1254,"o":"m 340 -43 l 226 44 l 953 1014 l 1067 926 l 340 -43 z m 253 807 l 121 807 l 114 940 l 365 983 q 453 967 425 993 q 472 885 482 940 l 472 885 l 389 426 l 183 426 l 253 807 z m 1022 174 l 1024 168 l 1238 168 l 1207 0 l 763 0 l 786 124 l 935 239 q 997 290 978 274 q 1031 328 1015 306 q 1046 372 1046 350 l 1046 372 q 999 411 1046 411 l 999 411 q 890 374 940 411 l 890 374 l 826 488 q 1063 560 932 560 l 1063 560 q 1199 520 1144 560 q 1254 406 1254 481 l 1254 406 q 1222 306 1254 344 q 1126 232 1190 267 l 1126 232 l 1022 174 z "},"¾":{"ha":1333,"x_min":43,"x_max":1261,"o":"m 368 -43 l 254 44 l 981 1014 l 1094 926 l 368 -43 z m 175 817 l 175 817 l 122 933 q 353 986 225 986 l 353 986 q 490 955 436 986 q 543 854 543 924 l 543 854 q 497 760 543 796 q 378 717 451 724 l 378 717 l 376 711 q 481 680 438 711 q 524 590 524 649 l 524 590 q 479 488 524 529 q 378 431 435 446 q 260 417 322 417 l 260 417 q 43 485 131 417 l 43 485 l 94 606 q 247 557 167 557 l 247 557 q 315 606 315 557 l 315 606 q 250 649 315 649 l 250 649 l 186 649 l 207 760 l 250 760 q 335 808 335 760 l 335 808 q 286 846 335 846 l 286 846 q 175 817 226 846 z m 940 0 l 956 86 l 708 86 l 732 218 l 968 550 l 1246 550 l 1188 232 l 1261 232 l 1235 86 l 1161 86 l 1146 0 l 940 0 z m 918 231 l 918 225 l 988 225 l 1000 290 l 1033 413 l 1028 413 q 969 303 1003 350 l 969 303 l 918 231 z "},"¿":{"ha":715,"x_min":-42,"x_max":604,"o":"m 501 6 l 501 6 l 604 -174 q 253 -278 443 -278 l 253 -278 q 46 -222 133 -278 q -42 -54 -42 -167 l -42 -54 q -26 39 -42 -1 q 22 108 -10 79 q 84 155 54 138 q 160 194 114 172 l 160 194 q 221 224 201 214 q 269 256 240 235 q 314 302 299 276 q 335 361 329 328 l 335 361 l 511 361 q 467 189 511 251 q 350 83 422 126 l 350 83 q 322 67 343 79 q 291 50 300 56 q 269 33 282 44 q 250 11 256 22 q 244 -12 244 0 l 244 -12 q 321 -60 244 -60 l 321 -60 q 501 6 410 -60 z m 593 632 l 593 632 q 557 504 593 543 q 433 465 521 465 l 433 465 q 345 490 375 465 q 315 576 315 515 l 315 576 q 350 702 315 661 q 474 743 385 743 l 474 743 q 593 632 593 743 z "},"À":{"ha":942,"x_min":-62,"x_max":872,"o":"m 726 1006 l 872 0 l 576 0 l 563 214 l 332 214 l 251 0 l -62 0 l -62 14 l 411 956 l 715 1014 l 726 1006 z m 531 725 l 525 725 l 410 419 l 550 419 l 531 725 z m 365 1219 l 438 1354 l 732 1163 l 675 1056 l 365 1219 z "},"Á":{"ha":942,"x_min":-62,"x_max":872,"o":"m 726 1006 l 872 0 l 576 0 l 563 214 l 332 214 l 251 0 l -62 0 l -62 14 l 411 956 l 715 1014 l 726 1006 z m 531 725 l 525 725 l 410 419 l 550 419 l 531 725 z m 451 1056 l 394 1163 l 689 1354 l 761 1219 l 451 1056 z "},"Â":{"ha":942,"x_min":-62,"x_max":872,"o":"m 726 1006 l 872 0 l 576 0 l 563 214 l 332 214 l 251 0 l -62 0 l -62 14 l 411 956 l 715 1014 l 726 1006 z m 531 725 l 525 725 l 410 419 l 550 419 l 531 725 z m 410 1056 l 342 1149 l 564 1340 l 683 1340 l 850 1139 l 768 1056 l 615 1213 l 410 1056 z "},"Ã":{"ha":942,"x_min":-62,"x_max":872,"o":"m 726 1006 l 872 0 l 576 0 l 563 214 l 332 214 l 251 0 l -62 0 l -62 14 l 411 956 l 715 1014 l 726 1006 z m 531 725 l 525 725 l 410 419 l 550 419 l 531 725 z m 456 1068 l 456 1068 l 344 1082 q 367 1170 353 1129 q 416 1249 382 1211 q 494 1286 450 1286 l 494 1286 q 599 1244 536 1286 q 672 1203 661 1203 l 672 1203 q 704 1231 690 1203 q 724 1286 718 1258 l 724 1286 l 835 1272 q 812 1184 828 1226 q 762 1105 796 1142 q 685 1068 728 1068 l 685 1068 q 576 1110 638 1068 q 507 1151 515 1151 l 507 1151 q 456 1068 475 1151 z "},"Ä":{"ha":942,"x_min":-62,"x_max":872,"o":"m 726 1006 l 872 0 l 576 0 l 563 214 l 332 214 l 251 0 l -62 0 l -62 14 l 411 956 l 715 1014 l 726 1006 z m 531 725 l 525 725 l 410 419 l 550 419 l 531 725 z m 263 1186 l 263 1186 q 294 1294 263 1261 q 401 1326 325 1326 l 401 1326 q 504 1231 504 1326 l 504 1231 q 474 1120 504 1156 q 365 1085 444 1085 l 365 1085 q 288 1108 313 1085 q 263 1186 263 1132 z m 619 1186 l 619 1186 q 651 1294 619 1261 q 758 1326 682 1326 l 758 1326 q 861 1231 861 1326 l 861 1231 q 831 1120 861 1156 q 722 1085 801 1085 l 722 1085 q 644 1108 669 1085 q 619 1186 619 1132 z "},"Å":{"ha":942,"x_min":-62,"x_max":872,"o":"m 726 1006 l 872 0 l 576 0 l 563 214 l 332 214 l 251 0 l -62 0 l -62 14 l 411 956 l 715 1014 l 726 1006 z m 531 725 l 525 725 l 410 419 l 550 419 l 531 725 z m 592 1354 l 592 1354 q 708 1315 663 1354 q 754 1208 754 1275 l 754 1208 q 699 1078 754 1128 q 556 1029 643 1029 l 556 1029 q 439 1072 485 1029 q 393 1179 393 1114 l 393 1179 q 449 1305 393 1256 q 592 1354 506 1354 z m 514 1185 l 514 1185 q 527 1142 514 1158 q 565 1125 540 1125 l 565 1125 q 633 1200 633 1125 l 633 1200 q 620 1242 633 1225 q 582 1258 607 1258 l 582 1258 q 532 1238 550 1258 q 514 1185 514 1218 z "},"Æ":{"ha":1403,"x_min":-69,"x_max":1444,"o":"m 1293 0 l 632 0 l 686 296 l 443 296 l 249 0 l -69 0 l -69 14 l 578 1000 l 1444 1000 l 1404 775 l 1056 775 l 1025 607 l 1307 607 l 1268 394 l 986 394 l 954 225 l 1351 225 l 1293 0 z m 774 779 l 753 779 l 571 501 l 724 501 l 774 779 z "},"Ç":{"ha":842,"x_min":49,"x_max":897,"o":"m 719 276 l 719 276 l 810 81 q 574 -8 701 6 l 574 -8 q 582 -82 582 -46 l 582 -82 q 534 -228 582 -171 q 392 -286 486 -286 l 392 -286 q 257 -247 313 -286 l 257 -247 l 306 -139 q 367 -157 335 -157 l 367 -157 q 438 -122 414 -157 q 461 -35 461 -86 l 461 -35 q 460 -12 461 -21 l 460 -12 q 159 112 269 -3 q 49 418 49 226 l 49 418 q 220 842 49 669 q 639 1014 392 1014 l 639 1014 q 897 951 788 1014 l 897 951 l 808 763 q 654 789 740 789 l 654 789 q 421 686 507 789 q 335 433 335 583 l 335 433 q 385 277 335 336 q 529 218 435 218 l 529 218 q 719 276 635 218 z "},"È":{"ha":775,"x_min":4,"x_max":817,"o":"m 665 0 l 4 0 l 186 1000 l 817 1000 l 776 775 l 428 775 l 399 619 l 679 619 l 640 407 l 360 407 l 326 225 l 724 225 l 665 0 z m 315 1219 l 388 1354 l 682 1163 l 625 1056 l 315 1219 z "},"É":{"ha":775,"x_min":4,"x_max":817,"o":"m 665 0 l 4 0 l 186 1000 l 817 1000 l 776 775 l 428 775 l 399 619 l 679 619 l 640 407 l 360 407 l 326 225 l 724 225 l 665 0 z m 413 1056 l 356 1163 l 650 1354 l 722 1219 l 413 1056 z "},"Ê":{"ha":775,"x_min":4,"x_max":817,"o":"m 665 0 l 4 0 l 186 1000 l 817 1000 l 776 775 l 428 775 l 399 619 l 679 619 l 640 407 l 360 407 l 326 225 l 724 225 l 665 0 z m 332 1056 l 264 1149 l 486 1340 l 606 1340 l 772 1139 l 690 1056 l 538 1213 l 332 1056 z "},"Ë":{"ha":775,"x_min":4,"x_max":817,"o":"m 665 0 l 4 0 l 186 1000 l 817 1000 l 776 775 l 428 775 l 399 619 l 679 619 l 640 407 l 360 407 l 326 225 l 724 225 l 665 0 z m 197 1186 l 197 1186 q 228 1294 197 1261 q 336 1326 260 1326 l 336 1326 q 439 1231 439 1326 l 439 1231 q 409 1120 439 1156 q 300 1085 379 1085 l 300 1085 q 222 1108 247 1085 q 197 1186 197 1132 z m 554 1186 l 554 1186 q 585 1294 554 1261 q 693 1326 617 1326 l 693 1326 q 796 1231 796 1326 l 796 1231 q 766 1120 796 1156 q 657 1085 736 1085 l 657 1085 q 579 1108 604 1085 q 554 1186 554 1132 z "},"Ì":{"ha":435,"x_min":4,"x_max":532,"o":"m 286 0 l 4 0 l 186 1000 l 468 1000 l 286 0 z m 165 1219 l 238 1354 l 532 1163 l 475 1056 l 165 1219 z "},"Í":{"ha":435,"x_min":4,"x_max":549,"o":"m 286 0 l 4 0 l 186 1000 l 468 1000 l 286 0 z m 239 1056 l 182 1163 l 476 1354 l 549 1219 l 239 1056 z "},"Î":{"ha":435,"x_min":4,"x_max":593,"o":"m 286 0 l 4 0 l 186 1000 l 468 1000 l 286 0 z m 153 1056 l 85 1149 l 307 1340 l 426 1340 l 593 1139 l 511 1056 l 358 1213 l 153 1056 z "},"Ï":{"ha":435,"x_min":4,"x_max":644,"o":"m 286 0 l 4 0 l 186 1000 l 468 1000 l 286 0 z m 46 1186 l 46 1186 q 77 1294 46 1261 q 185 1326 108 1326 l 185 1326 q 288 1231 288 1326 l 288 1231 q 258 1120 288 1156 q 149 1085 228 1085 l 149 1085 q 71 1108 96 1085 q 46 1186 46 1132 z m 403 1186 l 403 1186 q 434 1294 403 1261 q 542 1326 465 1326 l 542 1326 q 644 1231 644 1326 l 644 1231 q 615 1120 644 1156 q 506 1085 585 1085 l 506 1085 q 428 1108 453 1085 q 403 1186 403 1132 z "},"Ð":{"ha":1032,"x_min":29,"x_max":1025,"o":"m 119 407 l 29 407 l 68 619 l 158 619 l 228 1000 l 465 1000 q 685 977 588 1000 q 862 904 783 954 q 983 767 940 854 q 1025 558 1025 679 l 1025 558 q 970 294 1025 406 q 814 120 915 183 q 588 28 713 57 q 306 0 463 0 l 306 0 l 46 0 l 119 407 z m 483 779 l 469 779 l 440 619 l 589 619 l 550 407 l 401 407 l 368 221 l 382 221 q 651 305 563 221 q 739 544 739 389 l 739 544 q 678 720 739 661 q 483 779 618 779 l 483 779 z "},"Ñ":{"ha":989,"x_min":4,"x_max":1022,"o":"m 378 663 l 368 726 l 363 726 q 324 314 357 508 l 324 314 l 271 0 l 4 0 l 186 1000 l 535 1000 l 608 676 q 640 508 625 604 q 661 353 654 413 l 661 353 l 667 292 l 672 292 q 703 686 672 508 l 703 686 l 756 1000 l 1022 1000 l 847 43 l 514 -14 l 440 310 q 404 494 422 390 q 378 663 386 599 l 378 663 z m 489 1065 l 489 1065 l 378 1079 q 401 1167 386 1126 q 449 1246 415 1208 q 528 1283 483 1283 l 528 1283 q 632 1242 569 1283 q 706 1200 694 1200 l 706 1200 q 738 1228 724 1200 q 757 1283 751 1256 l 757 1283 l 868 1269 q 845 1181 861 1224 q 795 1102 829 1139 q 718 1065 761 1065 l 718 1065 q 610 1107 671 1065 q 540 1149 549 1149 l 540 1149 q 489 1065 508 1149 z "},"Ò":{"ha":1043,"x_min":49,"x_max":1036,"o":"m 586 796 l 586 796 q 438 733 497 796 q 356 591 378 671 q 335 424 335 511 l 335 424 q 375 266 335 328 q 508 204 415 204 l 508 204 q 624 240 575 204 q 699 334 674 276 q 738 453 725 392 q 750 578 750 515 l 750 578 q 586 796 750 796 z m 615 1014 l 615 1014 q 849 951 751 1014 q 991 788 946 888 q 1036 567 1036 689 l 1036 567 q 876 156 1036 325 q 465 -14 717 -14 l 465 -14 q 157 115 265 -14 q 49 428 49 243 l 49 428 q 210 841 49 668 q 615 1014 372 1014 z m 438 1219 l 510 1354 l 804 1163 l 747 1056 l 438 1219 z "},"Ó":{"ha":1043,"x_min":49,"x_max":1036,"o":"m 586 796 l 586 796 q 438 733 497 796 q 356 591 378 671 q 335 424 335 511 l 335 424 q 375 266 335 328 q 508 204 415 204 l 508 204 q 624 240 575 204 q 699 334 674 276 q 738 453 725 392 q 750 578 750 515 l 750 578 q 586 796 750 796 z m 615 1014 l 615 1014 q 849 951 751 1014 q 991 788 946 888 q 1036 567 1036 689 l 1036 567 q 876 156 1036 325 q 465 -14 717 -14 l 465 -14 q 157 115 265 -14 q 49 428 49 243 l 49 428 q 210 841 49 668 q 615 1014 372 1014 z m 574 1056 l 517 1163 l 811 1354 l 883 1219 l 574 1056 z "},"Ô":{"ha":1043,"x_min":49,"x_max":1036,"o":"m 586 796 l 586 796 q 438 733 497 796 q 356 591 378 671 q 335 424 335 511 l 335 424 q 375 266 335 328 q 508 204 415 204 l 508 204 q 624 240 575 204 q 699 334 674 276 q 738 453 725 392 q 750 578 750 515 l 750 578 q 586 796 750 796 z m 615 1014 l 615 1014 q 849 951 751 1014 q 991 788 946 888 q 1036 567 1036 689 l 1036 567 q 876 156 1036 325 q 465 -14 717 -14 l 465 -14 q 157 115 265 -14 q 49 428 49 243 l 49 428 q 210 841 49 668 q 615 1014 372 1014 z m 438 1056 l 369 1149 l 592 1340 l 711 1340 l 878 1139 l 796 1056 l 643 1213 l 438 1056 z "},"Õ":{"ha":1043,"x_min":49,"x_max":1036,"o":"m 586 796 l 586 796 q 438 733 497 796 q 356 591 378 671 q 335 424 335 511 l 335 424 q 375 266 335 328 q 508 204 415 204 l 508 204 q 624 240 575 204 q 699 334 674 276 q 738 453 725 392 q 750 578 750 515 l 750 578 q 586 796 750 796 z m 615 1014 l 615 1014 q 849 951 751 1014 q 991 788 946 888 q 1036 567 1036 689 l 1036 567 q 876 156 1036 325 q 465 -14 717 -14 l 465 -14 q 157 115 265 -14 q 49 428 49 243 l 49 428 q 210 841 49 668 q 615 1014 372 1014 z m 492 1064 l 492 1064 l 381 1078 q 403 1166 389 1125 q 452 1244 418 1207 q 531 1282 486 1282 l 531 1282 q 635 1240 572 1282 q 708 1199 697 1199 l 708 1199 q 740 1226 726 1199 q 760 1282 754 1254 l 760 1282 l 871 1268 q 848 1180 864 1222 q 798 1101 832 1138 q 721 1064 764 1064 l 721 1064 q 613 1106 674 1064 q 543 1147 551 1147 l 543 1147 q 492 1064 511 1147 z "},"Ö":{"ha":1043,"x_min":49,"x_max":1036,"o":"m 586 796 l 586 796 q 438 733 497 796 q 356 591 378 671 q 335 424 335 511 l 335 424 q 375 266 335 328 q 508 204 415 204 l 508 204 q 624 240 575 204 q 699 334 674 276 q 738 453 725 392 q 750 578 750 515 l 750 578 q 586 796 750 796 z m 615 1014 l 615 1014 q 849 951 751 1014 q 991 788 946 888 q 1036 567 1036 689 l 1036 567 q 876 156 1036 325 q 465 -14 717 -14 l 465 -14 q 157 115 265 -14 q 49 428 49 243 l 49 428 q 210 841 49 668 q 615 1014 372 1014 z m 324 1186 l 324 1186 q 355 1294 324 1261 q 463 1326 386 1326 l 463 1326 q 565 1231 565 1326 l 565 1231 q 535 1120 565 1156 q 426 1085 506 1085 l 426 1085 q 349 1108 374 1085 q 324 1186 324 1132 z m 681 1186 l 681 1186 q 712 1294 681 1261 q 819 1326 743 1326 l 819 1326 q 922 1231 922 1326 l 922 1231 q 892 1120 922 1156 q 783 1085 863 1085 l 783 1085 q 706 1108 731 1085 q 681 1186 681 1132 z "},"×":{"ha":860,"x_min":56,"x_max":804,"o":"m 804 124 l 689 0 l 431 263 l 171 0 l 56 124 l 310 382 l 56 643 l 174 764 l 431 504 l 686 764 l 804 643 l 547 382 l 804 124 z "},"Ø":{"ha":1043,"x_min":49,"x_max":1036,"o":"m 615 1014 l 615 1014 q 793 979 713 1014 l 793 979 l 861 1076 l 983 989 l 917 894 q 1036 567 1036 768 l 1036 567 q 876 156 1036 325 q 465 -14 717 -14 l 465 -14 q 300 15 376 -14 l 300 15 l 222 -96 l 100 -8 l 174 96 q 49 428 49 219 l 49 428 q 210 841 49 668 q 615 1014 372 1014 z m 586 810 l 586 810 q 467 772 518 810 q 388 674 415 735 q 348 551 361 614 q 335 424 335 488 l 335 424 q 343 338 335 378 l 343 338 l 661 792 q 586 810 628 810 z m 508 190 l 508 190 q 624 228 575 190 q 699 327 674 267 q 738 451 725 388 q 750 578 750 514 l 750 578 q 744 649 750 613 l 744 649 l 433 206 q 508 190 467 190 z "},"Ù":{"ha":940,"x_min":56,"x_max":988,"o":"m 67 475 l 163 1000 l 444 1000 l 344 453 q 333 349 333 392 l 333 349 q 439 211 333 211 l 439 211 q 551 272 511 211 q 611 446 590 332 l 611 446 l 713 1000 l 988 1000 l 886 439 q 740 102 846 218 q 429 -14 635 -14 l 429 -14 q 145 88 235 -14 q 56 351 56 189 l 56 351 q 67 475 56 408 l 67 475 z m 376 1219 l 449 1354 l 743 1163 l 686 1056 l 376 1219 z "},"Ú":{"ha":940,"x_min":56,"x_max":988,"o":"m 67 475 l 163 1000 l 444 1000 l 344 453 q 333 349 333 392 l 333 349 q 439 211 333 211 l 439 211 q 551 272 511 211 q 611 446 590 332 l 611 446 l 713 1000 l 988 1000 l 886 439 q 740 102 846 218 q 429 -14 635 -14 l 429 -14 q 145 88 235 -14 q 56 351 56 189 l 56 351 q 67 475 56 408 l 67 475 z m 503 1056 l 446 1163 l 740 1354 l 813 1219 l 503 1056 z "},"Û":{"ha":940,"x_min":56,"x_max":988,"o":"m 67 475 l 163 1000 l 444 1000 l 344 453 q 333 349 333 392 l 333 349 q 439 211 333 211 l 439 211 q 551 272 511 211 q 611 446 590 332 l 611 446 l 713 1000 l 988 1000 l 886 439 q 740 102 846 218 q 429 -14 635 -14 l 429 -14 q 145 88 235 -14 q 56 351 56 189 l 56 351 q 67 475 56 408 l 67 475 z m 403 1056 l 335 1149 l 557 1340 l 676 1340 l 843 1139 l 761 1056 l 608 1213 l 403 1056 z "},"Ü":{"ha":940,"x_min":56,"x_max":988,"o":"m 67 475 l 163 1000 l 444 1000 l 344 453 q 333 349 333 392 l 333 349 q 439 211 333 211 l 439 211 q 551 272 511 211 q 611 446 590 332 l 611 446 l 713 1000 l 988 1000 l 886 439 q 740 102 846 218 q 429 -14 635 -14 l 429 -14 q 145 88 235 -14 q 56 351 56 189 l 56 351 q 67 475 56 408 l 67 475 z m 300 1186 l 300 1186 q 331 1294 300 1261 q 439 1326 363 1326 l 439 1326 q 542 1231 542 1326 l 542 1231 q 512 1120 542 1156 q 403 1085 482 1085 l 403 1085 q 325 1108 350 1085 q 300 1186 300 1132 z m 657 1186 l 657 1186 q 688 1294 657 1261 q 796 1326 719 1326 l 796 1326 q 899 1231 899 1326 l 899 1231 q 869 1120 899 1156 q 760 1085 839 1085 l 760 1085 q 682 1108 707 1085 q 657 1186 657 1132 z "},"Ý":{"ha":826,"x_min":90,"x_max":928,"o":"m 483 0 l 201 0 l 271 383 l 90 986 l 90 1000 l 386 1000 l 410 853 l 443 607 l 449 607 q 550 851 497 739 l 550 851 l 619 1000 l 928 1000 l 928 986 l 553 383 l 483 0 z m 446 1056 l 389 1163 l 683 1354 l 756 1219 l 446 1056 z "},"Þ":{"ha":847,"x_min":4,"x_max":840,"o":"m 286 0 l 4 0 l 186 1000 l 468 1000 l 443 858 q 733 771 625 851 q 840 528 840 690 l 840 528 q 808 372 840 440 q 725 263 776 304 q 602 193 674 221 q 460 155 531 165 q 311 144 389 144 l 311 144 l 286 0 z m 554 522 l 554 522 q 517 627 554 592 q 400 669 479 663 l 400 669 l 339 333 q 498 385 442 336 q 554 522 554 433 z "},"ß":{"ha":989,"x_min":-229,"x_max":968,"o":"m 42 556 l 68 694 l 165 736 l 174 800 q 222 920 182 868 q 321 1001 261 972 q 446 1042 381 1029 q 582 1056 511 1056 l 582 1056 q 863 973 758 1056 q 968 722 968 890 l 968 722 q 938 549 968 644 l 938 549 q 840 565 896 565 l 840 565 q 774 553 800 565 q 747 519 747 542 l 747 519 q 776 470 747 496 q 840 421 806 444 q 903 349 874 397 q 932 238 932 300 l 932 238 q 838 54 932 122 q 614 -14 743 -14 l 614 -14 q 388 63 482 -14 l 388 63 l 469 222 q 596 178 529 178 l 596 178 q 672 231 672 178 l 672 231 q 655 275 672 254 q 612 316 638 296 q 561 360 586 336 q 519 425 536 385 q 501 517 501 465 l 501 517 q 552 653 501 596 q 689 731 603 711 l 689 731 l 690 740 q 665 831 699 799 q 579 864 632 864 l 579 864 q 440 736 457 864 l 440 736 l 353 96 q 344 33 347 54 q 327 -36 340 11 q 299 -112 314 -83 q 253 -178 283 -140 q 186 -238 224 -217 q 92 -276 149 -260 q -35 -292 35 -292 l -35 -292 q -229 -243 -149 -292 l -229 -243 l -154 -47 q -64 -65 -110 -65 l -64 -65 q 38 -9 6 -65 q 86 157 71 47 l 86 157 l 140 556 l 42 556 z "},"à":{"ha":818,"x_min":14,"x_max":821,"o":"m 513 515 l 513 515 l 518 546 q 468 560 497 560 l 468 560 q 344 460 396 560 q 292 269 292 360 l 292 269 q 324 215 292 215 l 324 215 q 431 303 374 215 q 513 515 489 390 z m 729 750 l 729 750 l 821 750 l 719 206 q 725 35 699 93 l 725 35 l 467 -14 q 453 119 438 42 l 453 119 l 460 157 l 454 157 q 213 -14 363 -14 l 213 -14 q 63 58 111 -14 q 14 240 14 129 l 14 240 q 140 594 14 438 q 443 750 267 750 l 443 750 q 592 708 531 750 l 592 708 q 629 738 606 728 q 672 749 653 747 q 729 750 690 750 z m 310 1031 l 406 1131 l 626 889 l 547 807 l 310 1031 z "},"á":{"ha":818,"x_min":14,"x_max":821,"o":"m 513 515 l 513 515 l 518 546 q 468 560 497 560 l 468 560 q 344 460 396 560 q 292 269 292 360 l 292 269 q 324 215 292 215 l 324 215 q 431 303 374 215 q 513 515 489 390 z m 729 750 l 729 750 l 821 750 l 719 206 q 725 35 699 93 l 725 35 l 467 -14 q 453 119 438 42 l 453 119 l 460 157 l 454 157 q 213 -14 363 -14 l 213 -14 q 63 58 111 -14 q 14 240 14 129 l 14 240 q 140 594 14 438 q 443 750 267 750 l 443 750 q 592 708 531 750 l 592 708 q 629 738 606 728 q 672 749 653 747 q 729 750 690 750 z m 493 807 l 414 889 l 635 1131 l 731 1031 l 493 807 z "},"â":{"ha":818,"x_min":14,"x_max":821,"o":"m 513 515 l 513 515 l 518 546 q 468 560 497 560 l 468 560 q 344 460 396 560 q 292 269 292 360 l 292 269 q 324 215 292 215 l 324 215 q 431 303 374 215 q 513 515 489 390 z m 729 750 l 729 750 l 821 750 l 719 206 q 725 35 699 93 l 725 35 l 467 -14 q 453 119 438 42 l 453 119 l 460 157 l 454 157 q 213 -14 363 -14 l 213 -14 q 63 58 111 -14 q 14 240 14 129 l 14 240 q 140 594 14 438 q 443 750 267 750 l 443 750 q 592 708 531 750 l 592 708 q 629 738 606 728 q 672 749 653 747 q 729 750 690 750 z m 382 807 l 297 879 l 486 1117 l 608 1117 l 738 864 l 640 807 l 533 985 l 382 807 z "},"ã":{"ha":818,"x_min":14,"x_max":821,"o":"m 513 515 l 513 515 l 518 546 q 468 560 497 560 l 468 560 q 344 460 396 560 q 292 269 292 360 l 292 269 q 324 215 292 215 l 324 215 q 431 303 374 215 q 513 515 489 390 z m 729 750 l 729 750 l 821 750 l 719 206 q 725 35 699 93 l 725 35 l 467 -14 q 453 119 438 42 l 453 119 l 460 157 l 454 157 q 213 -14 363 -14 l 213 -14 q 63 58 111 -14 q 14 240 14 129 l 14 240 q 140 594 14 438 q 443 750 267 750 l 443 750 q 592 708 531 750 l 592 708 q 629 738 606 728 q 672 749 653 747 q 729 750 690 750 z m 364 821 l 364 821 l 253 835 q 276 923 261 882 q 324 1001 290 964 q 403 1039 358 1039 l 403 1039 q 507 997 444 1039 q 581 956 569 956 l 581 956 q 613 983 599 956 q 632 1039 626 1011 l 632 1039 l 743 1025 q 720 937 736 979 q 670 858 704 894 q 593 821 636 821 l 593 821 q 485 863 546 821 q 415 904 424 904 l 415 904 q 364 821 383 904 z "},"ä":{"ha":818,"x_min":14,"x_max":821,"o":"m 513 515 l 513 515 l 518 546 q 468 560 497 560 l 468 560 q 344 460 396 560 q 292 269 292 360 l 292 269 q 324 215 292 215 l 324 215 q 431 303 374 215 q 513 515 489 390 z m 729 750 l 729 750 l 821 750 l 719 206 q 725 35 699 93 l 725 35 l 467 -14 q 453 119 438 42 l 453 119 l 460 157 l 454 157 q 213 -14 363 -14 l 213 -14 q 63 58 111 -14 q 14 240 14 129 l 14 240 q 140 594 14 438 q 443 750 267 750 l 443 750 q 592 708 531 750 l 592 708 q 629 738 606 728 q 672 749 653 747 q 729 750 690 750 z m 425 958 l 425 958 q 396 858 425 889 q 296 828 367 828 l 296 828 q 225 851 247 828 q 203 926 203 875 l 203 926 q 233 1020 203 990 q 333 1050 263 1050 l 333 1050 q 403 1028 381 1050 q 425 958 425 1007 z m 756 958 l 756 958 q 726 858 756 889 q 626 828 697 828 l 626 828 q 556 851 578 828 q 533 926 533 875 l 533 926 q 563 1020 533 990 q 664 1050 593 1050 l 664 1050 q 733 1028 711 1050 q 756 958 756 1007 z "},"å":{"ha":818,"x_min":14,"x_max":821,"o":"m 513 515 l 513 515 l 518 546 q 468 560 497 560 l 468 560 q 344 460 396 560 q 292 269 292 360 l 292 269 q 324 215 292 215 l 324 215 q 431 303 374 215 q 513 515 489 390 z m 729 750 l 729 750 l 821 750 l 719 206 q 725 35 699 93 l 725 35 l 467 -14 q 453 119 438 42 l 453 119 l 460 157 l 454 157 q 213 -14 363 -14 l 213 -14 q 63 58 111 -14 q 14 240 14 129 l 14 240 q 140 594 14 438 q 443 750 267 750 l 443 750 q 592 708 531 750 l 592 708 q 629 738 606 728 q 672 749 653 747 q 729 750 690 750 z m 522 1135 l 522 1135 q 639 1095 593 1135 q 685 989 685 1056 l 685 989 q 629 859 685 908 q 486 810 574 810 l 486 810 q 369 852 415 810 q 324 960 324 894 l 324 960 q 380 1085 324 1036 q 522 1135 436 1135 z m 444 965 l 444 965 q 458 922 444 939 q 496 906 471 906 l 496 906 q 564 981 564 906 l 564 981 q 551 1022 564 1006 q 513 1039 538 1039 l 513 1039 q 463 1019 481 1039 q 444 965 444 999 z "},"æ":{"ha":1193,"x_min":14,"x_max":1168,"o":"m 729 750 l 729 750 l 786 750 l 781 718 q 918 750 844 750 l 918 750 q 1099 683 1029 750 q 1168 504 1168 615 l 1168 504 q 1151 389 1168 451 l 1151 389 l 746 274 q 869 192 769 192 l 869 192 q 1039 260 964 192 l 1039 260 l 1131 113 q 792 -14 993 -14 l 792 -14 q 588 38 665 -14 q 482 175 511 89 l 482 175 q 213 -14 367 -14 l 213 -14 q 63 58 111 -14 q 14 240 14 129 l 14 240 q 140 594 14 438 q 443 750 267 750 l 443 750 q 592 708 531 750 l 592 708 q 629 738 606 728 q 672 749 653 747 q 729 750 690 750 z m 513 515 l 513 515 l 518 546 q 468 560 497 560 l 468 560 q 344 460 396 560 q 292 269 292 360 l 292 269 q 324 215 292 215 l 324 215 q 431 303 374 215 q 513 515 489 390 z m 926 517 l 926 517 q 914 551 926 538 q 878 565 901 565 l 878 565 q 797 528 831 565 q 753 413 763 490 l 753 413 l 875 453 q 926 517 926 469 z "},"ç":{"ha":661,"x_min":14,"x_max":675,"o":"m 517 271 l 517 271 l 622 128 q 431 1 539 31 l 431 1 q 442 -82 442 -43 l 442 -82 q 394 -228 442 -171 q 251 -286 346 -286 l 251 -286 q 117 -247 172 -286 l 117 -247 l 165 -139 q 226 -157 194 -157 l 226 -157 q 297 -122 274 -157 q 321 -35 321 -86 l 321 -35 q 319 -14 321 -21 l 319 -14 l 313 -14 q 90 72 167 -14 q 14 285 14 157 l 14 285 q 145 609 14 468 q 461 750 276 750 l 461 750 q 675 679 583 750 l 675 679 l 592 521 q 493 551 544 551 l 493 551 q 351 476 407 551 q 294 310 294 400 l 294 310 q 389 199 294 199 l 389 199 q 517 271 458 199 z "},"è":{"ha":743,"x_min":14,"x_max":718,"o":"m 428 565 l 428 565 q 347 528 381 565 q 303 413 313 490 l 303 413 l 425 453 q 476 517 476 469 l 476 517 q 464 551 476 538 q 428 565 451 565 z m 589 260 l 589 260 l 681 113 q 342 -14 543 -14 l 342 -14 q 94 72 175 -14 q 14 290 14 158 l 14 290 q 139 610 14 469 q 454 750 264 750 l 454 750 q 647 684 576 750 q 718 504 718 618 l 718 504 q 701 389 718 451 l 701 389 l 296 274 q 419 192 319 192 l 419 192 q 589 260 514 192 z m 256 1031 l 351 1131 l 572 889 l 493 807 l 256 1031 z "},"é":{"ha":743,"x_min":14,"x_max":718,"o":"m 428 565 l 428 565 q 347 528 381 565 q 303 413 313 490 l 303 413 l 425 453 q 476 517 476 469 l 476 517 q 464 551 476 538 q 428 565 451 565 z m 589 260 l 589 260 l 681 113 q 342 -14 543 -14 l 342 -14 q 94 72 175 -14 q 14 290 14 158 l 14 290 q 139 610 14 469 q 454 750 264 750 l 454 750 q 647 684 576 750 q 718 504 718 618 l 718 504 q 701 389 718 451 l 701 389 l 296 274 q 419 192 319 192 l 419 192 q 589 260 514 192 z m 394 807 l 315 889 l 536 1131 l 632 1031 l 394 807 z "},"ê":{"ha":743,"x_min":14,"x_max":718,"o":"m 428 565 l 428 565 q 347 528 381 565 q 303 413 313 490 l 303 413 l 425 453 q 476 517 476 469 l 476 517 q 464 551 476 538 q 428 565 451 565 z m 589 260 l 589 260 l 681 113 q 342 -14 543 -14 l 342 -14 q 94 72 175 -14 q 14 290 14 158 l 14 290 q 139 610 14 469 q 454 750 264 750 l 454 750 q 647 684 576 750 q 718 504 718 618 l 718 504 q 701 389 718 451 l 701 389 l 296 274 q 419 192 319 192 l 419 192 q 589 260 514 192 z m 293 807 l 208 879 l 397 1117 l 519 1117 l 649 864 l 551 807 l 444 985 l 293 807 z "},"ë":{"ha":743,"x_min":14,"x_max":718,"o":"m 428 565 l 428 565 q 347 528 381 565 q 303 413 313 490 l 303 413 l 425 453 q 476 517 476 469 l 476 517 q 464 551 476 538 q 428 565 451 565 z m 589 260 l 589 260 l 681 113 q 342 -14 543 -14 l 342 -14 q 94 72 175 -14 q 14 290 14 158 l 14 290 q 139 610 14 469 q 454 750 264 750 l 454 750 q 647 684 576 750 q 718 504 718 618 l 718 504 q 701 389 718 451 l 701 389 l 296 274 q 419 192 319 192 l 419 192 q 589 260 514 192 z m 349 958 l 349 958 q 319 858 349 889 q 219 828 290 828 l 219 828 q 149 851 171 828 q 126 926 126 875 l 126 926 q 156 1020 126 990 q 257 1050 186 1050 l 257 1050 q 326 1028 304 1050 q 349 958 349 1007 z m 679 958 l 679 958 q 650 858 679 889 q 550 828 621 828 l 550 828 q 479 851 501 828 q 457 926 457 875 l 457 926 q 487 1020 457 990 q 588 1050 517 1050 l 588 1050 q 657 1028 635 1050 q 679 958 679 1007 z "},"ì":{"ha":408,"x_min":28,"x_max":429,"o":"m 315 35 l 315 35 l 43 -14 q 28 171 6 50 l 28 171 l 100 560 q 96 722 117 654 l 96 722 l 265 747 q 374 722 349 760 q 386 614 400 683 l 386 614 l 310 206 q 315 35 289 100 z m 113 1031 l 208 1131 l 429 889 l 350 807 l 113 1031 z "},"í":{"ha":408,"x_min":28,"x_max":453,"o":"m 315 35 l 315 35 l 43 -14 q 28 171 6 50 l 28 171 l 100 560 q 96 722 117 654 l 96 722 l 265 747 q 374 722 349 760 q 386 614 400 683 l 386 614 l 310 206 q 315 35 289 100 z m 215 807 l 136 889 l 357 1131 l 453 1031 l 215 807 z "},"î":{"ha":408,"x_min":28,"x_max":488,"o":"m 315 35 l 315 35 l 43 -14 q 28 171 6 50 l 28 171 l 100 560 q 96 722 117 654 l 96 722 l 265 747 q 374 722 349 760 q 386 614 400 683 l 386 614 l 310 206 q 315 35 289 100 z m 132 807 l 47 879 l 236 1117 l 358 1117 l 488 864 l 390 807 l 283 985 l 132 807 z "},"ï":{"ha":408,"x_min":-8,"x_max":544,"o":"m 315 35 l 315 35 l 43 -14 q 28 171 6 50 l 28 171 l 100 560 q 96 722 117 654 l 96 722 l 265 747 q 374 722 349 760 q 386 614 400 683 l 386 614 l 310 206 q 315 35 289 100 z m 214 958 l 214 958 q 185 858 214 889 q 85 828 156 828 l 85 828 q 14 851 36 828 q -8 926 -8 875 l -8 926 q 22 1020 -8 990 q 122 1050 51 1050 l 122 1050 q 192 1028 169 1050 q 214 958 214 1007 z m 544 958 l 544 958 q 515 858 544 889 q 415 828 486 828 l 415 828 q 344 851 367 828 q 322 926 322 875 l 322 926 q 352 1020 322 990 q 453 1050 382 1050 l 453 1050 q 522 1028 500 1050 q 544 958 544 1007 z "},"ð":{"ha":786,"x_min":21,"x_max":751,"o":"m 400 794 l 400 794 l 235 719 l 190 822 l 288 867 q 142 897 224 890 l 142 897 l 176 1056 q 492 960 365 1039 l 492 960 l 671 1043 l 715 940 l 589 882 q 751 425 751 717 l 751 425 q 645 108 751 231 q 351 -14 539 -14 l 351 -14 q 110 81 199 -14 q 21 310 21 176 l 21 310 q 123 572 21 461 q 379 682 225 682 l 379 682 q 474 663 431 682 l 474 663 l 479 667 q 400 794 451 743 z m 406 490 l 406 490 q 328 438 354 490 q 303 315 303 385 l 303 315 q 369 178 303 178 l 369 178 q 420 199 399 178 q 452 251 442 219 q 467 311 463 283 q 471 361 471 339 l 471 361 q 406 490 471 490 z "},"ñ":{"ha":792,"x_min":-6,"x_max":760,"o":"m 703 35 l 703 35 l 431 -14 q 415 171 392 58 l 415 171 l 472 439 q 479 492 479 467 l 479 492 q 465 521 479 521 l 465 521 q 385 432 435 521 q 319 264 335 343 l 319 264 l 275 25 l 10 -14 l -6 0 l 99 560 q 94 724 117 660 l 94 724 l 254 747 q 351 720 331 758 q 360 617 372 682 l 360 617 l 353 579 l 358 579 q 613 750 456 750 l 613 750 q 726 694 692 750 q 760 551 760 638 l 760 551 q 747 438 760 497 l 747 438 l 697 206 q 703 35 674 101 z m 335 821 l 335 821 l 224 835 q 247 923 232 882 q 295 1001 261 964 q 374 1039 329 1039 l 374 1039 q 478 997 415 1039 q 551 956 540 956 l 551 956 q 583 983 569 956 q 603 1039 597 1011 l 603 1039 l 714 1025 q 691 937 707 979 q 641 858 675 894 q 564 821 607 821 l 564 821 q 456 863 517 821 q 386 904 394 904 l 386 904 q 335 821 354 904 z "},"ò":{"ha":792,"x_min":31,"x_max":761,"o":"m 311 333 l 311 333 q 375 178 311 178 l 375 178 q 453 246 426 178 q 481 408 481 314 l 481 408 q 418 558 481 558 l 418 558 q 338 492 365 558 q 311 333 311 426 z m 365 -14 l 365 -14 q 122 87 213 -14 q 31 350 31 188 l 31 350 q 149 642 31 533 q 429 750 267 750 l 429 750 q 668 656 575 750 q 761 386 761 563 q 649 98 761 210 q 365 -14 536 -14 z m 258 1031 l 354 1131 l 575 889 l 496 807 l 258 1031 z "},"ó":{"ha":792,"x_min":31,"x_max":761,"o":"m 311 333 l 311 333 q 375 178 311 178 l 375 178 q 453 246 426 178 q 481 408 481 314 l 481 408 q 418 558 481 558 l 418 558 q 338 492 365 558 q 311 333 311 426 z m 365 -14 l 365 -14 q 122 87 213 -14 q 31 350 31 188 l 31 350 q 149 642 31 533 q 429 750 267 750 l 429 750 q 668 656 575 750 q 761 386 761 563 q 649 98 761 210 q 365 -14 536 -14 z m 394 807 l 315 889 l 536 1131 l 632 1031 l 394 807 z "},"ô":{"ha":792,"x_min":31,"x_max":761,"o":"m 311 333 l 311 333 q 375 178 311 178 l 375 178 q 453 246 426 178 q 481 408 481 314 l 481 408 q 418 558 481 558 l 418 558 q 338 492 365 558 q 311 333 311 426 z m 365 -14 l 365 -14 q 122 87 213 -14 q 31 350 31 188 l 31 350 q 149 642 31 533 q 429 750 267 750 l 429 750 q 668 656 575 750 q 761 386 761 563 q 649 98 761 210 q 365 -14 536 -14 z m 303 807 l 218 879 l 407 1117 l 529 1117 l 658 864 l 561 807 l 454 985 l 303 807 z "},"õ":{"ha":792,"x_min":31,"x_max":761,"o":"m 311 333 l 311 333 q 375 178 311 178 l 375 178 q 453 246 426 178 q 481 408 481 314 l 481 408 q 418 558 481 558 l 418 558 q 338 492 365 558 q 311 333 311 426 z m 365 -14 l 365 -14 q 122 87 213 -14 q 31 350 31 188 l 31 350 q 149 642 31 533 q 429 750 267 750 l 429 750 q 668 656 575 750 q 761 386 761 563 q 649 98 761 210 q 365 -14 536 -14 z m 313 821 l 313 821 l 201 835 q 224 923 210 882 q 273 1001 239 964 q 351 1039 307 1039 l 351 1039 q 456 997 393 1039 q 529 956 518 956 l 529 956 q 561 983 547 956 q 581 1039 575 1011 l 581 1039 l 692 1025 q 669 937 685 979 q 619 858 653 894 q 542 821 585 821 l 542 821 q 433 863 494 821 q 364 904 372 904 l 364 904 q 313 821 332 904 z "},"ö":{"ha":792,"x_min":31,"x_max":761,"o":"m 311 333 l 311 333 q 375 178 311 178 l 375 178 q 453 246 426 178 q 481 408 481 314 l 481 408 q 418 558 481 558 l 418 558 q 338 492 365 558 q 311 333 311 426 z m 365 -14 l 365 -14 q 122 87 213 -14 q 31 350 31 188 l 31 350 q 149 642 31 533 q 429 750 267 750 l 429 750 q 668 656 575 750 q 761 386 761 563 q 649 98 761 210 q 365 -14 536 -14 z m 386 958 l 386 958 q 357 858 386 889 q 257 828 328 828 l 257 828 q 186 851 208 828 q 164 926 164 875 l 164 926 q 194 1020 164 990 q 294 1050 224 1050 l 294 1050 q 364 1028 342 1050 q 386 958 386 1007 z m 717 958 l 717 958 q 688 858 717 889 q 588 828 658 828 l 588 828 q 517 851 539 828 q 494 926 494 875 l 494 926 q 524 1020 494 990 q 625 1050 554 1050 l 625 1050 q 694 1028 672 1050 q 717 958 717 1007 z "},"÷":{"ha":860,"x_min":56,"x_max":804,"o":"m 333 552 q 306 650 306 579 q 333 748 306 721 q 431 775 360 775 q 528 748 501 775 q 556 650 556 721 q 528 552 556 579 q 431 525 501 525 q 333 552 360 525 z m 804 474 l 804 307 l 56 307 l 56 474 l 804 474 z m 333 33 q 306 131 306 60 q 333 228 306 201 q 431 256 360 256 q 528 228 501 256 q 556 131 556 201 q 528 33 556 60 q 431 6 501 6 q 333 33 360 6 z "},"ø":{"ha":806,"x_min":31,"x_max":775,"o":"m 31 350 l 31 350 q 150 642 31 533 q 436 750 269 750 l 436 750 q 549 735 494 750 l 549 735 l 590 804 l 693 740 l 656 678 q 775 386 775 581 l 775 386 q 661 98 775 210 q 372 -14 547 -14 l 372 -14 q 256 3 315 -14 l 256 3 l 207 -78 l 104 -14 l 149 61 q 31 350 31 163 z m 388 171 l 388 171 q 447 195 422 171 q 482 258 471 219 q 497 330 493 297 q 501 394 501 363 l 501 394 q 500 432 501 415 l 500 432 l 351 181 q 388 171 365 171 z m 304 349 l 304 308 l 453 556 q 419 565 436 565 l 419 565 q 360 541 385 565 q 324 478 335 517 q 308 409 313 440 q 304 349 304 378 l 304 349 z "},"ù":{"ha":789,"x_min":31,"x_max":789,"o":"m 88 722 l 88 722 l 257 747 q 363 724 335 758 q 378 614 392 689 l 378 614 l 318 297 q 313 246 313 269 l 313 246 q 325 215 313 215 l 325 215 q 402 303 356 215 q 464 472 449 392 l 464 472 l 508 711 l 774 750 l 789 736 l 690 206 q 696 35 671 96 l 696 35 l 438 -14 q 424 119 410 42 l 424 119 l 431 157 l 425 157 q 178 -14 328 -14 l 178 -14 q 65 41 100 -14 q 31 178 31 96 l 31 178 q 43 299 31 236 l 43 299 l 92 560 q 88 722 110 657 z m 278 1031 l 374 1131 l 594 889 l 515 807 l 278 1031 z "},"ú":{"ha":789,"x_min":31,"x_max":789,"o":"m 88 722 l 88 722 l 257 747 q 363 724 335 758 q 378 614 392 689 l 378 614 l 318 297 q 313 246 313 269 l 313 246 q 325 215 313 215 l 325 215 q 402 303 356 215 q 464 472 449 392 l 464 472 l 508 711 l 774 750 l 789 736 l 690 206 q 696 35 671 96 l 696 35 l 438 -14 q 424 119 410 42 l 424 119 l 431 157 l 425 157 q 178 -14 328 -14 l 178 -14 q 65 41 100 -14 q 31 178 31 96 l 31 178 q 43 299 31 236 l 43 299 l 92 560 q 88 722 110 657 z m 422 807 l 343 889 l 564 1131 l 660 1031 l 422 807 z "},"û":{"ha":789,"x_min":31,"x_max":789,"o":"m 88 722 l 88 722 l 257 747 q 363 724 335 758 q 378 614 392 689 l 378 614 l 318 297 q 313 246 313 269 l 313 246 q 325 215 313 215 l 325 215 q 402 303 356 215 q 464 472 449 392 l 464 472 l 508 711 l 774 750 l 789 736 l 690 206 q 696 35 671 96 l 696 35 l 438 -14 q 424 119 410 42 l 424 119 l 431 157 l 425 157 q 178 -14 328 -14 l 178 -14 q 65 41 100 -14 q 31 178 31 96 l 31 178 q 43 299 31 236 l 43 299 l 92 560 q 88 722 110 657 z m 321 807 l 236 879 l 425 1117 l 547 1117 l 676 864 l 579 807 l 472 985 l 321 807 z "},"ü":{"ha":789,"x_min":31,"x_max":789,"o":"m 88 722 l 88 722 l 257 747 q 363 724 335 758 q 378 614 392 689 l 378 614 l 318 297 q 313 246 313 269 l 313 246 q 325 215 313 215 l 325 215 q 402 303 356 215 q 464 472 449 392 l 464 472 l 508 711 l 774 750 l 789 736 l 690 206 q 696 35 671 96 l 696 35 l 438 -14 q 424 119 410 42 l 424 119 l 431 157 l 425 157 q 178 -14 328 -14 l 178 -14 q 65 41 100 -14 q 31 178 31 96 l 31 178 q 43 299 31 236 l 43 299 l 92 560 q 88 722 110 657 z m 399 958 l 399 958 q 369 858 399 889 q 269 828 340 828 l 269 828 q 199 851 221 828 q 176 926 176 875 l 176 926 q 206 1020 176 990 q 307 1050 236 1050 l 307 1050 q 376 1028 354 1050 q 399 958 399 1007 z m 729 958 l 729 958 q 700 858 729 889 q 600 828 671 828 l 600 828 q 529 851 551 828 q 507 926 507 875 l 507 926 q 537 1020 507 990 q 638 1050 567 1050 l 638 1050 q 707 1028 685 1050 q 729 958 729 1007 z "},"ý":{"ha":771,"x_min":-69,"x_max":771,"o":"m -69 -244 l -69 -244 l 19 -29 q 135 -53 72 -64 q 242 1 199 -43 l 242 1 l 92 497 q 17 676 54 622 l 17 676 l 131 724 q 236 750 194 750 l 236 750 q 338 650 314 750 l 338 650 l 424 272 l 429 272 q 517 571 517 453 l 517 571 q 492 681 517 631 l 492 681 l 697 764 q 771 578 771 682 l 771 578 q 708 348 771 493 q 551 60 646 203 q 330 -187 457 -83 q 90 -292 203 -292 l 90 -292 q -69 -244 -4 -292 z m 413 807 l 333 889 l 554 1131 l 650 1031 l 413 807 z "},"þ":{"ha":833,"x_min":-33,"x_max":808,"o":"m 315 235 l 315 235 l 307 188 q 346 185 324 185 l 346 185 q 441 215 401 185 q 497 292 481 244 q 521 376 514 339 q 528 447 528 414 l 528 447 q 496 521 528 521 l 496 521 q 385 424 439 521 q 315 235 332 328 z m 263 -243 l 263 -243 l -10 -292 q -33 -211 -31 -250 q -22 -93 -36 -172 l -22 -93 l 157 864 q 153 1028 175 958 l 153 1028 l 322 1053 q 431 1027 406 1065 q 443 919 457 989 l 443 919 l 410 743 q 390 669 404 710 q 365 603 376 628 l 365 603 l 354 579 l 360 579 q 617 750 458 750 l 617 750 q 763 667 718 750 q 808 468 808 585 l 808 468 q 672 117 808 247 q 326 -14 536 -14 l 326 -14 q 269 -11 294 -14 l 269 -11 l 254 -93 q 263 -243 238 -183 z "},"ÿ":{"ha":771,"x_min":-69,"x_max":771,"o":"m -69 -244 l -69 -244 l 19 -29 q 135 -53 72 -64 q 242 1 199 -43 l 242 1 l 92 497 q 17 676 54 622 l 17 676 l 131 724 q 236 750 194 750 l 236 750 q 338 650 314 750 l 338 650 l 424 272 l 429 272 q 517 571 517 453 l 517 571 q 492 681 517 631 l 492 681 l 697 764 q 771 578 771 682 l 771 578 q 708 348 771 493 q 551 60 646 203 q 330 -187 457 -83 q 90 -292 203 -292 l 90 -292 q -69 -244 -4 -292 z m 358 958 l 358 958 q 329 858 358 889 q 229 828 300 828 l 229 828 q 158 851 181 828 q 136 926 136 875 l 136 926 q 166 1020 136 990 q 267 1050 196 1050 l 267 1050 q 336 1028 314 1050 q 358 958 358 1007 z m 689 958 l 689 958 q 660 858 689 889 q 560 828 631 828 l 560 828 q 489 851 511 828 q 467 926 467 875 l 467 926 q 497 1020 467 990 q 597 1050 526 1050 l 597 1050 q 667 1028 644 1050 q 689 958 689 1007 z "},"Ā":{"ha":942,"x_min":-62,"x_max":872,"o":"m 726 1006 l 872 0 l 576 0 l 563 214 l 332 214 l 251 0 l -62 0 l -62 14 l 411 956 l 715 1014 l 726 1006 z m 531 725 l 525 725 l 410 419 l 550 419 l 531 725 z m 828 1240 l 803 1101 l 329 1101 l 354 1240 l 828 1240 z "},"ā":{"ha":818,"x_min":14,"x_max":821,"o":"m 513 515 l 513 515 l 518 546 q 468 560 497 560 l 468 560 q 344 460 396 560 q 292 269 292 360 l 292 269 q 324 215 292 215 l 324 215 q 431 303 374 215 q 513 515 489 390 z m 729 750 l 729 750 l 821 750 l 719 206 q 725 35 699 93 l 725 35 l 467 -14 q 453 119 438 42 l 453 119 l 460 157 l 454 157 q 213 -14 363 -14 l 213 -14 q 63 58 111 -14 q 14 240 14 129 l 14 240 q 140 594 14 438 q 443 750 267 750 l 443 750 q 592 708 531 750 l 592 708 q 629 738 606 728 q 672 749 653 747 q 729 750 690 750 z m 739 989 l 717 864 l 271 864 l 293 989 l 739 989 z "},"Ă":{"ha":942,"x_min":-62,"x_max":872,"o":"m 726 1006 l 872 0 l 576 0 l 563 214 l 332 214 l 251 0 l -62 0 l -62 14 l 411 956 l 715 1014 l 726 1006 z m 531 725 l 525 725 l 410 419 l 550 419 l 531 725 z m 340 1322 l 340 1322 l 460 1322 q 565 1214 471 1214 l 565 1214 q 656 1246 624 1214 q 696 1322 688 1278 l 696 1322 l 815 1322 q 732 1145 800 1211 q 556 1079 664 1079 l 556 1079 q 394 1146 454 1079 q 340 1322 335 1213 z "},"ă":{"ha":818,"x_min":14,"x_max":821,"o":"m 513 515 l 513 515 l 518 546 q 468 560 497 560 l 468 560 q 344 460 396 560 q 292 269 292 360 l 292 269 q 324 215 292 215 l 324 215 q 431 303 374 215 q 513 515 489 390 z m 729 750 l 729 750 l 821 750 l 719 206 q 725 35 699 93 l 725 35 l 467 -14 q 453 119 438 42 l 453 119 l 460 157 l 454 157 q 213 -14 363 -14 l 213 -14 q 63 58 111 -14 q 14 240 14 129 l 14 240 q 140 594 14 438 q 443 750 267 750 l 443 750 q 592 708 531 750 l 592 708 q 629 738 606 728 q 672 749 653 747 q 729 750 690 750 z m 307 1068 l 307 1068 l 422 1068 q 506 953 422 953 l 506 953 q 619 1068 597 953 l 619 1068 l 735 1068 q 658 891 721 954 q 500 828 594 828 l 500 828 q 358 878 413 828 q 303 1019 303 929 l 303 1019 q 307 1068 303 1043 z "},"Ą":{"ha":942,"x_min":-62,"x_max":872,"o":"m 726 1006 l 872 0 l 688 0 q 665 -90 665 -47 l 665 -90 q 729 -157 665 -157 l 729 -157 q 806 -132 767 -157 l 806 -132 l 854 -240 q 701 -286 785 -286 l 701 -286 q 576 -246 617 -286 q 536 -140 536 -206 l 536 -140 q 576 0 536 -69 l 576 0 l 563 214 l 332 214 l 251 0 l -62 0 l -62 14 l 411 956 l 715 1014 l 726 1006 z m 531 725 l 525 725 l 410 419 l 550 419 l 531 725 z "},"ą":{"ha":818,"x_min":14,"x_max":821,"o":"m 729 750 l 729 750 l 821 750 l 719 206 q 725 35 699 93 l 725 35 l 558 3 q 535 -90 535 -44 l 535 -90 q 599 -157 535 -157 l 599 -157 q 675 -132 636 -157 l 675 -132 l 724 -240 q 571 -286 654 -286 l 571 -286 q 446 -246 486 -286 q 406 -140 406 -206 l 406 -140 q 456 15 406 -60 l 456 15 q 453 119 443 60 l 453 119 l 460 157 l 454 157 q 213 -14 363 -14 l 213 -14 q 63 58 111 -14 q 14 240 14 129 l 14 240 q 140 594 14 438 q 443 750 267 750 l 443 750 q 592 708 531 750 l 592 708 q 629 738 606 728 q 672 749 653 747 q 729 750 690 750 z m 513 515 l 513 515 l 518 546 q 468 560 497 560 l 468 560 q 344 460 396 560 q 292 269 292 360 l 292 269 q 324 215 292 215 l 324 215 q 431 303 374 215 q 513 515 489 390 z "},"Ć":{"ha":842,"x_min":49,"x_max":897,"o":"m 719 276 l 719 276 l 810 81 q 492 -14 672 -14 l 492 -14 q 169 103 289 -14 q 49 418 49 219 l 49 418 q 220 842 49 669 q 639 1014 392 1014 l 639 1014 q 897 951 788 1014 l 897 951 l 808 763 q 654 789 740 789 l 654 789 q 421 686 507 789 q 335 433 335 583 l 335 433 q 385 277 335 336 q 529 218 435 218 l 529 218 q 719 276 635 218 z m 493 1056 l 436 1163 l 731 1354 l 803 1219 l 493 1056 z "},"ć":{"ha":661,"x_min":14,"x_max":675,"o":"m 517 271 l 517 271 l 622 128 q 313 -14 500 -14 l 313 -14 q 90 72 167 -14 q 14 285 14 157 l 14 285 q 145 609 14 468 q 461 750 276 750 l 461 750 q 675 679 583 750 l 675 679 l 592 521 q 493 551 544 551 l 493 551 q 351 476 407 551 q 294 310 294 400 l 294 310 q 389 199 294 199 l 389 199 q 517 271 458 199 z m 394 807 l 315 889 l 536 1131 l 632 1031 l 394 807 z "},"Č":{"ha":842,"x_min":49,"x_max":897,"o":"m 719 276 l 719 276 l 810 81 q 492 -14 672 -14 l 492 -14 q 169 103 289 -14 q 49 418 49 219 l 49 418 q 220 842 49 669 q 639 1014 392 1014 l 639 1014 q 897 951 788 1014 l 897 951 l 808 763 q 654 789 740 789 l 654 789 q 421 686 507 789 q 335 433 335 583 l 335 433 q 385 277 335 336 q 529 218 435 218 l 529 218 q 719 276 635 218 z m 768 1354 l 836 1261 l 614 1069 l 494 1069 l 328 1271 l 410 1354 l 563 1197 l 768 1354 z "},"č":{"ha":661,"x_min":14,"x_max":675,"o":"m 517 271 l 517 271 l 622 128 q 313 -14 500 -14 l 313 -14 q 90 72 167 -14 q 14 285 14 157 l 14 285 q 145 609 14 468 q 461 750 276 750 l 461 750 q 675 679 583 750 l 675 679 l 592 521 q 493 551 544 551 l 493 551 q 351 476 407 551 q 294 310 294 400 l 294 310 q 389 199 294 199 l 389 199 q 517 271 458 199 z m 579 1131 l 664 1058 l 475 821 l 353 821 l 224 1074 l 321 1131 l 428 953 l 579 1131 z "},"Ď":{"ha":990,"x_min":4,"x_max":983,"o":"m 442 779 l 442 779 l 428 779 l 326 221 l 340 221 q 609 305 521 221 q 697 544 697 389 l 697 544 q 637 720 697 661 q 442 779 576 779 z m 264 0 l 4 0 l 186 1000 l 424 1000 q 644 977 546 1000 q 820 904 742 954 q 941 767 899 854 q 983 558 983 679 l 983 558 q 928 294 983 406 q 772 120 874 183 q 546 28 671 57 q 264 0 421 0 l 264 0 z m 757 1354 l 825 1261 l 603 1069 l 483 1069 l 317 1271 l 399 1354 l 551 1197 l 757 1354 z "},"ď":{"ha":840,"x_min":14,"x_max":1176,"o":"m 725 35 l 725 35 l 467 -14 q 453 119 438 42 l 453 119 l 460 157 l 454 157 q 213 -14 363 -14 l 213 -14 q 63 58 111 -14 q 14 240 14 129 l 14 240 q 140 594 14 439 q 454 750 267 750 l 454 750 q 543 739 501 750 l 543 739 l 567 865 q 563 1028 586 963 l 563 1028 l 732 1053 q 841 1026 817 1065 q 853 919 865 988 l 853 919 l 719 206 q 725 35 699 93 z m 513 515 l 513 515 l 519 551 q 476 560 500 560 l 476 560 q 374 506 418 560 q 310 387 329 451 q 292 269 292 322 l 292 269 q 324 215 292 215 l 324 215 q 431 303 374 215 q 513 515 489 390 z m 994 775 l 994 775 l 910 857 q 987 927 960 889 q 1014 1025 1014 965 l 1014 1025 q 1013 1056 1014 1040 l 1013 1056 l 1168 1056 q 1176 985 1176 1018 l 1176 985 q 994 775 1176 826 z "},"Đ":{"ha":1032,"x_min":29,"x_max":1025,"o":"m 119 407 l 29 407 l 68 619 l 158 619 l 228 1000 l 465 1000 q 685 977 588 1000 q 862 904 783 954 q 983 767 940 854 q 1025 558 1025 679 l 1025 558 q 970 294 1025 406 q 814 120 915 183 q 588 28 713 57 q 306 0 463 0 l 306 0 l 46 0 l 119 407 z m 483 779 l 469 779 l 440 619 l 589 619 l 550 407 l 401 407 l 368 221 l 382 221 q 651 305 563 221 q 739 544 739 389 l 739 544 q 678 720 739 661 q 483 779 618 779 l 483 779 z "},"đ":{"ha":832,"x_min":14,"x_max":939,"o":"m 554 804 l 365 804 l 389 938 l 575 938 q 563 1028 575 992 l 563 1028 l 732 1053 q 856 938 872 1074 l 856 938 l 939 938 l 915 804 l 831 804 l 719 206 q 725 35 699 93 l 725 35 l 467 -14 q 453 119 438 42 l 453 119 l 460 157 l 454 157 q 213 -14 363 -14 l 213 -14 q 63 58 111 -14 q 14 240 14 129 l 14 240 q 133 576 14 438 q 443 715 253 715 l 443 715 q 536 704 494 715 l 536 704 l 554 804 z m 508 494 l 508 494 l 515 531 q 468 539 496 539 l 468 539 q 367 490 410 539 q 308 382 325 440 q 292 269 292 324 q 324 215 292 215 l 324 215 q 429 293 374 215 q 508 494 485 371 z "},"Ē":{"ha":775,"x_min":4,"x_max":817,"o":"m 665 0 l 4 0 l 186 1000 l 817 1000 l 776 775 l 428 775 l 399 619 l 679 619 l 640 407 l 360 407 l 326 225 l 724 225 l 665 0 z m 768 1240 l 743 1101 l 269 1101 l 294 1240 l 768 1240 z "},"ē":{"ha":743,"x_min":14,"x_max":718,"o":"m 428 565 l 428 565 q 347 528 381 565 q 303 413 313 490 l 303 413 l 425 453 q 476 517 476 469 l 476 517 q 464 551 476 538 q 428 565 451 565 z m 589 260 l 589 260 l 681 113 q 342 -14 543 -14 l 342 -14 q 94 72 175 -14 q 14 290 14 158 l 14 290 q 139 610 14 469 q 454 750 264 750 l 454 750 q 647 684 576 750 q 718 504 718 618 l 718 504 q 701 389 718 451 l 701 389 l 296 274 q 419 192 319 192 l 419 192 q 589 260 514 192 z m 675 989 l 653 864 l 207 864 l 229 989 l 675 989 z "},"Ė":{"ha":775,"x_min":4,"x_max":817,"o":"m 665 0 l 4 0 l 186 1000 l 817 1000 l 776 775 l 428 775 l 399 619 l 679 619 l 640 407 l 360 407 l 326 225 l 724 225 l 665 0 z m 383 1189 l 383 1189 q 416 1303 383 1268 q 529 1338 449 1338 l 529 1338 q 610 1316 583 1338 q 636 1240 636 1294 l 636 1240 q 605 1122 636 1160 q 492 1085 574 1085 l 492 1085 q 410 1109 436 1085 q 383 1189 383 1133 z "},"ė":{"ha":743,"x_min":14,"x_max":718,"o":"m 428 565 l 428 565 q 347 528 381 565 q 303 413 313 490 l 303 413 l 425 453 q 476 517 476 469 l 476 517 q 464 551 476 538 q 428 565 451 565 z m 589 260 l 589 260 l 681 113 q 342 -14 543 -14 l 342 -14 q 94 72 175 -14 q 14 290 14 158 l 14 290 q 139 610 14 469 q 454 750 264 750 l 454 750 q 647 684 576 750 q 718 504 718 618 l 718 504 q 701 389 718 451 l 701 389 l 296 274 q 419 192 319 192 l 419 192 q 589 260 514 192 z m 307 932 l 307 932 q 340 1046 307 1011 q 453 1081 372 1081 l 453 1081 q 533 1059 507 1081 q 560 983 560 1038 l 560 983 q 528 865 560 903 q 415 828 497 828 l 415 828 q 333 852 360 828 q 307 932 307 876 z "},"Ę":{"ha":775,"x_min":4,"x_max":817,"o":"m 446 0 l 4 0 l 186 1000 l 817 1000 l 776 775 l 428 775 l 399 619 l 679 619 l 640 407 l 360 407 l 326 225 l 724 225 l 665 0 l 557 0 q 535 -90 535 -47 l 535 -90 q 599 -157 535 -157 l 599 -157 q 675 -132 636 -157 l 675 -132 l 724 -240 q 571 -286 654 -286 l 571 -286 q 446 -246 486 -286 q 406 -140 406 -206 l 406 -140 q 446 0 406 -69 l 446 0 z "},"ę":{"ha":743,"x_min":14,"x_max":718,"o":"m 589 260 l 589 260 l 681 113 q 514 14 607 44 l 514 14 q 485 -90 485 -32 l 485 -90 q 549 -157 485 -157 l 549 -157 q 625 -132 586 -157 l 625 -132 l 674 -240 q 521 -286 604 -286 l 521 -286 q 396 -246 436 -286 q 356 -140 356 -206 l 356 -140 q 389 -11 356 -78 l 389 -11 q 342 -14 358 -14 l 342 -14 q 94 72 175 -14 q 14 290 14 158 l 14 290 q 139 610 14 469 q 454 750 264 750 l 454 750 q 647 684 576 750 q 718 504 718 618 l 718 504 q 701 389 718 451 l 701 389 l 296 274 q 419 192 319 192 l 419 192 q 589 260 514 192 z m 476 517 l 476 517 q 464 551 476 538 q 428 565 451 565 l 428 565 q 347 528 381 565 q 303 413 313 490 l 303 413 l 425 453 q 476 517 476 469 z "},"Ě":{"ha":775,"x_min":4,"x_max":817,"o":"m 665 0 l 4 0 l 186 1000 l 817 1000 l 776 775 l 428 775 l 399 619 l 679 619 l 640 407 l 360 407 l 326 225 l 724 225 l 665 0 z m 708 1354 l 776 1261 l 554 1069 l 435 1069 l 268 1271 l 350 1354 l 503 1197 l 708 1354 z "},"ě":{"ha":743,"x_min":14,"x_max":718,"o":"m 428 565 l 428 565 q 347 528 381 565 q 303 413 313 490 l 303 413 l 425 453 q 476 517 476 469 l 476 517 q 464 551 476 538 q 428 565 451 565 z m 589 260 l 589 260 l 681 113 q 342 -14 543 -14 l 342 -14 q 94 72 175 -14 q 14 290 14 158 l 14 290 q 139 610 14 469 q 454 750 264 750 l 454 750 q 647 684 576 750 q 718 504 718 618 l 718 504 q 701 389 718 451 l 701 389 l 296 274 q 419 192 319 192 l 419 192 q 589 260 514 192 z m 603 1131 l 688 1058 l 499 821 l 376 821 l 247 1074 l 344 1131 l 451 953 l 603 1131 z "},"Ğ":{"ha":1000,"x_min":49,"x_max":1001,"o":"m 644 215 l 644 215 l 667 339 l 522 339 l 563 553 l 960 553 l 871 64 q 515 -14 706 -14 l 515 -14 q 180 108 311 -14 q 49 432 49 229 l 49 432 q 230 847 49 681 q 665 1014 411 1014 l 665 1014 q 1001 932 856 1014 l 1001 932 l 913 743 q 675 789 801 789 l 675 789 q 424 692 514 789 q 335 439 335 596 l 335 439 q 546 201 335 201 l 546 201 q 644 215 599 201 z m 403 1322 l 403 1322 l 522 1322 q 628 1214 533 1214 l 628 1214 q 718 1246 686 1214 q 758 1322 750 1278 l 758 1322 l 878 1322 q 794 1145 863 1211 q 618 1079 726 1079 l 618 1079 q 457 1146 517 1079 q 403 1322 397 1213 z "},"ğ":{"ha":819,"x_min":-42,"x_max":828,"o":"m 521 522 l 521 522 l 525 546 q 469 560 503 560 l 469 560 q 349 486 399 560 q 299 331 299 413 l 299 331 q 344 265 299 265 l 344 265 q 455 344 407 265 q 521 522 503 424 z m 456 99 l 471 183 l 465 183 q 225 36 369 36 l 225 36 q 74 106 128 36 q 21 281 21 176 l 21 281 q 70 505 21 399 q 219 681 119 611 q 444 750 318 750 l 444 750 q 599 708 536 750 l 599 708 q 649 743 618 736 q 736 750 679 750 l 736 750 l 828 750 l 710 115 q 240 -292 633 -292 l 240 -292 q -42 -246 81 -292 l -42 -246 l 29 -36 q 214 -68 107 -68 l 214 -68 q 456 99 425 -68 l 456 99 z m 293 1068 l 293 1068 l 408 1068 q 492 953 408 953 l 492 953 q 606 1068 583 953 l 606 1068 l 721 1068 q 644 891 707 954 q 486 828 581 828 l 486 828 q 344 878 399 828 q 289 1019 289 929 l 289 1019 q 293 1068 289 1043 z "},"Ģ":{"ha":1000,"x_min":49,"x_max":1001,"o":"m 644 215 l 644 215 l 667 339 l 522 339 l 563 553 l 960 553 l 871 64 q 515 -14 706 -14 l 515 -14 q 180 108 311 -14 q 49 432 49 229 l 49 432 q 230 847 49 681 q 665 1014 411 1014 l 665 1014 q 1001 932 856 1014 l 1001 932 l 913 743 q 675 789 801 789 l 675 789 q 424 692 514 789 q 335 439 335 596 l 335 439 q 546 201 335 201 l 546 201 q 644 215 599 201 z m 442 -319 l 442 -319 l 357 -237 q 434 -167 407 -206 q 461 -69 461 -129 l 461 -69 q 460 -39 461 -54 l 460 -39 l 615 -39 q 624 -110 624 -76 l 624 -110 q 442 -319 624 -268 z "},"ģ":{"ha":819,"x_min":-42,"x_max":828,"o":"m 521 522 l 521 522 l 525 546 q 469 560 503 560 l 469 560 q 349 486 399 560 q 299 331 299 413 l 299 331 q 344 265 299 265 l 344 265 q 455 344 407 265 q 521 522 503 424 z m 456 99 l 471 183 l 465 183 q 225 36 369 36 l 225 36 q 74 106 128 36 q 21 281 21 176 l 21 281 q 70 505 21 399 q 219 681 119 611 q 444 750 318 750 l 444 750 q 599 708 536 750 l 599 708 q 649 743 618 736 q 736 750 679 750 l 736 750 l 828 750 l 710 115 q 240 -292 633 -292 l 240 -292 q -42 -246 81 -292 l -42 -246 l 29 -36 q 214 -68 107 -68 l 214 -68 q 456 99 425 -68 l 456 99 z m 588 1104 l 588 1104 l 672 1022 q 595 952 622 990 q 568 854 568 914 l 568 854 q 569 824 568 839 l 569 824 l 414 824 q 406 894 406 861 l 406 894 q 588 1104 406 1053 z "},"Ī":{"ha":435,"x_min":4,"x_max":600,"o":"m 286 0 l 4 0 l 186 1000 l 468 1000 l 286 0 z m 600 1240 l 575 1101 l 101 1101 l 126 1240 l 600 1240 z "},"ī":{"ha":408,"x_min":28,"x_max":513,"o":"m 315 35 l 315 35 l 43 -14 q 28 171 6 50 l 28 171 l 100 560 q 96 722 117 654 l 96 722 l 265 747 q 374 722 349 760 q 386 614 400 683 l 386 614 l 310 206 q 315 35 289 100 z m 513 989 l 490 864 l 44 864 l 67 989 l 513 989 z "},"Į":{"ha":435,"x_min":-36,"x_max":468,"o":"m 468 1000 l 286 0 l 115 0 q 93 -90 93 -47 l 93 -90 q 157 -157 93 -157 l 157 -157 q 233 -132 194 -157 l 233 -132 l 282 -240 q 129 -286 213 -286 l 129 -286 q 4 -246 44 -286 q -36 -140 -36 -206 l -36 -140 q 4 1 -36 -68 l 4 1 l 186 1000 l 468 1000 z "},"į":{"ha":408,"x_min":10,"x_max":431,"o":"m 315 35 l 315 35 l 165 7 q 139 -90 139 -40 l 139 -90 q 203 -157 139 -157 l 203 -157 q 279 -132 240 -157 l 279 -132 l 328 -240 q 175 -286 258 -286 l 175 -286 q 50 -246 90 -286 q 10 -140 10 -206 l 10 -140 q 42 -12 10 -79 l 42 -12 q 28 171 6 50 l 28 171 l 100 560 q 96 722 117 654 l 96 722 l 265 747 q 374 722 349 760 q 386 614 400 683 l 386 614 l 310 206 q 315 35 289 100 z m 153 936 l 153 936 q 190 1059 153 1021 q 314 1097 228 1097 l 314 1097 q 402 1074 374 1097 q 431 993 431 1051 l 431 993 q 395 868 431 908 q 271 828 360 828 l 271 828 q 183 852 213 828 q 153 936 153 876 z "},"İ":{"ha":435,"x_min":4,"x_max":472,"o":"m 219 1189 l 219 1189 q 252 1303 219 1268 q 365 1338 285 1338 l 365 1338 q 446 1316 419 1338 q 472 1240 472 1294 l 472 1240 q 441 1122 472 1160 q 328 1085 410 1085 l 328 1085 q 246 1109 272 1085 q 219 1189 219 1133 z m 286 0 l 4 0 l 186 1000 l 468 1000 l 286 0 z "},"ı":{"ha":408,"x_min":28,"x_max":386,"o":"m 315 35 l 315 35 l 43 -14 q 28 171 6 50 l 28 171 l 100 560 q 96 722 117 654 l 96 722 l 265 747 q 374 722 349 760 q 386 614 400 683 l 386 614 l 310 206 q 315 35 289 100 z "},"Ķ":{"ha":935,"x_min":4,"x_max":983,"o":"m 867 14 l 867 0 l 572 0 l 385 499 l 707 1000 l 983 1000 l 983 986 l 672 508 l 867 14 z m 286 0 l 4 0 l 186 1000 l 468 1000 l 286 0 z m 329 -319 l 329 -319 l 244 -237 q 322 -167 294 -206 q 349 -69 349 -129 l 349 -69 q 347 -39 349 -54 l 347 -39 l 503 -39 q 511 -110 511 -76 l 511 -110 q 329 -319 511 -268 z "},"ķ":{"ha":819,"x_min":-10,"x_max":833,"o":"m 438 919 l 438 919 l 271 25 l 6 -14 l -10 0 l 151 865 q 147 1028 171 963 l 147 1028 l 317 1053 q 426 1026 401 1065 q 438 919 450 988 z m 457 64 l 457 64 l 346 361 l 549 658 q 671 750 606 742 l 671 750 l 833 647 l 831 640 q 758 598 794 633 q 675 501 722 563 l 675 501 l 610 417 l 763 28 l 758 21 l 596 -10 q 504 -3 533 -21 q 457 64 475 14 z m 269 -319 l 269 -319 l 185 -237 q 262 -167 235 -206 q 289 -69 289 -129 l 289 -69 q 288 -39 289 -54 l 288 -39 l 443 -39 q 451 -110 451 -76 l 451 -110 q 269 -319 451 -268 z "},"Ĺ":{"ha":700,"x_min":4,"x_max":686,"o":"m 624 0 l 4 0 l 186 1000 l 468 1000 l 331 242 l 686 242 l 624 0 z m 271 1056 l 214 1163 l 508 1354 l 581 1219 l 271 1056 z "},"ĺ":{"ha":499,"x_min":47,"x_max":556,"o":"m 435 232 l 435 232 l 488 46 q 274 -14 401 -14 l 274 -14 q 84 63 144 -14 q 47 271 24 139 l 47 271 l 158 865 q 154 1028 176 961 l 154 1028 l 324 1053 q 433 1026 410 1065 q 444 919 457 986 l 444 919 l 333 324 q 389 224 314 224 l 389 224 q 435 232 414 224 z m 246 1083 l 189 1190 l 483 1382 l 556 1247 l 246 1083 z "},"Ļ":{"ha":700,"x_min":4,"x_max":686,"o":"m 624 0 l 4 0 l 186 1000 l 468 1000 l 331 242 l 686 242 l 624 0 z m 246 -319 l 246 -319 l 161 -237 q 238 -167 211 -206 q 265 -69 265 -129 l 265 -69 q 264 -39 265 -54 l 264 -39 l 419 -39 q 428 -110 428 -76 l 428 -110 q 246 -319 428 -268 z "},"ļ":{"ha":499,"x_min":47,"x_max":488,"o":"m 435 232 l 435 232 l 488 46 q 274 -14 401 -14 l 274 -14 q 84 63 144 -14 q 47 271 24 139 l 47 271 l 158 865 q 154 1028 176 961 l 154 1028 l 324 1053 q 433 1026 410 1065 q 444 919 457 986 l 444 919 l 333 324 q 389 224 314 224 l 389 224 q 435 232 414 224 z m 133 -319 l 133 -319 l 49 -237 q 126 -167 99 -206 q 153 -69 153 -129 l 153 -69 q 151 -39 153 -54 l 151 -39 l 307 -39 q 315 -110 315 -76 l 315 -110 q 133 -319 315 -268 z "},"Ľ":{"ha":700,"x_min":4,"x_max":778,"o":"m 624 0 l 4 0 l 186 1000 l 468 1000 l 331 242 l 686 242 l 624 0 z m 596 719 l 596 719 l 511 801 q 588 872 561 833 q 615 969 615 910 l 615 969 q 614 1000 615 985 l 614 1000 l 769 1000 q 778 929 778 963 l 778 929 q 596 719 778 771 z "},"ľ":{"ha":499,"x_min":47,"x_max":768,"o":"m 435 232 l 435 232 l 488 46 q 274 -14 401 -14 l 274 -14 q 84 63 144 -14 q 47 271 24 139 l 47 271 l 158 865 q 154 1028 176 961 l 154 1028 l 324 1053 q 433 1026 410 1065 q 444 919 457 986 l 444 919 l 333 324 q 389 224 314 224 l 389 224 q 435 232 414 224 z m 586 775 l 586 775 l 501 857 q 578 927 551 889 q 606 1025 606 965 l 606 1025 q 604 1056 606 1040 l 604 1056 l 760 1056 q 768 985 768 1018 l 768 985 q 586 775 768 826 z "},"Ł":{"ha":760,"x_min":-17,"x_max":746,"o":"m 683 0 l 64 0 l 119 306 l -11 219 l -17 222 l 19 422 l 157 513 l 246 1000 l 528 1000 l 478 725 l 647 838 l 653 835 l 617 635 l 440 518 l 390 242 l 746 242 l 683 0 z "},"ł":{"ha":571,"x_min":10,"x_max":585,"o":"m 481 232 l 481 232 l 533 46 q 319 -14 447 -14 l 319 -14 q 130 63 190 -14 q 93 271 69 139 l 93 271 l 111 371 l 15 308 l 10 311 l 43 497 l 147 565 l 204 865 q 200 1028 222 961 l 200 1028 l 369 1053 q 479 1026 456 1065 q 490 919 503 986 l 490 919 l 463 769 l 579 846 l 585 843 l 551 657 l 426 575 l 379 324 q 435 224 360 224 l 435 224 q 481 232 460 224 z "},"Ń":{"ha":989,"x_min":4,"x_max":1022,"o":"m 378 663 l 368 726 l 363 726 q 324 314 357 508 l 324 314 l 271 0 l 4 0 l 186 1000 l 535 1000 l 608 676 q 640 508 625 604 q 661 353 654 413 l 661 353 l 667 292 l 672 292 q 703 686 672 508 l 703 686 l 756 1000 l 1022 1000 l 847 43 l 514 -14 l 440 310 q 404 494 422 390 q 378 663 386 599 l 378 663 z m 510 1056 l 453 1163 l 747 1354 l 819 1219 l 510 1056 z "},"ń":{"ha":792,"x_min":-6,"x_max":760,"o":"m 703 35 l 703 35 l 431 -14 q 415 171 392 58 l 415 171 l 472 439 q 479 492 479 467 l 479 492 q 465 521 479 521 l 465 521 q 385 432 435 521 q 319 264 335 343 l 319 264 l 275 25 l 10 -14 l -6 0 l 99 560 q 94 724 117 660 l 94 724 l 254 747 q 351 720 331 758 q 360 617 372 682 l 360 617 l 353 579 l 358 579 q 613 750 456 750 l 613 750 q 726 694 692 750 q 760 551 760 638 l 760 551 q 747 438 760 497 l 747 438 l 697 206 q 703 35 674 101 z m 442 807 l 363 889 l 583 1131 l 679 1031 l 442 807 z "},"Ņ":{"ha":989,"x_min":4,"x_max":1022,"o":"m 378 663 l 368 726 l 363 726 q 324 314 357 508 l 324 314 l 271 0 l 4 0 l 186 1000 l 535 1000 l 608 676 q 640 508 625 604 q 661 353 654 413 l 661 353 l 667 292 l 672 292 q 703 686 672 508 l 703 686 l 756 1000 l 1022 1000 l 847 43 l 514 -14 l 440 310 q 404 494 422 390 q 378 663 386 599 l 378 663 z m 358 -319 l 358 -319 l 274 -237 q 351 -167 324 -206 q 378 -69 378 -129 l 378 -69 q 376 -39 378 -54 l 376 -39 l 532 -39 q 540 -110 540 -76 l 540 -110 q 358 -319 540 -268 z "},"ņ":{"ha":792,"x_min":-6,"x_max":760,"o":"m 703 35 l 703 35 l 431 -14 q 415 171 392 58 l 415 171 l 472 439 q 479 492 479 467 l 479 492 q 465 521 479 521 l 465 521 q 385 432 435 521 q 319 264 335 343 l 319 264 l 275 25 l 10 -14 l -6 0 l 99 560 q 94 724 117 660 l 94 724 l 254 747 q 351 720 331 758 q 360 617 372 682 l 360 617 l 353 579 l 358 579 q 613 750 456 750 l 613 750 q 726 694 692 750 q 760 551 760 638 l 760 551 q 747 438 760 497 l 747 438 l 697 206 q 703 35 674 101 z m 247 -319 l 247 -319 l 163 -237 q 240 -167 213 -206 q 267 -69 267 -129 l 267 -69 q 265 -39 267 -54 l 265 -39 l 421 -39 q 429 -110 429 -76 l 429 -110 q 247 -319 429 -268 z "},"Ň":{"ha":989,"x_min":4,"x_max":1022,"o":"m 378 663 l 368 726 l 363 726 q 324 314 357 508 l 324 314 l 271 0 l 4 0 l 186 1000 l 535 1000 l 608 676 q 640 508 625 604 q 661 353 654 413 l 661 353 l 667 292 l 672 292 q 703 686 672 508 l 703 686 l 756 1000 l 1022 1000 l 847 43 l 514 -14 l 440 310 q 404 494 422 390 q 378 663 386 599 l 378 663 z m 807 1354 l 875 1261 l 653 1069 l 533 1069 l 367 1271 l 449 1354 l 601 1197 l 807 1354 z "},"ň":{"ha":792,"x_min":-6,"x_max":760,"o":"m 703 35 l 703 35 l 431 -14 q 415 171 392 58 l 415 171 l 472 439 q 479 492 479 467 l 479 492 q 465 521 479 521 l 465 521 q 385 432 435 521 q 319 264 335 343 l 319 264 l 275 25 l 10 -14 l -6 0 l 99 560 q 94 724 117 660 l 94 724 l 254 747 q 351 720 331 758 q 360 617 372 682 l 360 617 l 353 579 l 358 579 q 613 750 456 750 l 613 750 q 726 694 692 750 q 760 551 760 638 l 760 551 q 747 438 760 497 l 747 438 l 697 206 q 703 35 674 101 z m 614 1131 l 699 1058 l 510 821 l 388 821 l 258 1074 l 356 1131 l 463 953 l 614 1131 z "},"Ō":{"ha":1043,"x_min":49,"x_max":1036,"o":"m 586 796 l 586 796 q 438 733 497 796 q 356 591 378 671 q 335 424 335 511 l 335 424 q 375 266 335 328 q 508 204 415 204 l 508 204 q 624 240 575 204 q 699 334 674 276 q 738 453 725 392 q 750 578 750 515 l 750 578 q 586 796 750 796 z m 615 1014 l 615 1014 q 849 951 751 1014 q 991 788 946 888 q 1036 567 1036 689 l 1036 567 q 876 156 1036 325 q 465 -14 717 -14 l 465 -14 q 157 115 265 -14 q 49 428 49 243 l 49 428 q 210 841 49 668 q 615 1014 372 1014 z m 864 1240 l 839 1101 l 365 1101 l 390 1240 l 864 1240 z "},"ō":{"ha":792,"x_min":31,"x_max":761,"o":"m 311 333 l 311 333 q 375 178 311 178 l 375 178 q 453 246 426 178 q 481 408 481 314 l 481 408 q 418 558 481 558 l 418 558 q 338 492 365 558 q 311 333 311 426 z m 365 -14 l 365 -14 q 122 87 213 -14 q 31 350 31 188 l 31 350 q 149 642 31 533 q 429 750 267 750 l 429 750 q 668 656 575 750 q 761 386 761 563 q 649 98 761 210 q 365 -14 536 -14 z m 690 989 l 668 864 l 222 864 l 244 989 l 690 989 z "},"Ő":{"ha":1043,"x_min":49,"x_max":1036,"o":"m 586 796 l 586 796 q 438 733 497 796 q 356 591 378 671 q 335 424 335 511 l 335 424 q 375 266 335 328 q 508 204 415 204 l 508 204 q 624 240 575 204 q 699 334 674 276 q 738 453 725 392 q 750 578 750 515 l 750 578 q 586 796 750 796 z m 615 1014 l 615 1014 q 849 951 751 1014 q 991 788 946 888 q 1036 567 1036 689 l 1036 567 q 876 156 1036 325 q 465 -14 717 -14 l 465 -14 q 157 115 265 -14 q 49 428 49 243 l 49 428 q 210 841 49 668 q 615 1014 372 1014 z m 424 1056 l 343 1143 l 536 1354 l 636 1246 l 424 1056 z m 740 1056 l 660 1143 l 853 1354 l 953 1246 l 740 1056 z "},"ő":{"ha":792,"x_min":31,"x_max":774,"o":"m 311 333 l 311 333 q 375 178 311 178 l 375 178 q 453 246 426 178 q 481 408 481 314 l 481 408 q 418 558 481 558 l 418 558 q 338 492 365 558 q 311 333 311 426 z m 365 -14 l 365 -14 q 122 87 213 -14 q 31 350 31 188 l 31 350 q 149 642 31 533 q 429 750 267 750 l 429 750 q 668 656 575 750 q 761 386 761 563 q 649 98 761 210 q 365 -14 536 -14 z m 276 807 l 192 882 l 386 1131 l 492 1038 l 276 807 z m 558 807 l 474 882 l 668 1131 l 774 1038 l 558 807 z "},"Œ":{"ha":1372,"x_min":49,"x_max":1414,"o":"m 1321 225 l 1263 0 l 683 0 q 576 -7 646 0 q 465 -14 506 -14 l 465 -14 q 157 115 265 -14 q 49 428 49 243 l 49 428 q 210 841 49 668 q 615 1014 372 1014 l 615 1014 q 742 1007 665 1014 q 857 1000 818 1000 l 857 1000 l 1414 1000 l 1374 775 l 1025 775 l 996 619 l 1276 619 l 1238 407 l 957 407 l 924 225 l 1321 225 z m 508 204 l 508 204 q 644 236 585 204 l 644 236 l 740 765 q 611 796 679 796 l 611 796 q 481 763 538 796 q 394 675 425 731 q 349 557 364 619 q 335 424 335 494 l 335 424 q 375 266 335 328 q 508 204 415 204 z "},"œ":{"ha":1190,"x_min":31,"x_max":1165,"o":"m 1036 260 l 1036 260 l 1128 113 q 789 -14 990 -14 l 789 -14 q 576 50 656 -14 l 576 50 q 361 -14 483 -14 l 361 -14 q 121 87 211 -14 q 31 350 31 188 l 31 350 q 149 642 31 533 q 429 750 267 750 l 429 750 q 654 664 571 750 l 654 664 q 901 750 761 750 l 901 750 q 1094 684 1024 750 q 1165 504 1165 618 l 1165 504 q 1149 389 1165 451 l 1149 389 l 743 274 q 867 192 767 192 l 867 192 q 1036 260 961 192 z m 924 517 l 924 517 q 911 551 924 538 q 875 565 899 565 l 875 565 q 794 528 828 565 q 750 413 760 490 l 750 413 l 872 453 q 924 517 924 469 z m 311 333 l 311 333 q 375 178 311 178 l 375 178 q 453 246 426 178 q 481 408 481 314 l 481 408 q 418 558 481 558 l 418 558 q 338 492 365 558 q 311 333 311 426 z "},"Ŕ":{"ha":903,"x_min":4,"x_max":868,"o":"m 286 0 l 4 0 l 186 1000 l 364 1000 q 868 706 868 1000 l 868 706 q 656 426 868 500 l 656 426 q 743 232 703 332 l 743 232 l 832 14 l 832 0 l 535 0 l 382 386 l 357 386 l 286 0 z m 443 800 l 432 800 l 393 586 l 403 586 q 582 701 582 586 l 582 701 q 443 800 582 800 l 443 800 z m 444 1056 l 388 1163 l 682 1354 l 754 1219 l 444 1056 z "},"ŕ":{"ha":633,"x_min":-6,"x_max":703,"o":"m 703 725 l 703 725 l 624 514 q 578 518 600 518 l 578 518 q 319 264 367 518 l 319 264 l 275 25 l 10 -14 l -6 0 l 99 560 q 94 724 117 663 l 94 724 l 254 747 q 339 733 311 756 q 365 678 367 711 q 360 617 363 646 l 360 617 l 353 579 l 358 579 q 614 750 454 750 l 614 750 q 703 725 665 750 z m 376 807 l 297 889 l 518 1131 l 614 1031 l 376 807 z "},"Ŗ":{"ha":903,"x_min":4,"x_max":868,"o":"m 286 0 l 4 0 l 186 1000 l 364 1000 q 868 706 868 1000 l 868 706 q 656 426 868 500 l 656 426 q 743 232 703 332 l 743 232 l 832 14 l 832 0 l 535 0 l 382 386 l 357 386 l 286 0 z m 443 800 l 432 800 l 393 586 l 403 586 q 582 701 582 586 l 582 701 q 443 800 582 800 l 443 800 z m 314 -319 l 314 -319 l 229 -237 q 306 -167 279 -206 q 333 -69 333 -129 l 333 -69 q 332 -39 333 -54 l 332 -39 l 488 -39 q 496 -110 496 -76 l 496 -110 q 314 -319 496 -268 z "},"ŗ":{"ha":633,"x_min":-42,"x_max":703,"o":"m 703 725 l 703 725 l 624 514 q 578 518 600 518 l 578 518 q 319 264 367 518 l 319 264 l 275 25 l 10 -14 l -6 0 l 99 560 q 94 724 117 663 l 94 724 l 254 747 q 339 733 311 756 q 365 678 367 711 q 360 617 363 646 l 360 617 l 353 579 l 358 579 q 614 750 454 750 l 614 750 q 703 725 665 750 z m 43 -319 l 43 -319 l -42 -237 q 35 -167 8 -206 q 63 -69 63 -129 l 63 -69 q 61 -39 63 -54 l 61 -39 l 217 -39 q 225 -110 225 -76 l 225 -110 q 43 -319 225 -268 z "},"Ř":{"ha":903,"x_min":4,"x_max":868,"o":"m 286 0 l 4 0 l 186 1000 l 364 1000 q 868 706 868 1000 l 868 706 q 656 426 868 500 l 656 426 q 743 232 703 332 l 743 232 l 832 14 l 832 0 l 535 0 l 382 386 l 357 386 l 286 0 z m 443 800 l 432 800 l 393 586 l 403 586 q 582 701 582 586 l 582 701 q 443 800 582 800 l 443 800 z m 722 1354 l 790 1261 l 568 1069 l 449 1069 l 282 1271 l 364 1354 l 517 1197 l 722 1354 z "},"ř":{"ha":633,"x_min":-6,"x_max":703,"o":"m 703 725 l 703 725 l 624 514 q 578 518 600 518 l 578 518 q 319 264 367 518 l 319 264 l 275 25 l 10 -14 l -6 0 l 99 560 q 94 724 117 663 l 94 724 l 254 747 q 339 733 311 756 q 365 678 367 711 q 360 617 363 646 l 360 617 l 353 579 l 358 579 q 614 750 454 750 l 614 750 q 703 725 665 750 z m 558 1131 l 643 1058 l 454 821 l 332 821 l 203 1074 l 300 1131 l 407 953 l 558 1131 z "},"Ś":{"ha":840,"x_min":0,"x_max":847,"o":"m 0 108 l 0 108 l 111 292 q 200 246 129 274 q 350 218 271 218 l 350 218 q 503 290 503 218 l 503 290 q 494 318 503 306 q 465 342 486 331 q 428 362 444 354 q 377 383 411 369 q 324 404 343 396 l 324 404 q 156 518 221 449 q 92 703 92 588 l 92 703 q 156 880 92 807 q 313 983 221 953 q 514 1014 406 1014 l 514 1014 q 847 918 706 1014 l 847 918 l 758 729 q 500 789 631 789 l 500 789 q 378 729 378 789 l 378 729 q 401 681 378 703 q 460 644 424 660 q 541 610 497 628 q 629 569 585 593 q 710 513 674 544 q 770 432 747 482 q 793 319 793 382 l 793 319 q 671 71 793 156 q 374 -14 549 -14 l 374 -14 q 0 108 139 -14 z m 426 1056 l 369 1163 l 664 1354 l 736 1219 l 426 1056 z "},"ś":{"ha":639,"x_min":-35,"x_max":625,"o":"m -35 69 l -35 69 l 47 229 q 229 178 135 178 l 229 178 q 299 190 271 178 q 328 225 328 203 l 328 225 q 312 251 328 242 q 256 274 296 261 q 197 296 217 288 l 197 296 q 60 496 60 357 l 60 496 q 152 686 60 622 q 374 750 244 750 l 374 750 q 625 671 529 750 l 625 671 l 544 518 q 390 565 472 565 l 390 565 q 306 526 306 565 l 306 526 q 328 494 306 507 q 397 467 350 482 q 472 438 444 451 l 472 438 q 588 250 588 381 l 588 250 q 483 54 588 122 q 240 -14 379 -14 l 240 -14 q -35 69 69 -14 z m 339 807 l 260 889 l 481 1131 l 576 1031 l 339 807 z "},"Ş":{"ha":840,"x_min":0,"x_max":847,"o":"m 0 108 l 0 108 l 111 292 q 200 246 129 274 q 350 218 271 218 l 350 218 q 503 290 503 218 l 503 290 q 494 318 503 306 q 465 342 486 331 q 428 362 444 354 q 377 383 411 369 q 324 404 343 396 l 324 404 q 156 518 221 449 q 92 703 92 588 l 92 703 q 156 880 92 807 q 313 983 221 953 q 514 1014 406 1014 l 514 1014 q 847 918 706 1014 l 847 918 l 758 729 q 500 789 631 789 l 500 789 q 378 729 378 789 l 378 729 q 401 681 378 703 q 460 644 424 660 q 541 610 497 628 q 629 569 585 593 q 710 513 674 544 q 770 432 747 482 q 793 319 793 382 l 793 319 q 714 108 793 189 q 508 0 635 28 l 508 0 q 519 -82 519 -44 l 519 -82 q 472 -228 519 -171 q 329 -286 424 -286 l 329 -286 q 194 -247 250 -286 l 194 -247 l 243 -139 q 304 -157 272 -157 l 304 -157 q 375 -122 351 -157 q 399 -35 399 -86 l 399 -35 q 397 -14 399 -22 l 397 -14 l 374 -14 q 0 108 139 -14 z "},"ş":{"ha":639,"x_min":-35,"x_max":625,"o":"m -35 69 l -35 69 l 47 229 q 229 178 135 178 l 229 178 q 299 190 271 178 q 328 225 328 203 l 328 225 q 312 251 328 242 q 256 274 296 261 q 197 296 217 288 l 197 296 q 60 496 60 357 l 60 496 q 152 686 60 622 q 374 750 244 750 l 374 750 q 625 671 529 750 l 625 671 l 544 518 q 390 565 472 565 l 390 565 q 306 526 306 565 l 306 526 q 328 494 306 507 q 397 467 350 482 q 472 438 444 451 l 472 438 q 588 250 588 381 l 588 250 q 528 93 588 156 q 375 4 469 31 l 375 4 q 388 -82 388 -40 l 388 -82 q 340 -228 388 -171 q 197 -286 292 -286 l 197 -286 q 63 -247 118 -286 l 63 -247 l 111 -139 q 172 -157 140 -157 l 172 -157 q 243 -122 219 -157 q 267 -35 267 -86 l 267 -35 q 265 -14 267 -22 l 265 -14 l 240 -14 q -35 69 69 -14 z "},"Š":{"ha":840,"x_min":0,"x_max":847,"o":"m 0 108 l 0 108 l 111 292 q 200 246 129 274 q 350 218 271 218 l 350 218 q 503 290 503 218 l 503 290 q 494 318 503 306 q 465 342 486 331 q 428 362 444 354 q 377 383 411 369 q 324 404 343 396 l 324 404 q 156 518 221 449 q 92 703 92 588 l 92 703 q 156 880 92 807 q 313 983 221 953 q 514 1014 406 1014 l 514 1014 q 847 918 706 1014 l 847 918 l 758 729 q 500 789 631 789 l 500 789 q 378 729 378 789 l 378 729 q 401 681 378 703 q 460 644 424 660 q 541 610 497 628 q 629 569 585 593 q 710 513 674 544 q 770 432 747 482 q 793 319 793 382 l 793 319 q 671 71 793 156 q 374 -14 549 -14 l 374 -14 q 0 108 139 -14 z m 703 1354 l 771 1261 l 549 1069 l 429 1069 l 263 1271 l 344 1354 l 497 1197 l 703 1354 z "},"š":{"ha":639,"x_min":-35,"x_max":625,"o":"m -35 69 l -35 69 l 47 229 q 229 178 135 178 l 229 178 q 299 190 271 178 q 328 225 328 203 l 328 225 q 312 251 328 242 q 256 274 296 261 q 197 296 217 288 l 197 296 q 60 496 60 357 l 60 496 q 152 686 60 622 q 374 750 244 750 l 374 750 q 625 671 529 750 l 625 671 l 544 518 q 390 565 472 565 l 390 565 q 306 526 306 565 l 306 526 q 328 494 306 507 q 397 467 350 482 q 472 438 444 451 l 472 438 q 588 250 588 381 l 588 250 q 483 54 588 122 q 240 -14 379 -14 l 240 -14 q -35 69 69 -14 z m 525 1131 l 610 1058 l 421 821 l 299 821 l 169 1074 l 267 1131 l 374 953 l 525 1131 z "},"Ţ":{"ha":733,"x_min":69,"x_max":838,"o":"m 435 0 l 153 0 l 290 758 l 69 758 l 114 1000 l 838 1000 l 793 758 l 572 758 l 435 0 z m 200 -319 l 200 -319 l 115 -237 q 192 -167 165 -206 q 219 -69 219 -129 l 219 -69 q 218 -39 219 -54 l 218 -39 l 374 -39 q 382 -110 382 -76 l 382 -110 q 200 -319 382 -268 z "},"ţ":{"ha":561,"x_min":28,"x_max":585,"o":"m 475 225 l 475 225 l 528 46 q 313 -14 439 -14 l 313 -14 q 114 61 179 -14 q 74 271 49 136 l 74 271 l 126 556 l 28 556 l 54 694 l 161 736 l 204 925 l 465 963 l 478 956 l 436 736 l 585 736 l 551 556 l 403 556 l 358 317 q 421 217 340 217 l 421 217 q 475 225 447 217 z m 140 -319 l 140 -319 l 56 -237 q 133 -167 106 -206 q 160 -69 160 -129 l 160 -69 q 158 -39 160 -54 l 158 -39 l 314 -39 q 322 -110 322 -76 l 322 -110 q 140 -319 322 -268 z "},"Ť":{"ha":733,"x_min":69,"x_max":838,"o":"m 435 0 l 153 0 l 290 758 l 69 758 l 114 1000 l 838 1000 l 793 758 l 572 758 l 435 0 z m 678 1354 l 746 1261 l 524 1069 l 404 1069 l 238 1271 l 319 1354 l 472 1197 l 678 1354 z "},"ť":{"ha":561,"x_min":28,"x_max":803,"o":"m 475 225 l 475 225 l 528 46 q 313 -14 439 -14 l 313 -14 q 114 61 179 -14 q 74 271 49 136 l 74 271 l 126 556 l 28 556 l 54 694 l 161 736 l 204 925 l 465 963 l 478 956 l 436 736 l 585 736 l 551 556 l 403 556 l 358 317 q 421 217 340 217 l 421 217 q 475 225 447 217 z m 621 815 l 621 815 l 536 897 q 613 967 586 929 q 640 1065 640 1006 l 640 1065 q 639 1096 640 1081 l 639 1096 l 794 1096 q 803 1025 803 1058 l 803 1025 q 621 815 803 867 z "},"Ū":{"ha":940,"x_min":56,"x_max":988,"o":"m 67 475 l 163 1000 l 444 1000 l 344 453 q 333 349 333 392 l 333 349 q 439 211 333 211 l 439 211 q 551 272 511 211 q 611 446 590 332 l 611 446 l 713 1000 l 988 1000 l 886 439 q 740 102 846 218 q 429 -14 635 -14 l 429 -14 q 145 88 235 -14 q 56 351 56 189 l 56 351 q 67 475 56 408 l 67 475 z m 836 1240 l 811 1101 l 338 1101 l 363 1240 l 836 1240 z "},"ū":{"ha":789,"x_min":31,"x_max":789,"o":"m 88 722 l 88 722 l 257 747 q 363 724 335 758 q 378 614 392 689 l 378 614 l 318 297 q 313 246 313 269 l 313 246 q 325 215 313 215 l 325 215 q 402 303 356 215 q 464 472 449 392 l 464 472 l 508 711 l 774 750 l 789 736 l 690 206 q 696 35 671 96 l 696 35 l 438 -14 q 424 119 410 42 l 424 119 l 431 157 l 425 157 q 178 -14 328 -14 l 178 -14 q 65 41 100 -14 q 31 178 31 96 l 31 178 q 43 299 31 236 l 43 299 l 92 560 q 88 722 110 657 z m 692 989 l 669 864 l 224 864 l 246 989 l 692 989 z "},"Ů":{"ha":940,"x_min":56,"x_max":988,"o":"m 67 475 l 163 1000 l 444 1000 l 344 453 q 333 349 333 392 l 333 349 q 439 211 333 211 l 439 211 q 551 272 511 211 q 611 446 590 332 l 611 446 l 713 1000 l 988 1000 l 886 439 q 740 102 846 218 q 429 -14 635 -14 l 429 -14 q 145 88 235 -14 q 56 351 56 189 l 56 351 q 67 475 56 408 l 67 475 z m 604 1354 l 604 1354 q 721 1315 675 1354 q 767 1208 767 1275 l 767 1208 q 711 1078 767 1128 q 568 1029 656 1029 l 568 1029 q 451 1072 497 1029 q 406 1179 406 1114 l 406 1179 q 462 1305 406 1256 q 604 1354 518 1354 z m 526 1185 l 526 1185 q 540 1142 526 1158 q 578 1125 553 1125 l 578 1125 q 646 1200 646 1125 l 646 1200 q 633 1242 646 1225 q 594 1258 619 1258 l 594 1258 q 544 1238 563 1258 q 526 1185 526 1218 z "},"ů":{"ha":789,"x_min":31,"x_max":789,"o":"m 88 722 l 88 722 l 257 747 q 363 724 335 758 q 378 614 392 689 l 378 614 l 318 297 q 313 246 313 269 l 313 246 q 325 215 313 215 l 325 215 q 402 303 356 215 q 464 472 449 392 l 464 472 l 508 711 l 774 750 l 789 736 l 690 206 q 696 35 671 96 l 696 35 l 438 -14 q 424 119 410 42 l 424 119 l 431 157 l 425 157 q 178 -14 328 -14 l 178 -14 q 65 41 100 -14 q 31 178 31 96 l 31 178 q 43 299 31 236 l 43 299 l 92 560 q 88 722 110 657 z m 490 1135 l 490 1135 q 607 1095 561 1135 q 653 989 653 1056 l 653 989 q 597 859 653 908 q 454 810 542 810 l 454 810 q 338 852 383 810 q 292 960 292 894 l 292 960 q 348 1085 292 1036 q 490 1135 404 1135 z m 413 965 l 413 965 q 426 922 413 939 q 464 906 439 906 l 464 906 q 532 981 532 906 l 532 981 q 519 1022 532 1006 q 481 1039 506 1039 l 481 1039 q 431 1019 449 1039 q 413 965 413 999 z "},"Ű":{"ha":940,"x_min":56,"x_max":988,"o":"m 67 475 l 163 1000 l 444 1000 l 344 453 q 333 349 333 392 l 333 349 q 439 211 333 211 l 439 211 q 551 272 511 211 q 611 446 590 332 l 611 446 l 713 1000 l 988 1000 l 886 439 q 740 102 846 218 q 429 -14 635 -14 l 429 -14 q 145 88 235 -14 q 56 351 56 189 l 56 351 q 67 475 56 408 l 67 475 z m 381 1056 l 300 1143 l 493 1354 l 593 1246 l 381 1056 z m 697 1056 l 617 1143 l 810 1354 l 910 1246 l 697 1056 z "},"ű":{"ha":789,"x_min":31,"x_max":789,"o":"m 88 722 l 88 722 l 257 747 q 363 724 335 758 q 378 614 392 689 l 378 614 l 318 297 q 313 246 313 269 l 313 246 q 325 215 313 215 l 325 215 q 402 303 356 215 q 464 472 449 392 l 464 472 l 508 711 l 774 750 l 789 736 l 690 206 q 696 35 671 96 l 696 35 l 438 -14 q 424 119 410 42 l 424 119 l 431 157 l 425 157 q 178 -14 328 -14 l 178 -14 q 65 41 100 -14 q 31 178 31 96 l 31 178 q 43 299 31 236 l 43 299 l 92 560 q 88 722 110 657 z m 290 807 l 206 882 l 400 1131 l 506 1038 l 290 807 z m 572 807 l 488 882 l 682 1131 l 788 1038 l 572 807 z "},"Ų":{"ha":940,"x_min":56,"x_max":988,"o":"m 67 475 l 163 1000 l 444 1000 l 344 453 q 333 349 333 392 l 333 349 q 439 211 333 211 l 439 211 q 551 272 511 211 q 611 446 590 332 l 611 446 l 713 1000 l 988 1000 l 886 439 q 750 113 847 228 q 467 -12 653 -1 l 467 -12 q 450 -90 450 -50 l 450 -90 q 514 -157 450 -157 l 514 -157 q 590 -132 551 -157 l 590 -132 l 639 -240 q 486 -286 569 -286 l 486 -286 q 361 -246 401 -286 q 321 -140 321 -206 l 321 -140 q 356 -10 321 -72 l 356 -10 q 128 108 200 10 q 56 351 56 206 l 56 351 q 67 475 56 408 l 67 475 z "},"ų":{"ha":789,"x_min":31,"x_max":789,"o":"m 88 722 l 88 722 l 257 747 q 363 724 335 758 q 378 614 392 689 l 378 614 l 318 297 q 313 246 313 269 l 313 246 q 325 215 313 215 l 325 215 q 402 303 356 215 q 464 472 449 392 l 464 472 l 508 711 l 774 750 l 789 736 l 690 206 q 696 35 671 96 l 696 35 l 560 8 q 533 -90 533 -39 l 533 -90 q 597 -157 533 -157 l 597 -157 q 674 -132 635 -157 l 674 -132 l 722 -240 q 569 -286 653 -286 l 569 -286 q 444 -246 485 -286 q 404 -140 404 -206 l 404 -140 q 438 -12 404 -76 l 438 -12 q 424 119 410 42 l 424 119 l 431 157 l 425 157 q 178 -14 328 -14 l 178 -14 q 65 41 100 -14 q 31 178 31 96 l 31 178 q 43 299 31 236 l 43 299 l 92 560 q 88 722 110 657 z "},"Ÿ":{"ha":826,"x_min":90,"x_max":928,"o":"m 483 0 l 201 0 l 271 383 l 90 986 l 90 1000 l 386 1000 l 410 853 l 443 607 l 449 607 q 550 851 497 739 l 550 851 l 619 1000 l 928 1000 l 928 986 l 553 383 l 483 0 z m 217 1186 l 217 1186 q 248 1294 217 1261 q 356 1326 279 1326 l 356 1326 q 458 1231 458 1326 l 458 1231 q 428 1120 458 1156 q 319 1085 399 1085 l 319 1085 q 242 1108 267 1085 q 217 1186 217 1132 z m 574 1186 l 574 1186 q 605 1294 574 1261 q 713 1326 636 1326 l 713 1326 q 815 1231 815 1326 l 815 1231 q 785 1120 815 1156 q 676 1085 756 1085 l 676 1085 q 599 1108 624 1085 q 574 1186 574 1132 z "},"Ź":{"ha":881,"x_min":-31,"x_max":922,"o":"m 839 228 l 781 0 l -31 0 l -3 153 l 274 510 q 380 636 322 572 q 472 733 438 700 l 472 733 l 506 767 l 506 772 l 103 772 l 144 1000 l 922 1000 l 894 847 l 618 490 q 513 365 571 429 q 419 267 454 300 l 419 267 l 386 233 l 386 228 l 839 228 z m 465 1056 l 408 1163 l 703 1354 l 775 1219 l 465 1056 z "},"ź":{"ha":781,"x_min":-44,"x_max":760,"o":"m 456 0 l 456 0 l -44 0 l -15 158 l 229 383 q 292 439 258 411 q 344 481 325 467 l 344 481 l 364 496 l 363 501 l 74 501 l 117 736 l 758 736 l 729 578 l 485 353 q 424 298 457 326 q 372 256 390 269 l 372 256 l 353 240 l 354 235 l 419 235 q 527 264 494 235 q 574 342 560 293 l 574 342 l 760 282 q 742 206 751 240 q 709 132 732 172 q 655 65 686 92 q 572 19 624 38 q 456 0 521 0 z m 429 807 l 350 889 l 571 1131 l 667 1031 l 429 807 z "},"Ż":{"ha":881,"x_min":-31,"x_max":922,"o":"m 839 228 l 781 0 l -31 0 l -3 153 l 274 510 q 380 636 322 572 q 472 733 438 700 l 472 733 l 506 767 l 506 772 l 103 772 l 144 1000 l 922 1000 l 894 847 l 618 490 q 513 365 571 429 q 419 267 454 300 l 419 267 l 386 233 l 386 228 l 839 228 z m 415 1189 l 415 1189 q 448 1303 415 1268 q 561 1338 481 1338 l 561 1338 q 642 1316 615 1338 q 668 1240 668 1294 l 668 1240 q 637 1122 668 1160 q 524 1085 606 1085 l 524 1085 q 442 1109 468 1085 q 415 1189 415 1133 z "},"ż":{"ha":781,"x_min":-44,"x_max":760,"o":"m 456 0 l 456 0 l -44 0 l -15 158 l 229 383 q 292 439 258 411 q 344 481 325 467 l 344 481 l 364 496 l 363 501 l 74 501 l 117 736 l 758 736 l 729 578 l 485 353 q 424 298 457 326 q 372 256 390 269 l 372 256 l 353 240 l 354 235 l 419 235 q 527 264 494 235 q 574 342 560 293 l 574 342 l 760 282 q 742 206 751 240 q 709 132 732 172 q 655 65 686 92 q 572 19 624 38 q 456 0 521 0 z m 318 932 l 318 932 q 351 1046 318 1011 q 464 1081 383 1081 l 464 1081 q 544 1059 518 1081 q 571 983 571 1038 l 571 983 q 540 865 571 903 q 426 828 508 828 l 426 828 q 344 852 371 828 q 318 932 318 876 z "},"Ž":{"ha":881,"x_min":-31,"x_max":922,"o":"m 839 228 l 781 0 l -31 0 l -3 153 l 274 510 q 380 636 322 572 q 472 733 438 700 l 472 733 l 506 767 l 506 772 l 103 772 l 144 1000 l 922 1000 l 894 847 l 618 490 q 513 365 571 429 q 419 267 454 300 l 419 267 l 386 233 l 386 228 l 839 228 z m 739 1354 l 807 1261 l 585 1069 l 465 1069 l 299 1271 l 381 1354 l 533 1197 l 739 1354 z "},"ž":{"ha":781,"x_min":-44,"x_max":760,"o":"m 456 0 l 456 0 l -44 0 l -15 158 l 229 383 q 292 439 258 411 q 344 481 325 467 l 344 481 l 364 496 l 363 501 l 74 501 l 117 736 l 758 736 l 729 578 l 485 353 q 424 298 457 326 q 372 256 390 269 l 372 256 l 353 240 l 354 235 l 419 235 q 527 264 494 235 q 574 342 560 293 l 574 342 l 760 282 q 742 206 751 240 q 709 132 732 172 q 655 65 686 92 q 572 19 624 38 q 456 0 521 0 z m 592 1131 l 676 1058 l 488 821 l 365 821 l 236 1074 l 333 1131 l 440 953 l 592 1131 z "},"ƒ":{"ha":869,"x_min":-46,"x_max":869,"o":"m 760 681 l 726 500 l 578 500 l 536 190 q 519 90 528 131 q 483 -10 510 50 q 419 -106 457 -69 q 311 -170 381 -143 q 149 -197 242 -197 l 149 -197 q -46 -149 35 -197 l -46 -149 l 29 47 q 119 29 75 29 l 119 29 q 219 83 185 29 q 269 251 254 138 l 269 251 l 303 500 l 204 500 l 231 639 l 328 681 l 340 767 q 450 951 358 888 q 664 1014 542 1014 l 664 1014 q 869 963 779 1014 l 869 963 l 806 797 q 715 815 768 815 l 715 815 q 613 744 622 815 l 613 744 l 603 681 l 760 681 z "},"Ș":{"ha":840,"x_min":0,"x_max":847,"o":"m 0 108 l 0 108 l 111 292 q 200 246 129 274 q 350 218 271 218 l 350 218 q 503 290 503 218 l 503 290 q 494 318 503 306 q 465 342 486 331 q 428 362 444 354 q 377 383 411 369 q 324 404 343 396 l 324 404 q 156 518 221 449 q 92 703 92 588 l 92 703 q 156 880 92 807 q 313 983 221 953 q 514 1014 406 1014 l 514 1014 q 847 918 706 1014 l 847 918 l 758 729 q 500 789 631 789 l 500 789 q 378 729 378 789 l 378 729 q 401 681 378 703 q 460 644 424 660 q 541 610 497 628 q 629 569 585 593 q 710 513 674 544 q 770 432 747 482 q 793 319 793 382 l 793 319 q 671 71 793 156 q 374 -14 549 -14 l 374 -14 q 0 108 139 -14 z m 308 -319 l 308 -319 l 224 -237 q 301 -167 274 -206 q 328 -69 328 -129 l 328 -69 q 326 -39 328 -54 l 326 -39 l 482 -39 q 490 -110 490 -76 l 490 -110 q 308 -319 490 -268 z "},"ș":{"ha":639,"x_min":-35,"x_max":625,"o":"m -35 69 l -35 69 l 47 229 q 229 178 135 178 l 229 178 q 299 190 271 178 q 328 225 328 203 l 328 225 q 312 251 328 242 q 256 274 296 261 q 197 296 217 288 l 197 296 q 60 496 60 357 l 60 496 q 152 686 60 622 q 374 750 244 750 l 374 750 q 625 671 529 750 l 625 671 l 544 518 q 390 565 472 565 l 390 565 q 306 526 306 565 l 306 526 q 328 494 306 507 q 397 467 350 482 q 472 438 444 451 l 472 438 q 588 250 588 381 l 588 250 q 483 54 588 122 q 240 -14 379 -14 l 240 -14 q -35 69 69 -14 z m 193 -319 l 193 -319 l 108 -237 q 185 -167 158 -206 q 213 -69 213 -129 l 213 -69 q 211 -39 213 -54 l 211 -39 l 367 -39 q 375 -110 375 -76 l 375 -110 q 193 -319 375 -268 z "},"ˆ":{"ha":556,"x_min":142,"x_max":582,"o":"m 226 807 l 142 879 l 331 1117 l 453 1117 l 582 864 l 485 807 l 378 985 l 226 807 z "},"ˇ":{"ha":556,"x_min":172,"x_max":613,"o":"m 528 1131 l 613 1058 l 424 821 l 301 821 l 172 1074 l 269 1131 l 376 953 l 528 1131 z "},"˘":{"ha":556,"x_min":172,"x_max":604,"o":"m 176 1068 l 176 1068 l 292 1068 q 375 953 292 953 l 375 953 q 489 1068 467 953 l 489 1068 l 604 1068 q 527 891 590 954 q 369 828 464 828 l 369 828 q 227 878 282 828 q 172 1019 172 929 l 172 1019 q 176 1068 172 1043 z "},"˙":{"ha":556,"x_min":254,"x_max":507,"o":"m 254 932 l 254 932 q 287 1046 254 1011 q 400 1081 319 1081 l 400 1081 q 481 1059 454 1081 q 507 983 507 1038 l 507 983 q 476 865 507 903 q 363 828 444 828 l 363 828 q 281 852 307 828 q 254 932 254 876 z "},"˚":{"ha":556,"x_min":199,"x_max":560,"o":"m 397 1135 l 397 1135 q 514 1095 468 1135 q 560 989 560 1056 l 560 989 q 504 859 560 908 q 361 810 449 810 l 361 810 q 244 852 290 810 q 199 960 199 894 l 199 960 q 255 1085 199 1036 q 397 1135 311 1135 z m 319 965 l 319 965 q 333 922 319 939 q 371 906 346 906 l 371 906 q 439 981 439 906 l 439 981 q 426 1022 439 1006 q 388 1039 413 1039 l 388 1039 q 338 1019 356 1039 q 319 965 319 999 z "},"˛":{"ha":556,"x_min":89,"x_max":407,"o":"m 139 17 l 139 17 l 250 17 q 218 -90 218 -31 l 218 -90 q 282 -157 218 -157 l 282 -157 q 358 -132 319 -157 l 358 -132 l 407 -240 q 254 -286 338 -286 l 254 -286 q 129 -246 169 -286 q 89 -140 89 -206 l 89 -140 q 139 17 89 -61 z "},"˜":{"ha":556,"x_min":132,"x_max":622,"o":"m 243 821 l 243 821 l 132 835 q 155 923 140 882 q 203 1001 169 964 q 282 1039 238 1039 l 282 1039 q 386 997 324 1039 q 460 956 449 956 l 460 956 q 492 983 478 956 q 511 1039 506 1011 l 511 1039 l 622 1025 q 599 937 615 979 q 549 858 583 894 q 472 821 515 821 l 472 821 q 364 863 425 821 q 294 904 303 904 l 294 904 q 243 821 263 904 z "},"˝":{"ha":556,"x_min":93,"x_max":675,"o":"m 178 807 l 93 882 l 288 1131 l 393 1038 l 178 807 z m 460 807 l 375 882 l 569 1131 l 675 1038 l 460 807 z "},"Ё":{"ha":775,"x_min":4,"x_max":817,"o":"m 197 1186 l 197 1186 q 228 1294 197 1261 q 336 1326 260 1326 l 336 1326 q 439 1231 439 1326 l 439 1231 q 409 1120 439 1156 q 300 1085 379 1085 l 300 1085 q 222 1108 247 1085 q 197 1186 197 1132 z m 554 1186 l 554 1186 q 585 1294 554 1261 q 693 1326 617 1326 l 693 1326 q 796 1231 796 1326 l 796 1231 q 766 1120 796 1156 q 657 1085 736 1085 l 657 1085 q 579 1108 604 1085 q 554 1186 554 1132 z m 665 0 l 4 0 l 186 1000 l 817 1000 l 776 775 l 428 775 l 399 619 l 679 619 l 640 407 l 360 407 l 326 225 l 724 225 l 665 0 z "},"Ђ":{"ha":1057,"x_min":69,"x_max":1001,"o":"m 153 0 l 290 758 l 69 758 l 114 1000 l 965 1000 l 921 758 l 572 758 l 540 586 q 696 615 617 615 l 696 615 q 924 525 847 615 q 1001 299 1001 435 l 1001 299 q 858 -67 1001 74 q 475 -224 715 -208 l 475 -224 l 443 -18 q 638 67 560 -7 q 715 261 715 140 l 715 261 q 683 363 715 329 q 601 397 651 397 l 601 397 q 503 372 553 397 l 503 372 l 435 0 l 153 0 z "},"Ѓ":{"ha":683,"x_min":4,"x_max":788,"o":"m 286 0 l 4 0 l 186 1000 l 788 1000 l 743 758 l 424 758 l 286 0 z m 404 1056 l 347 1163 l 642 1354 l 714 1219 l 404 1056 z "},"Є":{"ha":863,"x_min":49,"x_max":904,"o":"m 726 276 l 726 276 l 817 81 q 499 -14 679 -14 l 499 -14 q 169 103 290 -14 q 49 418 49 219 l 49 418 q 222 842 49 671 q 646 1014 394 1014 l 646 1014 q 904 951 794 1014 l 904 951 l 815 763 q 661 789 747 789 l 661 789 q 490 743 563 789 q 376 618 417 697 l 376 618 l 728 635 l 686 410 l 335 426 q 387 275 336 332 q 536 218 438 218 l 536 218 q 726 276 642 218 z "},"Ѕ":{"ha":840,"x_min":0,"x_max":847,"o":"m 0 108 l 0 108 l 111 292 q 200 246 129 274 q 350 218 271 218 l 350 218 q 503 290 503 218 l 503 290 q 494 318 503 306 q 465 342 486 331 q 428 362 444 354 q 377 383 411 369 q 324 404 343 396 l 324 404 q 156 518 221 449 q 92 703 92 588 l 92 703 q 156 880 92 807 q 313 983 221 953 q 514 1014 406 1014 l 514 1014 q 847 918 706 1014 l 847 918 l 758 729 q 500 789 631 789 l 500 789 q 378 729 378 789 l 378 729 q 401 681 378 703 q 460 644 424 660 q 541 610 497 628 q 629 569 585 593 q 710 513 674 544 q 770 432 747 482 q 793 319 793 382 l 793 319 q 671 71 793 156 q 374 -14 549 -14 l 374 -14 q 0 108 139 -14 z "},"І":{"ha":435,"x_min":4,"x_max":468,"o":"m 286 0 l 4 0 l 186 1000 l 468 1000 l 286 0 z "},"Ї":{"ha":435,"x_min":4,"x_max":644,"o":"m 46 1186 l 46 1186 q 77 1294 46 1261 q 185 1326 108 1326 l 185 1326 q 288 1231 288 1326 l 288 1231 q 258 1120 288 1156 q 149 1085 228 1085 l 149 1085 q 71 1108 96 1085 q 46 1186 46 1132 z m 403 1186 l 403 1186 q 434 1294 403 1261 q 542 1326 465 1326 l 542 1326 q 644 1231 644 1326 l 644 1231 q 615 1120 644 1156 q 506 1085 585 1085 l 506 1085 q 428 1108 453 1085 q 403 1186 403 1132 z m 286 0 l 4 0 l 186 1000 l 468 1000 l 286 0 z "},"Ј":{"ha":456,"x_min":-178,"x_max":489,"o":"m 53 154 l 207 1000 l 489 1000 l 321 79 q -147 -224 267 -218 l -147 -224 l -178 -14 q -117 -4 -142 -10 q -52 17 -93 1 q 16 69 -11 33 q 53 154 43 104 l 53 154 z "},"Љ":{"ha":1347,"x_min":-42,"x_max":1326,"o":"m 225 625 l 297 1000 l 1010 1000 l 944 644 l 961 644 q 1061 638 1014 644 q 1158 610 1108 631 q 1244 559 1208 590 q 1303 475 1281 528 q 1326 353 1326 422 l 1326 353 q 757 0 1326 0 l 757 0 l 546 0 l 683 758 l 521 758 l 461 447 q 46 -14 378 13 l 46 -14 l -42 221 q 31 241 -1 226 q 88 273 64 256 q 131 322 111 290 q 163 381 150 354 q 188 454 175 407 q 207 534 200 501 q 225 625 214 567 l 225 625 z m 1040 332 l 1040 332 q 1006 397 1040 381 q 911 413 972 413 l 911 413 l 896 413 l 863 232 l 876 232 q 1000 254 960 232 q 1040 332 1040 276 z "},"Њ":{"ha":1340,"x_min":4,"x_max":1319,"o":"m 656 644 l 721 1000 l 1003 1000 l 938 644 l 954 644 q 1054 638 1007 644 q 1151 610 1101 631 q 1238 559 1201 590 q 1297 475 1274 528 q 1319 353 1319 422 l 1319 353 q 750 0 1319 0 l 750 0 l 539 0 l 613 403 l 360 403 l 286 0 l 4 0 l 186 1000 l 468 1000 l 404 644 l 656 644 z m 1033 332 l 1033 332 q 999 397 1033 381 q 904 413 965 413 l 904 413 l 889 413 l 856 232 l 869 232 q 993 254 953 232 q 1033 332 1033 276 z "},"Ћ":{"ha":1053,"x_min":69,"x_max":990,"o":"m 153 0 l 290 758 l 69 758 l 114 1000 l 965 1000 l 921 758 l 572 758 l 540 586 q 701 615 617 615 l 701 615 q 908 547 825 615 q 990 356 990 479 l 990 356 q 982 268 990 314 l 982 268 l 933 0 l 651 0 l 694 235 q 606 397 724 397 l 606 397 q 503 372 556 397 l 503 372 l 435 0 l 153 0 z "},"Ќ":{"ha":935,"x_min":4,"x_max":983,"o":"m 867 14 l 867 0 l 572 0 l 385 499 l 707 1000 l 983 1000 l 983 986 l 672 508 l 867 14 z m 286 0 l 4 0 l 186 1000 l 468 1000 l 286 0 z m 494 1056 l 438 1163 l 732 1354 l 804 1219 l 494 1056 z "},"Ў":{"ha":836,"x_min":76,"x_max":961,"o":"m 486 619 l 496 579 l 501 579 q 593 840 542 724 l 593 840 l 663 1000 l 961 1000 l 961 986 l 632 367 q 594 298 608 322 q 549 226 581 274 q 491 149 518 178 q 419 85 464 121 q 330 28 375 49 q 224 -4 285 8 q 94 -14 163 -17 l 94 -14 l 94 246 q 138 242 114 242 l 138 242 q 324 331 254 242 l 324 331 l 76 986 l 76 1000 l 374 1000 l 426 840 q 460 724 443 789 q 486 619 478 658 l 486 619 z m 294 1322 l 294 1322 l 435 1322 q 519 1204 429 1204 l 519 1204 q 597 1235 565 1204 q 636 1322 628 1267 l 636 1322 l 776 1322 q 688 1142 760 1206 q 507 1079 615 1079 l 507 1079 q 347 1142 404 1079 q 294 1322 289 1204 z "},"Џ":{"ha":976,"x_min":4,"x_max":1010,"o":"m 493 -232 l 256 -232 l 290 0 l 4 0 l 186 1000 l 468 1000 l 331 242 l 590 242 l 728 1000 l 1010 1000 l 828 0 l 542 0 l 493 -232 z "},"А":{"ha":942,"x_min":-62,"x_max":872,"o":"m 726 1006 l 872 0 l 576 0 l 563 214 l 332 214 l 251 0 l -62 0 l -62 14 l 411 956 l 715 1014 l 726 1006 z m 531 725 l 525 725 l 410 419 l 550 419 l 531 725 z "},"Б":{"ha":878,"x_min":4,"x_max":857,"o":"m 319 0 l 4 0 l 186 1000 l 857 1000 l 813 758 l 424 758 l 397 608 l 435 608 q 835 325 835 608 l 835 325 q 319 0 835 0 l 319 0 z m 393 408 l 361 408 l 322 200 l 354 200 q 549 314 549 200 l 549 314 q 393 408 549 408 l 393 408 z "},"В":{"ha":888,"x_min":4,"x_max":853,"o":"m 460 800 l 460 800 l 432 800 l 399 621 l 453 621 q 535 647 504 621 q 567 718 567 672 l 567 718 q 460 800 567 800 z m 397 426 l 397 426 l 364 426 l 322 200 l 357 200 q 426 204 397 200 q 486 219 456 208 q 533 255 517 231 q 549 317 549 279 l 549 317 q 397 426 549 426 z m 308 0 l 4 0 l 186 1000 l 421 1000 q 510 998 471 1000 q 603 989 549 996 q 699 966 658 982 q 776 926 739 950 q 833 860 814 901 q 853 767 853 819 l 853 767 q 785 606 853 668 q 607 535 717 544 l 607 535 l 606 529 q 772 463 708 521 q 835 307 835 404 l 835 307 q 811 185 835 238 q 742 99 788 132 q 649 46 697 67 q 534 15 600 25 q 419 3 468 6 q 308 0 369 0 l 308 0 z "},"Г":{"ha":683,"x_min":4,"x_max":788,"o":"m 286 0 l 4 0 l 186 1000 l 788 1000 l 743 758 l 424 758 l 286 0 z "},"Д":{"ha":1025,"x_min":-118,"x_max":1003,"o":"m -118 -232 l -31 242 l 67 242 q 233 704 174 388 l 233 704 l 290 1000 l 1003 1000 l 865 242 l 994 242 l 908 -232 l 679 -232 l 696 0 l 179 0 l 111 -232 l -118 -232 z m 583 242 l 676 758 l 514 758 l 476 564 q 369 242 443 388 l 369 242 l 583 242 z "},"Е":{"ha":775,"x_min":4,"x_max":817,"o":"m 665 0 l 4 0 l 186 1000 l 817 1000 l 776 775 l 428 775 l 399 619 l 679 619 l 640 407 l 360 407 l 326 225 l 724 225 l 665 0 z "},"Ж":{"ha":1413,"x_min":-69,"x_max":1447,"o":"m 1331 14 l 1331 0 l 1039 0 l 872 499 l 1174 1000 l 1447 1000 l 1447 986 l 1157 508 l 1331 14 z m 774 0 l 492 0 l 674 1000 l 956 1000 l 774 0 z m 575 499 l 254 0 l -69 0 l -69 14 l 304 561 l 181 986 l 181 1000 l 442 1000 l 575 499 z "},"З":{"ha":788,"x_min":-42,"x_max":760,"o":"m 181 743 l 181 743 l 114 950 q 425 1014 268 1014 l 425 1014 q 544 1001 488 1014 q 650 963 600 989 q 730 885 700 936 q 760 765 760 835 l 760 765 q 699 608 760 672 q 540 533 638 544 l 540 533 l 539 529 q 672 456 624 514 q 721 314 721 397 l 721 314 q 683 161 721 226 q 583 59 646 96 q 445 4 519 22 q 288 -14 371 -14 l 288 -14 q -42 63 86 -14 l -42 63 l 63 260 q 272 218 146 218 l 272 218 q 389 243 343 218 q 435 324 435 268 l 435 324 q 421 374 435 354 q 378 401 407 393 q 326 410 349 408 q 265 413 304 413 l 265 413 l 246 413 l 283 619 l 299 619 q 357 622 335 619 q 410 631 379 624 q 458 660 442 639 q 474 713 474 681 l 474 713 q 374 789 474 789 l 374 789 q 181 743 282 789 z "},"И":{"ha":1011,"x_min":4,"x_max":1044,"o":"m 735 851 l 763 1000 l 1044 1000 l 863 0 l 581 0 l 625 243 l 676 489 l 672 490 q 496 322 583 399 l 496 322 l 317 168 l 286 0 l 4 0 l 186 1000 l 468 1000 l 426 771 l 376 532 l 381 531 q 556 697 468 621 l 556 697 l 735 851 z "},"Й":{"ha":1011,"x_min":4,"x_max":1044,"o":"m 735 851 l 763 1000 l 1044 1000 l 863 0 l 581 0 l 625 243 l 676 489 l 672 490 q 496 322 583 399 l 496 322 l 317 168 l 286 0 l 4 0 l 186 1000 l 468 1000 l 426 771 l 376 532 l 381 531 q 556 697 468 621 l 556 697 l 735 851 z m 393 1322 l 393 1322 l 533 1322 q 618 1204 528 1204 l 618 1204 q 695 1235 664 1204 q 735 1322 726 1267 l 735 1322 l 875 1322 q 786 1142 858 1206 q 606 1079 714 1079 l 606 1079 q 445 1142 503 1079 q 393 1322 388 1204 z "},"К":{"ha":935,"x_min":4,"x_max":983,"o":"m 867 14 l 867 0 l 572 0 l 385 499 l 707 1000 l 983 1000 l 983 986 l 672 508 l 867 14 z m 286 0 l 4 0 l 186 1000 l 468 1000 l 286 0 z "},"Л":{"ha":990,"x_min":-42,"x_max":1024,"o":"m 560 0 l 697 758 l 521 758 l 461 447 q 46 -14 378 13 l 46 -14 l -42 221 q 31 241 -1 226 q 88 273 64 256 q 131 322 111 290 q 163 381 150 354 q 188 454 175 407 q 207 534 200 501 q 225 625 214 567 l 225 625 l 297 1000 l 1024 1000 l 842 0 l 560 0 z "},"М":{"ha":1275,"x_min":-14,"x_max":1233,"o":"m 735 618 l 735 618 l 890 1000 l 1233 1000 l 1150 0 l 875 0 l 918 399 q 941 562 926 474 q 967 700 956 650 l 967 700 l 978 750 l 972 750 q 849 390 917 560 l 849 390 l 711 51 l 446 0 l 425 385 q 420 547 421 456 q 421 694 419 638 l 421 694 l 422 750 l 417 750 q 347 375 386 547 l 347 375 l 264 0 l -14 0 l 253 1000 l 610 1000 l 631 615 q 632 460 633 536 q 628 331 631 385 l 628 331 l 624 275 l 629 275 q 735 618 671 461 z "},"Н":{"ha":997,"x_min":4,"x_max":1031,"o":"m 849 0 l 567 0 l 640 403 l 360 403 l 286 0 l 4 0 l 186 1000 l 468 1000 l 404 644 l 683 644 l 749 1000 l 1031 1000 l 849 0 z "},"О":{"ha":1043,"x_min":49,"x_max":1036,"o":"m 586 796 l 586 796 q 438 733 497 796 q 356 591 378 671 q 335 424 335 511 l 335 424 q 375 266 335 328 q 508 204 415 204 l 508 204 q 624 240 575 204 q 699 334 674 276 q 738 453 725 392 q 750 578 750 515 l 750 578 q 586 796 750 796 z m 615 1014 l 615 1014 q 849 951 751 1014 q 991 788 946 888 q 1036 567 1036 689 l 1036 567 q 876 156 1036 325 q 465 -14 717 -14 l 465 -14 q 157 115 265 -14 q 49 428 49 243 l 49 428 q 210 841 49 668 q 615 1014 372 1014 z "},"П":{"ha":976,"x_min":4,"x_max":1010,"o":"m 4 0 l 186 1000 l 1010 1000 l 828 0 l 546 0 l 683 758 l 424 758 l 286 0 l 4 0 z "},"Р":{"ha":838,"x_min":4,"x_max":868,"o":"m 286 0 l 4 0 l 186 1000 l 364 1000 q 868 703 868 1000 l 868 703 q 838 562 868 624 q 757 461 807 500 q 640 397 707 422 q 503 360 572 371 q 361 350 435 350 l 361 350 l 350 350 l 286 0 z m 443 800 l 432 800 l 386 550 l 397 550 q 533 586 483 550 q 582 694 582 622 l 582 694 q 539 777 582 754 q 443 800 496 800 l 443 800 z "},"С":{"ha":842,"x_min":49,"x_max":897,"o":"m 719 276 l 719 276 l 810 81 q 492 -14 672 -14 l 492 -14 q 169 103 289 -14 q 49 418 49 219 l 49 418 q 220 842 49 669 q 639 1014 392 1014 l 639 1014 q 897 951 788 1014 l 897 951 l 808 763 q 654 789 740 789 l 654 789 q 421 686 507 789 q 335 433 335 583 l 335 433 q 385 277 335 336 q 529 218 435 218 l 529 218 q 719 276 635 218 z "},"Т":{"ha":733,"x_min":69,"x_max":838,"o":"m 435 0 l 153 0 l 290 758 l 69 758 l 114 1000 l 838 1000 l 793 758 l 572 758 l 435 0 z "},"У":{"ha":836,"x_min":76,"x_max":961,"o":"m 486 619 l 496 579 l 501 579 q 593 840 542 724 l 593 840 l 663 1000 l 961 1000 l 961 986 l 632 367 q 594 298 608 322 q 549 226 581 274 q 491 149 518 178 q 419 85 464 121 q 330 28 375 49 q 224 -4 285 8 q 94 -14 163 -17 l 94 -14 l 94 246 q 138 242 114 242 l 138 242 q 324 331 254 242 l 324 331 l 76 986 l 76 1000 l 374 1000 l 426 840 q 460 724 443 789 q 486 619 478 658 l 486 619 z "},"Ф":{"ha":1194,"x_min":49,"x_max":1188,"o":"m 49 492 l 49 492 q 94 682 49 599 q 215 815 139 765 q 376 890 290 864 q 553 922 461 917 l 553 922 l 572 1028 l 854 1028 l 831 899 q 1008 833 932 876 q 1136 709 1085 790 q 1188 519 1188 628 q 1141 327 1188 411 q 1019 194 1094 243 q 858 119 943 144 q 683 88 774 93 l 683 88 l 663 -28 l 381 -28 l 406 110 q 149 237 250 143 q 49 492 49 331 z m 901 519 l 901 519 q 789 710 901 664 l 789 710 l 711 281 q 851 362 801 299 q 901 519 901 425 z m 335 492 l 335 492 q 447 300 335 351 l 447 300 l 525 729 q 385 648 435 711 q 335 492 335 585 z "},"Х":{"ha":906,"x_min":-35,"x_max":954,"o":"m 954 986 l 631 504 l 853 14 l 853 0 l 539 0 l 489 156 q 467 237 478 192 q 450 308 456 282 l 450 308 l 444 336 l 439 336 q 360 157 401 236 l 360 157 l 278 0 l -35 0 l -35 14 l 307 528 l 103 986 l 103 1000 l 414 1000 l 453 872 l 500 693 l 506 693 q 579 874 540 793 l 579 874 l 640 1000 l 954 1000 l 954 986 z "},"Ц":{"ha":1032,"x_min":4,"x_max":1010,"o":"m 686 -232 l 703 0 l 4 0 l 186 1000 l 468 1000 l 331 242 l 590 242 l 728 1000 l 1010 1000 l 872 242 l 1001 242 l 915 -232 l 686 -232 z "},"Ч":{"ha":903,"x_min":89,"x_max":936,"o":"m 575 571 l 575 571 l 654 1000 l 936 1000 l 754 0 l 472 0 l 538 357 q 383 328 471 328 l 383 328 q 168 397 247 328 q 89 593 89 467 l 89 593 q 96 672 89 631 l 96 672 l 156 1000 l 438 1000 l 383 701 q 378 646 378 668 l 378 646 q 406 571 378 596 q 481 546 435 546 l 481 546 q 575 571 531 546 z "},"Ш":{"ha":1397,"x_min":4,"x_max":1431,"o":"m 1431 1000 l 1249 0 l 4 0 l 186 1000 l 461 1000 l 324 242 l 533 242 l 668 986 l 943 986 l 808 242 l 1018 242 l 1156 1000 l 1431 1000 z "},"Щ":{"ha":1453,"x_min":4,"x_max":1431,"o":"m 1107 -232 l 1124 0 l 4 0 l 186 1000 l 461 1000 l 324 242 l 533 242 l 668 986 l 943 986 l 808 242 l 1018 242 l 1156 1000 l 1431 1000 l 1293 242 l 1422 242 l 1336 -232 l 1107 -232 z "},"Ъ":{"ha":954,"x_min":69,"x_max":933,"o":"m 69 758 l 114 1000 l 617 1000 l 551 644 l 568 644 q 668 638 621 644 q 765 610 715 631 q 851 559 815 590 q 910 475 888 528 q 933 353 933 422 l 933 353 q 364 0 933 0 l 364 0 l 153 0 l 290 758 l 69 758 z m 647 332 l 647 332 q 613 397 647 381 q 518 413 579 413 l 518 413 l 503 413 l 469 232 l 483 232 q 607 254 567 232 q 647 332 647 276 z "},"Ы":{"ha":1238,"x_min":4,"x_max":1271,"o":"m 4 0 l 186 1000 l 468 1000 l 403 644 l 419 644 q 519 638 472 644 q 617 610 567 631 q 703 559 667 590 q 762 475 739 528 q 785 353 785 422 l 785 353 q 215 0 785 0 l 215 0 l 4 0 z m 499 332 l 499 332 q 465 397 499 381 q 369 413 431 413 l 369 413 l 354 413 l 321 232 l 335 232 q 458 254 418 232 q 499 332 499 276 z m 1089 0 l 807 0 l 989 1000 l 1271 1000 l 1089 0 z "},"Ь":{"ha":806,"x_min":4,"x_max":785,"o":"m 4 0 l 186 1000 l 468 1000 l 403 644 l 419 644 q 519 638 472 644 q 617 610 567 631 q 703 559 667 590 q 762 475 739 528 q 785 353 785 422 l 785 353 q 215 0 785 0 l 215 0 l 4 0 z m 499 332 l 499 332 q 465 397 499 381 q 369 413 431 413 l 369 413 l 354 413 l 321 232 l 335 232 q 458 254 418 232 q 499 332 499 276 z "},"Э":{"ha":883,"x_min":0,"x_max":876,"o":"m 0 58 l 0 58 l 90 258 q 274 218 179 218 l 274 218 q 465 272 389 218 q 571 426 542 326 l 571 426 l 193 410 l 235 635 l 586 617 q 516 744 572 700 q 365 789 460 789 l 365 789 q 194 756 269 789 l 194 756 l 124 957 q 406 1014 263 1014 l 406 1014 q 753 894 631 1014 q 876 564 876 775 l 876 564 q 719 144 876 301 q 299 -14 561 -14 l 299 -14 q 0 58 125 -14 z "},"Ю":{"ha":1419,"x_min":4,"x_max":1413,"o":"m 1014 1014 l 1014 1014 q 1308 885 1204 1014 q 1413 567 1413 757 l 1413 567 q 1350 281 1413 411 q 1165 68 1288 150 q 885 -14 1043 -14 l 885 -14 q 599 104 707 -14 q 483 406 490 222 l 483 406 l 360 406 l 286 0 l 4 0 l 186 1000 l 468 1000 l 403 642 l 518 642 q 708 910 576 807 q 1014 1014 840 1014 z m 986 796 l 986 796 q 885 760 929 796 q 817 668 840 725 q 781 549 793 611 q 769 424 769 486 l 769 424 q 805 266 769 328 q 918 204 840 204 l 918 204 q 1016 240 974 204 q 1081 334 1058 276 q 1115 453 1104 392 q 1126 578 1126 515 l 1126 578 q 1094 735 1126 674 q 986 796 1061 796 z "},"Я":{"ha":964,"x_min":-62,"x_max":997,"o":"m 601 563 l 601 563 l 636 563 l 679 800 l 644 800 q 594 799 615 800 q 544 790 574 797 q 497 772 515 783 q 464 735 478 760 q 450 678 450 711 l 450 678 q 601 563 450 563 z m 701 1000 l 997 1000 l 815 0 l 533 0 l 599 363 l 585 363 l 285 0 l -62 0 l -62 14 l 176 303 q 235 370 215 350 q 297 413 256 390 q 389 438 338 435 l 389 438 l 390 443 q 224 519 286 456 q 163 679 163 583 l 163 679 q 197 822 163 761 q 284 915 232 882 q 413 969 336 949 q 556 994 490 989 q 701 1000 622 1000 l 701 1000 z "},"а":{"ha":818,"x_min":14,"x_max":821,"o":"m 513 515 l 513 515 l 518 546 q 468 560 497 560 l 468 560 q 344 460 396 560 q 292 269 292 360 l 292 269 q 324 215 292 215 l 324 215 q 431 303 374 215 q 513 515 489 390 z m 729 750 l 729 750 l 821 750 l 719 206 q 725 35 699 93 l 725 35 l 467 -14 q 453 119 438 42 l 453 119 l 460 157 l 454 157 q 213 -14 363 -14 l 213 -14 q 63 58 111 -14 q 14 240 14 129 l 14 240 q 140 594 14 438 q 443 750 267 750 l 443 750 q 592 708 531 750 l 592 708 q 629 738 606 728 q 672 749 653 747 q 729 750 690 750 z "},"б":{"ha":833,"x_min":63,"x_max":819,"o":"m 413 -14 l 413 -14 q 213 45 293 -14 q 97 195 132 104 q 63 403 63 286 l 63 403 q 92 640 63 529 q 181 840 122 750 q 336 983 239 929 q 558 1042 433 1036 l 558 1042 l 696 1047 q 819 1058 782 1050 l 819 1058 l 786 868 q 711 807 776 807 l 711 807 l 588 803 q 370 748 446 799 q 253 564 294 697 l 253 564 l 258 561 q 488 669 344 669 q 710 581 631 669 q 790 344 790 492 l 790 344 q 685 82 790 178 q 413 -14 579 -14 z m 442 478 l 442 478 q 369 426 396 478 q 343 301 343 374 l 343 301 q 360 212 343 246 q 411 178 378 178 l 411 178 q 484 228 458 178 q 510 349 510 279 l 510 349 q 492 442 510 406 q 442 478 475 478 z "},"в":{"ha":786,"x_min":24,"x_max":738,"o":"m 364 569 l 364 569 l 342 450 q 464 522 464 453 l 464 522 q 397 572 464 572 l 397 572 q 364 569 381 572 z m 314 303 l 314 303 l 304 250 q 361 172 290 172 l 361 172 q 424 191 397 172 q 450 247 450 210 l 450 247 q 367 310 450 310 l 367 310 q 314 303 339 310 z m 24 189 l 24 189 l 124 725 q 401 750 258 750 l 401 750 q 738 567 738 750 l 738 567 q 676 442 738 490 q 533 390 614 394 l 533 390 l 532 385 q 666 343 608 381 q 724 228 724 306 l 724 228 q 662 92 724 149 q 512 10 600 35 q 324 -14 424 -14 l 324 -14 q 163 5 232 -14 q 51 71 93 24 q 24 189 10 118 z "},"г":{"ha":668,"x_min":0,"x_max":654,"o":"m 528 256 l 528 256 l 618 94 q 271 -14 465 -14 l 271 -14 q 74 35 149 -14 q 0 179 0 83 l 0 179 q 194 414 0 329 l 194 414 q 247 435 215 424 q 297 453 278 446 q 336 469 317 460 q 365 491 356 479 q 374 518 374 503 l 374 518 q 304 558 374 558 l 304 558 q 143 518 221 558 l 143 518 l 76 681 q 378 750 225 750 l 378 750 q 578 701 503 750 q 654 549 654 653 l 654 549 q 616 430 654 479 q 522 356 578 381 q 412 313 467 331 q 319 273 357 294 q 281 224 281 251 l 281 224 q 336 185 281 185 l 336 185 q 439 207 383 185 q 528 256 494 229 z "},"д":{"ha":800,"x_min":28,"x_max":758,"o":"m 344 -14 l 344 -14 q 114 79 200 -14 q 28 303 28 172 l 28 303 q 135 563 28 456 q 397 669 242 669 l 397 669 q 592 586 518 669 l 592 586 l 597 588 q 547 703 586 658 q 457 765 507 749 q 350 790 407 781 q 246 803 293 800 q 166 822 199 806 q 131 869 133 838 l 131 869 l 114 1060 l 131 1069 q 214 1033 157 1046 q 334 1010 271 1019 q 464 983 397 1000 q 592 924 531 967 q 692 811 654 881 l 692 811 q 758 494 758 688 l 758 494 q 643 112 758 238 q 344 -14 528 -14 z m 308 311 l 308 311 q 326 217 308 256 q 382 178 343 178 l 382 178 q 455 225 432 178 q 478 333 478 272 l 478 333 q 404 478 478 478 l 404 478 q 332 426 356 478 q 308 311 308 375 z "},"е":{"ha":743,"x_min":14,"x_max":718,"o":"m 428 565 l 428 565 q 347 528 381 565 q 303 413 313 490 l 303 413 l 425 453 q 476 517 476 469 l 476 517 q 464 551 476 538 q 428 565 451 565 z m 589 260 l 589 260 l 681 113 q 342 -14 543 -14 l 342 -14 q 94 72 175 -14 q 14 290 14 158 l 14 290 q 139 610 14 469 q 454 750 264 750 l 454 750 q 647 684 576 750 q 718 504 718 618 l 718 504 q 701 389 718 451 l 701 389 l 296 274 q 419 192 319 192 l 419 192 q 589 260 514 192 z "},"ж":{"ha":1258,"x_min":-69,"x_max":1272,"o":"m 825 614 l 825 614 l 715 25 l 450 -14 l 435 0 l 539 560 q 535 722 558 657 l 535 722 l 704 747 q 813 721 789 760 q 825 614 838 682 z m 896 64 l 896 64 l 785 361 l 988 658 q 1110 750 1044 742 l 1110 750 l 1272 647 l 1269 640 q 1197 598 1233 633 q 1114 501 1161 563 l 1114 501 l 1049 417 l 1201 28 l 1197 21 l 1035 -10 q 943 -3 972 -21 q 896 64 914 14 z m 354 632 l 494 361 l 307 90 q 252 40 286 60 q 187 9 218 19 q 105 -7 156 -1 q 24 -13 54 -12 q -62 -14 -7 -14 l -62 -14 l -69 -1 l 246 440 l 203 501 q 67 614 140 589 l 67 614 l 65 621 l 221 750 q 354 632 300 739 l 354 632 z "},"з":{"ha":714,"x_min":-28,"x_max":679,"o":"m -28 99 l -28 99 l 54 260 q 265 185 151 185 l 265 185 q 367 249 367 185 l 367 249 q 293 296 367 296 l 293 296 l 196 296 l 226 457 l 304 457 q 399 510 399 457 l 399 510 q 324 558 399 558 l 324 558 q 146 517 236 558 l 146 517 l 75 679 q 392 750 240 750 l 392 750 q 490 742 444 750 q 581 716 536 735 q 653 658 626 697 q 679 563 679 618 l 679 563 q 625 439 679 486 q 493 383 571 392 l 493 383 l 492 378 q 605 326 563 365 q 647 218 647 286 l 647 218 q 543 47 647 107 q 294 -14 439 -14 l 294 -14 q -28 99 89 -14 z "},"и":{"ha":789,"x_min":31,"x_max":789,"o":"m 88 722 l 88 722 l 257 747 q 363 724 335 758 q 378 614 392 689 l 378 614 l 318 297 q 313 246 313 269 l 313 246 q 325 215 313 215 l 325 215 q 402 303 356 215 q 464 472 449 392 l 464 472 l 508 711 l 774 750 l 789 736 l 690 206 q 696 35 671 96 l 696 35 l 438 -14 q 424 119 410 42 l 424 119 l 431 157 l 425 157 q 178 -14 328 -14 l 178 -14 q 65 41 100 -14 q 31 178 31 96 l 31 178 q 43 299 31 236 l 43 299 l 92 560 q 88 722 110 657 z "},"й":{"ha":789,"x_min":31,"x_max":789,"o":"m 88 722 l 88 722 l 257 747 q 363 724 335 758 q 378 614 392 689 l 378 614 l 318 297 q 313 246 313 269 l 313 246 q 325 215 313 215 l 325 215 q 402 303 356 215 q 464 472 449 392 l 464 472 l 508 711 l 774 750 l 789 736 l 690 206 q 696 35 671 96 l 696 35 l 438 -14 q 424 119 410 42 l 424 119 l 431 157 l 425 157 q 178 -14 328 -14 l 178 -14 q 65 41 100 -14 q 31 178 31 96 l 31 178 q 43 299 31 236 l 43 299 l 92 560 q 88 722 110 657 z m 256 1068 l 256 1068 l 381 1068 q 379 1042 379 1056 l 379 1042 q 400 969 379 996 q 457 943 421 943 l 457 943 q 529 978 500 943 q 565 1068 558 1014 l 565 1068 l 690 1068 q 610 893 679 958 q 444 828 542 828 l 444 828 q 310 882 365 828 q 254 1033 254 936 l 254 1033 q 256 1068 254 1051 z "},"к":{"ha":824,"x_min":-6,"x_max":838,"o":"m 385 614 l 385 614 l 275 25 l 10 -14 l -6 0 l 99 560 q 94 722 118 657 l 94 722 l 264 747 q 373 721 349 760 q 385 614 397 682 z m 461 64 l 461 64 l 350 361 l 553 658 q 675 750 610 742 l 675 750 l 838 647 l 835 640 q 763 598 799 633 q 679 501 726 563 l 679 501 l 614 417 l 767 28 l 763 21 l 600 -10 q 508 -3 538 -21 q 461 64 479 14 z "},"л":{"ha":833,"x_min":-51,"x_max":835,"o":"m 740 35 l 740 35 l 468 -14 q 453 171 432 56 l 453 171 l 518 521 l 419 521 l 372 285 q 263 78 346 150 q 33 -14 179 6 l 33 -14 l -51 214 q 126 364 101 240 l 126 364 l 200 736 l 835 736 l 735 206 q 740 35 714 99 z "},"м":{"ha":1163,"x_min":-51,"x_max":1164,"o":"m 653 507 l 756 692 l 1149 750 l 1164 736 l 1064 206 q 1069 35 1044 97 l 1069 35 l 804 -14 q 789 171 768 56 l 789 171 l 850 499 l 844 499 q 738 261 796 365 l 738 261 l 600 17 l 397 -14 l 382 0 l 367 251 q 365 366 364 311 q 369 460 367 421 l 369 460 l 372 499 l 367 499 l 313 225 q 33 -14 272 22 l 33 -14 l -51 214 q 101 382 75 249 l 101 382 l 163 696 l 526 750 l 542 736 l 556 518 q 556 389 558 453 q 547 278 553 325 l 547 278 l 543 232 l 549 232 q 653 507 593 399 l 653 507 z "},"н":{"ha":796,"x_min":-6,"x_max":796,"o":"m 703 35 l 703 35 l 431 -14 q 415 171 393 54 l 415 171 l 436 282 l 322 282 l 275 25 l 10 -14 l -6 0 l 99 560 q 94 722 118 661 l 94 722 l 264 747 q 369 724 340 758 q 385 614 399 689 l 385 614 l 363 497 l 476 497 l 515 711 l 781 750 l 796 736 l 697 206 q 703 35 676 97 z "},"о":{"ha":792,"x_min":31,"x_max":761,"o":"m 311 333 l 311 333 q 375 178 311 178 l 375 178 q 453 246 426 178 q 481 408 481 314 l 481 408 q 418 558 481 558 l 418 558 q 338 492 365 558 q 311 333 311 426 z m 365 -14 l 365 -14 q 122 87 213 -14 q 31 350 31 188 l 31 350 q 149 642 31 533 q 429 750 267 750 l 429 750 q 668 656 575 750 q 761 386 761 563 q 649 98 761 210 q 365 -14 536 -14 z "},"п":{"ha":792,"x_min":-6,"x_max":760,"o":"m 703 35 l 703 35 l 431 -14 q 415 171 392 58 l 415 171 l 472 439 q 479 492 479 467 l 479 492 q 465 521 479 521 l 465 521 q 385 432 435 521 q 319 264 335 343 l 319 264 l 275 25 l 10 -14 l -6 0 l 99 560 q 94 724 117 660 l 94 724 l 254 747 q 351 720 331 758 q 360 617 372 682 l 360 617 l 353 579 l 358 579 q 613 750 456 750 l 613 750 q 726 694 692 750 q 760 551 760 638 l 760 551 q 747 438 760 497 l 747 438 l 697 206 q 703 35 674 101 z "},"р":{"ha":833,"x_min":-33,"x_max":808,"o":"m 315 235 l 315 235 l 307 188 q 346 185 324 185 l 346 185 q 441 215 401 185 q 497 292 481 244 q 521 376 514 339 q 528 447 528 414 l 528 447 q 496 521 528 521 l 496 521 q 385 424 439 521 q 315 235 332 328 z m 263 -243 l 263 -243 l -10 -292 q -33 -211 -31 -250 q -22 -93 -36 -172 l -22 -93 l 100 560 q 96 724 117 663 l 96 724 l 256 747 q 337 736 310 756 q 365 685 364 717 q 361 617 365 653 l 361 617 l 354 579 l 360 579 q 617 750 458 750 l 617 750 q 763 667 718 750 q 808 468 808 585 l 808 468 q 672 117 808 247 q 326 -14 536 -14 l 326 -14 q 269 -11 294 -14 l 269 -11 l 254 -93 q 263 -243 238 -183 z "},"с":{"ha":661,"x_min":14,"x_max":675,"o":"m 517 271 l 517 271 l 622 128 q 313 -14 500 -14 l 313 -14 q 90 72 167 -14 q 14 285 14 157 l 14 285 q 145 609 14 468 q 461 750 276 750 l 461 750 q 675 679 583 750 l 675 679 l 592 521 q 493 551 544 551 l 493 551 q 351 476 407 551 q 294 310 294 400 l 294 310 q 389 199 294 199 l 389 199 q 517 271 458 199 z "},"т":{"ha":1167,"x_min":-6,"x_max":1138,"o":"m 1122 438 l 1122 438 l 1072 206 q 1078 35 1050 100 l 1078 35 l 813 -14 q 797 171 774 60 l 797 171 l 854 439 q 847 521 872 521 l 847 521 q 767 433 817 521 q 701 264 717 346 l 701 264 l 657 25 l 399 -14 l 383 0 l 465 439 q 458 521 481 521 l 458 521 q 378 433 428 521 q 313 264 328 346 l 313 264 l 268 25 l 10 -14 l -6 0 l 99 560 q 94 724 117 658 l 94 724 l 247 747 q 331 735 303 756 q 357 681 358 714 q 353 617 356 649 l 353 617 l 346 579 l 351 579 q 465 706 399 663 q 597 750 531 750 l 597 750 q 735 593 735 750 l 735 593 l 735 579 l 740 579 q 856 708 789 665 q 989 750 922 750 l 989 750 q 1103 696 1068 750 q 1138 561 1138 642 l 1138 561 q 1122 438 1138 504 z "},"у":{"ha":771,"x_min":-69,"x_max":771,"o":"m -69 -244 l -69 -244 l 19 -29 q 135 -53 72 -64 q 242 1 199 -43 l 242 1 l 92 497 q 17 676 54 622 l 17 676 l 131 724 q 236 750 194 750 l 236 750 q 338 650 314 750 l 338 650 l 424 272 l 429 272 q 517 571 517 453 l 517 571 q 492 681 517 631 l 492 681 l 697 764 q 771 578 771 682 l 771 578 q 708 348 771 493 q 551 60 646 203 q 330 -187 457 -83 q 90 -292 203 -292 l 90 -292 q -69 -244 -4 -292 z "},"ф":{"ha":1213,"x_min":14,"x_max":1188,"o":"m 761 603 l 750 579 l 756 579 q 999 750 856 750 l 999 750 q 1113 706 1068 750 q 1172 601 1157 661 q 1188 468 1188 542 l 1188 468 q 1057 117 1188 249 q 722 -14 926 -14 l 722 -14 q 665 -11 693 -14 l 665 -11 l 650 -93 q 658 -243 633 -183 l 658 -243 l 386 -292 q 363 -214 367 -251 q 374 -93 360 -176 l 374 -93 l 388 -17 q 409 66 394 22 q 435 133 424 110 l 435 133 l 446 157 l 440 157 q 210 -14 349 -14 l 210 -14 q 64 56 114 -14 q 14 240 14 126 l 14 240 q 137 597 14 444 q 440 750 260 750 l 440 750 q 529 739 493 750 l 529 739 l 553 865 q 549 1028 569 961 l 549 1028 l 718 1053 q 828 1026 804 1065 q 839 919 851 986 l 839 919 l 806 743 q 785 666 799 707 q 761 603 771 625 l 761 603 z m 704 235 l 704 235 l 696 188 q 735 182 713 182 l 735 182 q 838 232 797 182 q 892 338 879 282 q 906 447 906 393 l 906 447 q 874 521 906 521 l 874 521 q 775 424 829 521 q 704 235 721 328 z m 499 515 l 499 515 l 506 551 q 465 560 488 560 l 465 560 q 385 527 421 560 q 331 447 350 494 q 301 352 311 399 q 292 269 292 306 l 292 269 q 324 215 292 215 l 324 215 q 418 298 364 215 q 499 515 472 381 z "},"х":{"ha":764,"x_min":-39,"x_max":785,"o":"m 158 321 l 158 321 l 211 379 l 143 540 q 58 664 106 628 l 58 664 l 178 725 q 275 750 228 750 l 275 750 q 385 668 350 750 l 385 668 l 438 542 l 443 542 l 485 600 q 592 717 543 683 q 707 750 640 750 l 707 750 l 785 543 q 692 501 731 528 q 603 418 653 474 l 603 418 l 550 360 l 696 14 l 696 0 l 407 0 l 324 197 l 318 197 l 276 139 q 163 22 218 58 q 39 -14 108 -14 l 39 -14 l -39 193 q 158 321 68 221 z "},"ц":{"ha":882,"x_min":31,"x_max":854,"o":"m 88 722 l 88 722 l 257 747 q 363 724 335 758 q 378 614 392 689 l 378 614 l 318 297 q 313 246 313 269 l 313 246 q 325 215 313 215 l 325 215 q 402 303 356 215 q 464 472 449 392 l 464 472 l 508 711 l 774 750 l 789 736 l 682 164 l 778 178 q 849 158 829 185 q 854 85 869 131 l 854 85 l 768 -181 l 579 -207 l 575 -203 l 617 19 l 438 -14 q 424 119 410 42 l 424 119 l 431 157 l 425 157 q 178 -14 328 -14 l 178 -14 q 65 41 100 -14 q 31 178 31 96 l 31 178 q 43 299 31 236 l 43 299 l 92 560 q 88 722 110 657 z "},"ч":{"ha":776,"x_min":56,"x_max":776,"o":"m 683 35 l 683 35 l 411 -14 q 396 171 374 53 l 396 171 l 408 238 q 442 336 415 283 l 442 336 l 436 336 q 338 240 397 274 q 214 207 278 207 l 214 207 q 127 231 163 207 q 76 291 92 254 q 56 374 61 328 q 61 463 51 419 l 61 463 l 79 561 q 75 722 97 658 l 75 722 l 244 747 q 351 724 322 758 q 365 615 379 689 l 365 615 l 342 488 q 368 436 332 436 l 368 436 q 381 438 375 436 q 402 448 388 439 q 428 473 417 457 q 454 524 440 489 q 476 606 468 558 l 476 606 l 496 711 l 761 750 l 776 736 l 678 206 q 683 35 658 99 z "},"ш":{"ha":1157,"x_min":31,"x_max":1157,"o":"m 501 711 l 760 750 l 775 736 l 693 297 q 686 246 686 256 l 686 246 q 700 215 686 215 l 700 215 q 778 306 732 215 q 839 472 825 396 l 839 472 l 883 711 l 1142 750 l 1157 736 l 1058 206 q 1064 35 1039 99 l 1064 35 l 813 -14 q 799 119 785 43 l 799 119 l 806 157 l 800 157 q 558 -14 703 -14 l 558 -14 q 453 33 486 -14 q 424 157 419 81 l 424 157 l 418 157 q 174 -14 322 -14 l 174 -14 q 31 182 31 -14 l 31 182 q 43 299 31 231 l 43 299 l 92 560 q 88 722 110 656 l 88 722 l 250 747 q 357 724 329 760 q 371 614 385 688 l 371 614 l 311 297 q 304 244 304 256 l 304 244 q 318 215 304 215 l 318 215 q 395 304 349 215 q 457 472 442 393 l 457 472 l 501 711 z "},"щ":{"ha":1250,"x_min":31,"x_max":1222,"o":"m 501 711 l 760 750 l 775 736 l 693 297 q 686 246 686 256 l 686 246 q 700 215 686 215 l 700 215 q 778 306 732 215 q 839 472 825 396 l 839 472 l 883 711 l 1142 750 l 1157 736 l 1050 164 l 1146 178 q 1217 158 1197 185 q 1222 85 1238 131 l 1222 85 l 1136 -181 l 947 -207 l 943 -203 l 985 19 l 813 -14 q 799 119 785 43 l 799 119 l 806 157 l 800 157 q 558 -14 703 -14 l 558 -14 q 453 33 486 -14 q 424 157 419 81 l 424 157 l 418 157 q 174 -14 322 -14 l 174 -14 q 31 182 31 -14 l 31 182 q 43 299 31 231 l 43 299 l 92 560 q 88 722 110 656 l 88 722 l 250 747 q 357 724 329 760 q 371 614 385 688 l 371 614 l 311 297 q 304 244 304 256 l 304 244 q 318 215 304 215 l 318 215 q 395 304 349 215 q 457 472 442 393 l 457 472 l 501 711 z "},"ъ":{"ha":913,"x_min":42,"x_max":882,"o":"m 233 521 l 42 521 l 82 736 l 550 736 l 503 485 q 638 500 572 500 l 638 500 q 810 453 739 500 q 882 299 882 406 l 882 299 q 808 125 882 199 q 630 19 733 51 q 417 -14 526 -14 l 417 -14 q 216 24 285 -14 q 164 149 147 61 l 164 149 l 233 521 z m 461 300 l 461 300 l 446 219 q 489 172 436 172 l 489 172 q 565 192 529 172 q 601 258 601 213 l 601 258 q 528 317 601 317 l 528 317 q 461 300 492 317 z "},"ы":{"ha":1179,"x_min":22,"x_max":1157,"o":"m 1086 35 l 1086 35 l 814 -14 q 799 171 776 50 l 799 171 l 871 560 q 867 722 888 654 l 867 722 l 1036 747 q 1145 722 1119 760 q 1157 614 1171 683 l 1157 614 l 1081 206 q 1086 35 1060 100 z m 94 722 l 94 722 l 264 747 q 374 719 350 760 q 385 614 397 679 l 385 614 l 361 485 q 496 500 431 500 l 496 500 q 669 453 597 500 q 740 299 740 406 l 740 299 q 666 125 740 199 q 488 19 592 51 q 275 -14 385 -14 l 275 -14 q 74 24 143 -14 q 22 149 6 61 l 22 149 l 99 560 q 94 722 118 657 z m 386 317 l 386 317 q 319 300 350 317 l 319 300 l 304 219 q 347 172 294 172 l 347 172 q 424 192 388 172 q 460 258 460 213 l 460 258 q 386 317 460 317 z "},"ь":{"ha":771,"x_min":22,"x_max":740,"o":"m 94 722 l 94 722 l 264 747 q 374 719 350 760 q 385 614 397 679 l 385 614 l 361 485 q 496 500 431 500 l 496 500 q 669 453 597 500 q 740 299 740 406 l 740 299 q 666 125 740 199 q 488 19 592 51 q 275 -14 385 -14 l 275 -14 q 74 24 143 -14 q 22 149 6 61 l 22 149 l 99 560 q 94 722 118 657 z m 386 317 l 386 317 q 319 300 350 317 l 319 300 l 304 219 q 347 172 294 172 l 347 172 q 424 192 388 172 q 460 258 460 213 l 460 258 q 386 317 460 317 z "},"э":{"ha":715,"x_min":-3,"x_max":685,"o":"m -3 75 l -3 75 l 74 235 q 231 192 147 192 l 231 192 q 335 219 289 192 q 397 303 381 246 l 397 303 l 174 293 l 207 469 l 406 461 q 258 558 385 558 l 258 558 q 138 531 190 558 l 138 531 l 78 693 q 335 750 203 750 l 335 750 q 586 656 488 750 q 685 392 685 563 l 685 392 q 557 97 685 207 q 258 -14 429 -14 l 258 -14 q -3 75 101 -14 z "},"ю":{"ha":1160,"x_min":26,"x_max":1129,"o":"m 314 35 l 314 35 l 42 -14 q 26 171 4 50 l 26 171 l 99 560 q 94 722 115 654 l 94 722 l 264 747 q 373 722 347 760 q 385 614 399 683 l 385 614 l 363 497 l 454 497 q 595 683 496 615 q 811 750 694 750 l 811 750 q 1040 656 951 750 q 1129 386 1129 563 q 1022 98 1129 210 q 750 -14 914 -14 l 750 -14 q 535 67 619 -14 q 433 282 451 147 l 433 282 l 322 282 l 308 206 q 314 35 288 100 z m 703 349 l 703 349 q 764 178 703 178 l 764 178 q 835 247 814 178 q 856 394 856 315 l 856 394 q 796 558 856 558 l 796 558 q 749 535 768 558 q 720 476 729 513 q 707 409 711 440 q 703 349 703 378 z "},"я":{"ha":842,"x_min":-69,"x_max":842,"o":"m 482 433 l 482 433 l 510 433 l 536 572 l 508 572 q 467 570 485 572 q 428 562 450 568 q 395 540 407 556 q 383 499 383 524 l 383 499 q 482 433 383 433 z m 749 35 l 749 35 l 476 -14 q 461 171 440 56 l 461 171 l 481 278 l 467 278 l 324 90 q 210 6 274 25 q 56 -14 147 -14 l 56 -14 l -57 -14 l -69 7 l 107 238 q 279 322 168 317 l 279 322 l 281 328 q 154 385 200 336 q 108 507 108 435 l 108 507 q 142 626 108 576 q 231 702 175 676 q 347 739 288 728 q 471 750 406 750 l 471 750 q 654 725 560 750 l 654 725 l 826 750 l 842 736 l 743 206 q 749 35 724 97 z "},"ё":{"ha":743,"x_min":14,"x_max":718,"o":"m 349 958 l 349 958 q 319 858 349 889 q 219 828 290 828 l 219 828 q 149 851 171 828 q 126 926 126 875 l 126 926 q 156 1020 126 990 q 257 1050 186 1050 l 257 1050 q 326 1028 304 1050 q 349 958 349 1007 z m 679 958 l 679 958 q 650 858 679 889 q 550 828 621 828 l 550 828 q 479 851 501 828 q 457 926 457 875 l 457 926 q 487 1020 457 990 q 588 1050 517 1050 l 588 1050 q 657 1028 635 1050 q 679 958 679 1007 z m 428 565 l 428 565 q 347 528 381 565 q 303 413 313 490 l 303 413 l 425 453 q 476 517 476 469 l 476 517 q 464 551 476 538 q 428 565 451 565 z m 589 260 l 589 260 l 681 113 q 342 -14 543 -14 l 342 -14 q 94 72 175 -14 q 14 290 14 158 l 14 290 q 139 610 14 469 q 454 750 264 750 l 454 750 q 647 684 576 750 q 718 504 718 618 l 718 504 q 701 389 718 451 l 701 389 l 296 274 q 419 192 319 192 l 419 192 q 589 260 514 192 z "},"ђ":{"ha":846,"x_min":4,"x_max":790,"o":"m 324 233 l 324 233 l 285 25 l 19 -14 l 4 0 l 151 790 l 64 790 l 81 881 l 172 921 q 161 1028 176 983 l 161 1028 l 331 1053 q 439 1026 415 1065 q 451 922 463 988 l 451 922 l 621 922 l 596 790 l 428 790 l 413 710 q 394 635 407 676 q 372 569 382 594 l 372 569 l 363 544 l 368 544 q 472 667 410 618 q 603 715 535 715 l 603 715 q 697 683 657 715 q 755 600 736 651 q 782 499 774 549 q 790 400 790 450 l 790 400 q 781 231 790 311 q 738 55 771 150 q 650 -110 704 -40 q 497 -232 596 -181 q 268 -292 399 -283 l 268 -292 l 222 -97 q 510 367 510 -43 l 510 367 q 475 486 510 486 l 475 486 q 389 396 442 486 q 324 233 336 306 z "},"ѓ":{"ha":668,"x_min":0,"x_max":654,"o":"m 528 256 l 528 256 l 618 94 q 271 -14 465 -14 l 271 -14 q 74 35 149 -14 q 0 179 0 83 l 0 179 q 194 414 0 329 l 194 414 q 247 435 215 424 q 297 453 278 446 q 336 469 317 460 q 365 491 356 479 q 374 518 374 503 l 374 518 q 304 558 374 558 l 304 558 q 143 518 221 558 l 143 518 l 76 681 q 378 750 225 750 l 378 750 q 578 701 503 750 q 654 549 654 653 l 654 549 q 616 430 654 479 q 522 356 578 381 q 412 313 467 331 q 319 273 357 294 q 281 224 281 251 l 281 224 q 336 185 281 185 l 336 185 q 439 207 383 185 q 528 256 494 229 z m 363 807 l 283 889 l 504 1131 l 600 1031 l 363 807 z "},"є":{"ha":700,"x_min":14,"x_max":700,"o":"m 547 264 l 547 264 l 647 128 q 325 -14 521 -14 l 325 -14 q 93 72 172 -14 q 14 285 14 157 l 14 285 q 151 609 14 468 q 479 750 288 750 l 479 750 q 700 679 606 750 l 700 679 l 619 528 q 503 558 568 558 l 503 558 q 331 461 385 558 l 331 461 l 540 469 l 507 293 l 288 301 q 322 219 289 247 q 403 192 354 192 l 403 192 q 547 264 488 192 z "},"ѕ":{"ha":639,"x_min":-35,"x_max":625,"o":"m -35 69 l -35 69 l 47 229 q 229 178 135 178 l 229 178 q 299 190 271 178 q 328 225 328 203 l 328 225 q 312 251 328 242 q 256 274 296 261 q 197 296 217 288 l 197 296 q 60 496 60 357 l 60 496 q 152 686 60 622 q 374 750 244 750 l 374 750 q 625 671 529 750 l 625 671 l 544 518 q 390 565 472 565 l 390 565 q 306 526 306 565 l 306 526 q 328 494 306 507 q 397 467 350 482 q 472 438 444 451 l 472 438 q 588 250 588 381 l 588 250 q 483 54 588 122 q 240 -14 379 -14 l 240 -14 q -35 69 69 -14 z "},"і":{"ha":408,"x_min":28,"x_max":431,"o":"m 315 35 l 315 35 l 43 -14 q 28 171 6 50 l 28 171 l 100 560 q 96 722 117 654 l 96 722 l 265 747 q 374 722 349 760 q 386 614 400 683 l 386 614 l 310 206 q 315 35 289 100 z m 153 936 l 153 936 q 190 1059 153 1021 q 314 1097 228 1097 l 314 1097 q 402 1074 374 1097 q 431 993 431 1051 l 431 993 q 395 868 431 908 q 271 828 360 828 l 271 828 q 183 852 213 828 q 153 936 153 876 z "},"ї":{"ha":408,"x_min":-8,"x_max":544,"o":"m 214 958 l 214 958 q 185 858 214 889 q 85 828 156 828 l 85 828 q 14 851 36 828 q -8 926 -8 875 l -8 926 q 22 1020 -8 990 q 122 1050 51 1050 l 122 1050 q 192 1028 169 1050 q 214 958 214 1007 z m 544 958 l 544 958 q 515 858 544 889 q 415 828 486 828 l 415 828 q 344 851 367 828 q 322 926 322 875 l 322 926 q 352 1020 322 990 q 453 1050 382 1050 l 453 1050 q 522 1028 500 1050 q 544 958 544 1007 z m 315 35 l 315 35 l 43 -14 q 28 171 6 50 l 28 171 l 100 560 q 96 722 117 654 l 96 722 l 265 747 q 374 722 349 760 q 386 614 400 683 l 386 614 l 310 206 q 315 35 289 100 z "},"ј":{"ha":411,"x_min":-200,"x_max":424,"o":"m -154 -292 l -154 -292 l -200 -97 q -147 -83 -164 -87 q -97 -64 -131 -79 q -47 -31 -64 -49 q -10 20 -29 -12 q 17 96 8 53 l 17 96 l 103 560 q 99 722 119 651 l 99 722 l 268 747 q 377 721 353 760 q 389 614 401 682 l 389 614 l 274 -3 q -154 -292 224 -269 z m 146 935 l 146 935 q 183 1058 146 1019 q 307 1097 221 1097 l 307 1097 q 395 1074 367 1097 q 424 992 424 1050 l 424 992 q 388 865 424 906 q 264 825 353 825 l 264 825 q 176 850 206 825 q 146 935 146 875 z "},"љ":{"ha":1174,"x_min":-51,"x_max":1143,"o":"m 511 521 l 419 521 l 372 285 q 263 78 346 150 q 33 -14 179 6 l 33 -14 l -51 214 q 126 364 101 240 l 126 364 l 200 736 l 828 736 l 781 485 q 911 500 850 500 l 911 500 q 1075 453 1007 500 q 1143 299 1143 406 l 1143 299 q 1072 125 1143 199 q 902 19 1001 51 q 696 -14 803 -14 l 696 -14 q 496 24 564 -14 q 443 149 428 61 l 443 149 l 511 521 z m 740 300 l 740 300 l 725 219 q 768 172 715 172 l 768 172 q 838 192 806 172 q 869 258 869 213 l 869 258 q 804 317 869 317 l 804 317 q 740 300 769 317 z "},"њ":{"ha":1135,"x_min":-6,"x_max":1104,"o":"m 429 282 l 322 282 l 275 25 l 10 -14 l -6 0 l 99 560 q 94 722 118 661 l 94 722 l 264 747 q 369 724 340 758 q 385 614 399 689 l 385 614 l 363 497 l 469 497 l 508 711 l 774 750 l 789 736 l 742 485 q 872 500 811 500 l 872 500 q 1036 453 968 500 q 1104 299 1104 406 l 1104 299 q 1033 125 1104 199 q 863 19 963 51 q 657 -14 764 -14 l 657 -14 q 456 24 525 -14 q 404 149 388 61 l 404 149 l 429 282 z m 701 300 l 701 300 l 686 219 q 729 172 676 172 l 729 172 q 799 192 767 172 q 831 258 831 213 l 831 258 q 765 317 831 317 l 765 317 q 701 300 731 317 z "},"ћ":{"ha":793,"x_min":0,"x_max":760,"o":"m 60 790 l 76 881 l 168 921 q 157 1028 172 981 l 157 1028 l 326 1053 q 435 1027 410 1065 q 447 922 460 989 l 447 922 l 617 922 l 592 790 l 424 790 l 408 710 q 390 635 403 676 q 368 569 378 594 l 368 569 l 358 544 l 364 544 q 614 715 461 715 l 614 715 q 709 684 674 715 q 753 602 744 653 q 760 503 763 551 q 746 403 757 454 l 746 403 l 703 206 q 708 35 679 101 l 708 35 l 436 -14 q 421 171 397 58 l 421 171 l 471 404 q 468 486 489 486 l 468 486 q 386 398 439 486 q 319 233 333 310 l 319 233 l 281 25 l 15 -14 l 0 0 l 147 790 l 60 790 z "},"ќ":{"ha":824,"x_min":-6,"x_max":838,"o":"m 385 614 l 385 614 l 275 25 l 10 -14 l -6 0 l 99 560 q 94 722 118 657 l 94 722 l 264 747 q 373 721 349 760 q 385 614 397 682 z m 461 64 l 461 64 l 350 361 l 553 658 q 675 750 610 742 l 675 750 l 838 647 l 835 640 q 763 598 799 633 q 679 501 726 563 l 679 501 l 614 417 l 767 28 l 763 21 l 600 -10 q 508 -3 538 -21 q 461 64 479 14 z m 475 807 l 396 889 l 617 1131 l 713 1031 l 475 807 z "},"ў":{"ha":771,"x_min":-69,"x_max":771,"o":"m -69 -244 l -69 -244 l 19 -29 q 135 -53 72 -64 q 242 1 199 -43 l 242 1 l 92 497 q 17 676 54 622 l 17 676 l 131 724 q 236 750 194 750 l 236 750 q 338 650 314 750 l 338 650 l 424 272 l 429 272 q 517 571 517 453 l 517 571 q 492 681 517 631 l 492 681 l 697 764 q 771 578 771 682 l 771 578 q 708 348 771 493 q 551 60 646 203 q 330 -187 457 -83 q 90 -292 203 -292 l 90 -292 q -69 -244 -4 -292 z m 228 1068 l 228 1068 l 353 1068 q 351 1042 351 1056 l 351 1042 q 372 969 351 996 q 429 943 393 943 l 429 943 q 501 978 472 943 q 538 1068 531 1014 l 538 1068 l 663 1068 q 583 893 651 958 q 417 828 514 828 l 417 828 q 282 882 338 828 q 226 1033 226 936 l 226 1033 q 228 1068 226 1051 z "},"џ":{"ha":789,"x_min":31,"x_max":789,"o":"m 176 -324 l 221 -90 l 408 -64 l 418 -75 l 342 -306 l 181 -328 l 176 -324 z m 88 722 l 88 722 l 257 747 q 363 724 335 758 q 378 614 392 689 l 378 614 l 318 297 q 313 246 313 269 l 313 246 q 325 215 313 215 l 325 215 q 402 303 356 215 q 464 472 449 392 l 464 472 l 508 711 l 774 750 l 789 736 l 690 206 q 696 35 671 96 l 696 35 l 438 -14 q 424 119 410 42 l 424 119 l 431 157 l 425 157 q 178 -14 328 -14 l 178 -14 q 65 41 100 -14 q 31 178 31 96 l 31 178 q 43 299 31 236 l 43 299 l 92 560 q 88 722 110 657 z "},"Ґ":{"ha":683,"x_min":4,"x_max":818,"o":"m 4 0 l 186 1000 l 539 1000 l 589 1169 l 818 1169 l 743 758 l 424 758 l 286 0 l 4 0 z "},"ґ":{"ha":600,"x_min":-7,"x_max":663,"o":"m -7 0 l 131 736 l 413 736 l 456 886 l 663 886 l 594 521 l 367 521 l 274 25 l 8 -14 l -7 0 z "},"–":{"ha":694,"x_min":26,"x_max":668,"o":"m 668 472 l 638 308 l 26 308 l 57 472 l 668 472 z "},"—":{"ha":1389,"x_min":26,"x_max":1363,"o":"m 1363 472 l 1332 308 l 26 308 l 57 472 l 1363 472 z "},"‘":{"ha":404,"x_min":113,"x_max":488,"o":"m 367 1069 l 367 1069 l 488 981 q 331 567 311 817 l 331 567 q 113 567 221 554 l 113 567 q 167 872 107 753 q 367 1069 228 992 z "},"’":{"ha":415,"x_min":76,"x_max":451,"o":"m 197 546 l 197 546 l 76 635 q 233 1049 253 799 l 233 1049 q 451 1049 342 1061 l 451 1049 q 397 743 457 863 q 197 546 336 624 z "},"‚":{"ha":383,"x_min":-97,"x_max":278,"o":"m 24 -239 l 24 -239 l -97 -150 q 60 264 79 14 l 60 264 q 278 264 168 276 l 278 264 q 223 -42 283 78 q 24 -239 163 -161 z "},"“":{"ha":769,"x_min":113,"x_max":853,"o":"m 732 1069 l 732 1069 l 853 981 q 696 567 676 817 l 696 567 q 478 567 588 554 l 478 567 q 533 872 472 753 q 732 1069 593 992 z m 367 1069 l 367 1069 l 488 981 q 331 567 311 817 l 331 567 q 113 567 221 554 l 113 567 q 167 872 107 753 q 367 1069 228 992 z "},"”":{"ha":781,"x_min":76,"x_max":817,"o":"m 197 546 l 197 546 l 76 635 q 233 1049 253 799 l 233 1049 q 451 1049 342 1061 l 451 1049 q 397 743 457 863 q 197 546 336 624 z m 563 546 l 563 546 l 442 635 q 599 1049 618 799 l 599 1049 q 817 1049 708 1061 l 817 1049 q 762 743 822 863 q 563 546 701 624 z "},"„":{"ha":749,"x_min":-97,"x_max":643,"o":"m 24 -239 l 24 -239 l -97 -150 q 60 264 79 14 l 60 264 q 278 264 168 276 l 278 264 q 223 -42 283 78 q 24 -239 163 -161 z m 389 -239 l 389 -239 l 268 -150 q 425 264 444 14 l 425 264 q 643 264 535 276 l 643 264 q 588 -42 649 78 q 389 -239 528 -161 z "},"†":{"ha":735,"x_min":63,"x_max":760,"o":"m 167 -97 l 304 551 l 63 539 l 97 733 l 339 721 l 378 1000 l 588 1000 l 518 721 l 760 733 l 725 539 l 483 551 l 376 -97 l 167 -97 z "},"‡":{"ha":735,"x_min":-3,"x_max":760,"o":"m 261 361 l 296 551 l 63 539 l 97 733 l 339 721 l 378 1000 l 588 1000 l 518 721 l 760 733 l 725 539 l 496 551 l 461 361 l 694 374 l 660 179 l 417 192 l 376 -97 l 167 -97 l 238 192 l -3 179 l 32 374 l 261 361 z "},"•":{"ha":569,"x_min":57,"x_max":513,"o":"m 118 235 q 57 401 57 296 q 118 568 57 507 q 285 629 179 629 q 451 568 390 629 q 513 401 513 507 q 451 235 513 296 q 285 174 390 174 q 118 235 179 174 z "},"…":{"ha":1281,"x_min":14,"x_max":1172,"o":"m 14 104 l 14 104 q 50 232 14 193 q 174 271 86 271 l 174 271 q 262 246 232 271 q 292 160 292 221 l 292 160 q 257 34 292 75 q 133 -7 222 -7 l 133 -7 q 14 104 14 -7 z m 454 104 l 454 104 q 490 232 454 193 q 614 271 526 271 l 614 271 q 702 246 672 271 q 732 160 732 221 l 732 160 q 697 34 732 75 q 574 -7 663 -7 l 574 -7 q 454 104 454 -7 z m 894 104 l 894 104 q 931 232 894 193 q 1054 271 967 271 l 1054 271 q 1142 246 1113 271 q 1172 160 1172 221 l 1172 160 q 1138 34 1172 75 q 1014 -7 1103 -7 l 1014 -7 q 894 104 894 -7 z "},"‰":{"ha":1829,"x_min":88,"x_max":1776,"o":"m 388 753 l 388 753 q 358 853 388 853 l 358 853 q 306 787 321 853 q 292 649 292 721 l 292 649 q 324 550 292 550 l 324 550 q 388 753 388 550 z m 386 986 l 386 986 q 540 921 489 986 q 592 758 592 856 l 592 758 q 512 517 592 617 q 299 417 432 417 l 299 417 q 143 483 199 417 q 88 651 88 550 l 88 651 q 167 888 88 789 q 386 986 247 986 z m 1015 322 l 1015 322 q 986 422 1015 422 l 986 422 q 934 356 949 422 q 919 218 919 290 l 919 218 q 951 119 919 119 l 951 119 q 1015 322 1015 119 z m 1014 556 l 1014 556 q 1168 490 1117 556 q 1219 328 1219 425 l 1219 328 q 1140 86 1219 186 q 926 -14 1060 -14 l 926 -14 q 771 53 826 -14 q 715 221 715 119 l 715 221 q 795 457 715 358 q 1014 556 875 556 z m 346 -43 l 232 44 l 958 1014 l 1072 926 l 346 -43 z m 1572 322 l 1572 322 q 1543 422 1572 422 l 1543 422 q 1491 356 1506 422 q 1476 218 1476 290 l 1476 218 q 1508 119 1476 119 l 1508 119 q 1572 322 1572 119 z m 1571 556 l 1571 556 q 1725 490 1674 556 q 1776 328 1776 425 l 1776 328 q 1697 86 1776 186 q 1483 -14 1617 -14 l 1483 -14 q 1328 53 1383 -14 q 1272 221 1272 119 l 1272 221 q 1352 457 1272 358 q 1571 556 1432 556 z "},"‹":{"ha":442,"x_min":21,"x_max":435,"o":"m 251 50 l 21 375 l 319 700 l 435 600 l 229 375 l 379 139 l 251 50 z "},"›":{"ha":442,"x_min":4,"x_max":418,"o":"m 188 700 l 418 375 l 119 50 l 4 150 l 210 375 l 60 611 l 188 700 z "},"⁄":{"ha":183,"x_min":-311,"x_max":529,"o":"m -197 -43 l -311 44 l 415 1014 l 529 926 l -197 -43 z "},"⁰":{"ha":593,"x_min":125,"x_max":663,"o":"m 333 897 l 333 897 q 379 776 333 776 l 379 776 q 454 978 454 776 l 454 978 q 410 1079 454 1079 q 349 1020 365 1079 q 333 897 333 961 z m 436 1213 l 436 1213 q 606 1144 549 1213 q 663 978 663 1076 l 663 978 q 576 740 663 836 q 351 643 489 643 l 351 643 q 187 711 249 643 q 125 885 125 779 l 125 885 q 211 1117 125 1022 q 436 1213 297 1213 z "},"⁴":{"ha":581,"x_min":90,"x_max":643,"o":"m 322 653 l 338 739 l 90 739 l 114 871 l 350 1203 l 628 1203 l 569 885 l 643 885 l 617 739 l 543 739 l 528 653 l 322 653 z m 300 883 l 300 878 l 369 878 l 382 943 l 415 1065 l 410 1065 q 351 956 385 1003 l 351 956 l 300 883 z "},"⁵":{"ha":564,"x_min":113,"x_max":626,"o":"m 113 704 l 113 704 l 160 815 q 304 776 224 776 q 385 829 385 776 l 385 829 q 282 875 385 875 l 282 875 q 168 868 219 875 l 168 868 l 164 874 l 224 1203 l 626 1203 l 599 1049 l 317 1049 l 301 967 q 399 978 349 978 l 399 978 q 537 943 481 978 q 593 833 593 908 l 593 833 q 515 692 593 740 q 328 643 438 643 l 328 643 q 113 704 193 643 z "},"⁶":{"ha":535,"x_min":125,"x_max":611,"o":"m 364 908 l 364 908 q 331 882 343 908 q 319 819 319 856 l 319 819 q 349 756 319 756 l 349 756 q 381 781 369 756 q 392 843 392 807 l 392 843 q 364 908 392 908 z m 346 1006 l 346 1006 l 350 1003 q 428 1019 386 1019 l 428 1019 q 542 972 497 1019 q 586 854 586 924 l 586 854 q 519 699 586 756 q 347 643 451 643 l 347 643 q 181 709 238 643 q 125 874 125 775 l 125 874 q 228 1117 125 1022 q 489 1213 331 1213 l 489 1213 q 611 1194 556 1213 l 611 1194 l 579 1082 q 500 1092 543 1092 l 500 1092 q 346 1006 385 1092 z "},"⁷":{"ha":503,"x_min":139,"x_max":628,"o":"m 147 1035 l 178 1203 l 628 1203 l 606 1079 l 260 636 l 139 743 l 418 1029 l 415 1035 l 147 1035 z "},"⁸":{"ha":593,"x_min":125,"x_max":635,"o":"m 349 643 l 349 643 q 187 686 249 643 q 125 792 125 729 l 125 792 q 224 924 125 878 l 224 924 l 224 929 q 169 1033 169 968 l 169 1033 q 242 1165 169 1118 q 425 1213 314 1213 l 425 1213 q 574 1175 513 1213 q 635 1067 635 1138 l 635 1067 q 608 988 635 1022 q 538 939 582 954 l 538 939 l 538 933 q 599 878 579 907 q 618 808 618 850 l 618 808 q 538 688 618 732 q 349 643 458 643 z m 424 789 l 424 789 q 410 813 424 801 q 364 842 396 825 q 318 868 332 860 l 318 868 q 288 811 288 843 l 288 811 q 308 772 288 788 q 364 756 329 756 l 364 756 q 424 789 424 756 z m 411 1100 l 411 1100 q 350 1069 350 1100 l 350 1069 q 365 1044 350 1057 q 411 1013 381 1031 q 449 992 442 996 l 449 992 q 474 1050 474 1022 l 474 1050 q 411 1100 474 1100 z "},"⁹":{"ha":542,"x_min":111,"x_max":611,"o":"m 374 961 l 374 961 q 417 1043 417 961 l 417 1043 q 388 1100 417 1100 l 388 1100 q 344 1019 344 1100 l 344 1019 q 374 961 344 961 z m 390 864 l 390 864 l 386 867 q 308 850 350 850 l 308 850 q 194 895 239 850 q 150 1008 150 940 l 150 1008 q 217 1158 150 1103 q 389 1213 285 1213 l 389 1213 q 555 1147 499 1213 q 611 982 611 1081 l 611 982 q 505 738 611 833 q 240 643 399 643 l 240 643 q 111 661 167 643 l 111 661 l 143 774 q 222 764 174 764 l 222 764 q 390 864 346 764 z "},"ⁿ":{"ha":564,"x_min":58,"x_max":586,"o":"m 556 454 l 556 454 l 354 418 q 350 550 332 468 l 350 550 l 385 714 q 379 769 396 769 l 379 769 q 353 753 368 769 q 319 699 338 738 q 292 610 301 661 l 292 610 l 261 446 l 69 418 l 58 428 l 128 801 q 125 908 139 860 l 125 908 l 236 925 q 315 910 293 933 q 329 842 338 888 l 329 842 l 326 828 l 332 828 q 485 928 390 928 l 485 928 q 581 872 557 928 q 586 728 604 815 l 586 728 l 553 571 q 556 454 538 501 z "},"₀":{"ha":593,"x_min":-25,"x_max":513,"o":"m 183 54 l 183 54 q 229 -67 183 -67 l 229 -67 q 304 135 304 -67 l 304 135 q 260 236 304 236 q 199 177 215 236 q 183 54 183 118 z m 286 369 l 286 369 q 456 301 399 369 q 513 135 513 233 l 513 135 q 426 -103 513 -7 q 201 -200 339 -200 l 201 -200 q 37 -132 99 -200 q -25 42 -25 -64 l -25 42 q 61 274 -25 179 q 286 369 147 369 z "},"₁":{"ha":465,"x_min":7,"x_max":365,"o":"m 146 190 l 14 190 l 7 324 l 258 367 q 347 350 318 376 q 365 268 375 324 l 365 268 l 282 -190 l 76 -190 l 146 190 z "},"₂":{"ha":531,"x_min":-56,"x_max":436,"o":"m 204 -17 l 206 -22 l 419 -22 l 389 -190 l -56 -190 l -32 -67 l 117 49 q 178 99 160 83 q 213 138 197 115 q 228 182 228 160 l 228 182 q 181 221 228 221 l 181 221 q 72 183 122 221 l 72 183 l 8 297 q 244 369 114 369 l 244 369 q 381 330 326 369 q 436 215 436 290 l 436 215 q 404 115 436 154 q 308 42 372 76 l 308 42 l 204 -17 z "},"₃":{"ha":535,"x_min":-56,"x_max":444,"o":"m 76 200 l 76 200 l 24 317 q 254 369 126 369 l 254 369 q 391 338 338 369 q 444 238 444 307 l 444 238 q 399 143 444 179 q 279 100 353 107 l 279 100 l 278 94 q 382 63 339 94 q 425 -26 425 32 l 425 -26 q 381 -129 425 -87 q 280 -185 336 -171 q 161 -200 224 -200 l 161 -200 q -56 -132 32 -200 l -56 -132 l -4 -11 q 149 -60 69 -60 l 149 -60 q 217 -11 217 -60 l 217 -11 q 151 32 217 32 l 151 32 l 88 32 l 108 143 l 151 143 q 236 192 236 143 l 236 192 q 188 229 236 229 l 188 229 q 76 200 128 229 z "},"₄":{"ha":601,"x_min":-42,"x_max":511,"o":"m 190 -190 l 206 -104 l -42 -104 l -18 28 l 218 360 l 496 360 l 438 42 l 511 42 l 485 -104 l 411 -104 l 396 -190 l 190 -190 z m 168 40 l 168 35 l 238 35 l 250 100 l 283 222 l 278 222 q 219 113 253 160 l 219 113 l 168 40 z "},"₅":{"ha":549,"x_min":-42,"x_max":472,"o":"m -42 -139 l -42 -139 l 6 -28 q 150 -67 69 -67 q 231 -14 231 -67 l 231 -14 q 128 32 231 32 l 128 32 q 14 25 65 32 l 14 25 l 10 31 l 69 360 l 472 360 l 444 206 l 163 206 l 147 124 q 244 135 194 135 l 244 135 q 383 100 326 135 q 439 -10 439 65 l 439 -10 q 361 -151 439 -103 q 174 -200 283 -200 l 174 -200 q -42 -139 39 -200 z "},"₆":{"ha":542,"x_min":-21,"x_max":465,"o":"m 218 65 l 218 65 q 185 39 197 65 q 174 -24 174 13 l 174 -24 q 203 -87 174 -87 l 203 -87 q 235 -62 224 -87 q 246 0 246 -36 l 246 0 q 218 65 246 65 z m 200 163 l 200 163 l 204 160 q 282 176 239 176 l 282 176 q 396 128 351 176 q 440 11 440 81 l 440 11 q 373 -144 440 -87 q 201 -200 306 -200 l 201 -200 q 35 -134 92 -200 q -21 31 -21 -68 l -21 31 q 82 274 -21 179 q 343 369 185 369 l 343 369 q 465 351 410 369 l 465 351 l 433 239 q 354 249 397 249 l 354 249 q 200 163 239 249 z "},"₇":{"ha":538,"x_min":7,"x_max":496,"o":"m 15 192 l 46 360 l 496 360 l 474 236 l 128 -207 l 7 -100 l 286 186 l 283 192 l 15 192 z "},"₈":{"ha":579,"x_min":-21,"x_max":489,"o":"m 203 -200 l 203 -200 q 41 -157 103 -200 q -21 -51 -21 -114 l -21 -51 q 78 81 -21 35 l 78 81 l 78 86 q 24 190 24 125 l 24 190 q 96 322 24 275 q 279 369 168 369 l 279 369 q 428 332 367 369 q 489 224 489 294 l 489 224 q 463 145 489 179 q 392 96 436 111 l 392 96 l 392 90 q 453 35 433 64 q 472 -35 472 7 l 472 -35 q 392 -156 472 -111 q 203 -200 313 -200 z m 278 -54 l 278 -54 q 264 -30 278 -42 q 218 -1 250 -18 q 172 25 186 17 l 172 25 q 142 -32 142 0 l 142 -32 q 163 -72 142 -56 q 218 -87 183 -87 l 218 -87 q 278 -54 278 -87 z m 265 257 l 265 257 q 204 226 204 257 l 204 226 q 219 201 204 214 q 265 170 235 188 q 303 149 296 153 l 303 149 q 328 207 328 179 l 328 207 q 265 257 328 257 z "},"₉":{"ha":549,"x_min":-35,"x_max":465,"o":"m 228 118 l 228 118 q 271 200 271 118 l 271 200 q 242 257 271 257 l 242 257 q 199 176 199 257 l 199 176 q 228 118 199 118 z m 244 21 l 244 21 l 240 24 q 163 7 206 7 l 163 7 q 49 52 93 7 q 4 165 4 97 l 4 165 q 72 315 4 260 q 243 369 139 369 l 243 369 q 409 303 353 369 q 465 139 465 238 l 465 139 q 359 -105 465 -10 q 94 -200 253 -200 l 94 -200 q -35 -182 21 -200 l -35 -182 l -3 -69 q 76 -79 28 -79 l 76 -79 q 244 21 200 -79 z "},"€":{"ha":869,"x_min":-18,"x_max":911,"o":"m 733 276 l 733 276 l 824 81 q 513 -14 685 -14 l 513 -14 q 217 76 328 -14 q 88 332 107 167 l 88 332 l -18 332 l 4 453 l 85 453 q 97 542 89 497 l 97 542 l 21 542 l 43 663 l 138 663 q 348 901 210 815 q 660 986 486 986 l 660 986 q 911 924 799 986 l 911 924 l 822 735 q 681 761 760 761 l 681 761 q 443 663 524 761 l 443 663 l 706 663 l 683 542 l 379 542 q 364 453 368 504 l 364 453 l 667 453 l 644 332 l 374 332 q 440 246 392 274 q 550 218 488 218 l 550 218 q 733 276 654 218 z "},"№":{"ha":1544,"x_min":4,"x_max":1524,"o":"m 364 647 l 358 708 l 353 708 q 311 317 339 482 l 311 317 l 258 0 l 4 0 l 181 972 l 517 972 l 572 674 q 596 509 585 604 q 611 354 607 414 l 611 354 l 617 294 l 622 294 q 654 682 626 517 l 654 682 l 703 972 l 957 972 l 786 38 l 469 -14 l 410 318 q 383 490 396 392 q 364 647 371 588 l 364 647 z m 1454 289 l 1428 154 l 947 154 l 974 289 l 1454 289 z m 1240 504 l 1240 504 q 1284 537 1268 504 q 1303 599 1300 569 q 1307 657 1307 628 l 1307 657 q 1267 749 1307 749 l 1267 749 q 1215 702 1231 749 q 1200 611 1200 656 l 1200 611 q 1240 504 1200 504 z m 1524 672 l 1524 672 q 1438 442 1524 532 q 1213 351 1351 351 l 1213 351 q 1047 419 1110 351 q 983 590 983 486 l 983 590 q 1069 813 983 725 q 1283 901 1154 901 l 1283 901 q 1458 842 1392 901 q 1524 672 1524 783 z "},"™":{"ha":1100,"x_min":132,"x_max":1100,"o":"m 490 1000 l 490 903 l 374 903 l 374 571 l 249 571 l 249 903 l 132 903 l 132 1000 l 490 1000 z m 824 771 l 879 1000 l 1060 1000 l 1100 571 l 974 571 l 951 814 l 947 903 l 942 903 q 929 814 939 854 l 929 814 l 871 571 l 743 571 l 685 813 l 671 903 l 665 903 q 661 806 665 853 l 661 806 l 639 571 l 517 571 l 557 1000 l 739 1000 l 794 771 l 807 678 l 813 678 q 824 771 814 729 l 824 771 z "},"⅓":{"ha":1333,"x_min":113,"x_max":1264,"o":"m 346 -43 l 232 44 l 958 1014 l 1072 926 l 346 -43 z m 251 806 l 119 806 l 113 939 l 364 982 q 452 965 424 992 q 471 883 481 939 l 471 883 l 388 425 l 182 425 l 251 806 z m 896 386 l 896 386 l 843 503 q 1074 556 946 556 l 1074 556 q 1210 524 1157 556 q 1264 424 1264 493 l 1264 424 q 1218 329 1264 365 q 1099 286 1172 293 l 1099 286 l 1097 281 q 1201 249 1158 281 q 1244 160 1244 218 l 1244 160 q 1200 57 1244 99 q 1099 1 1156 15 q 981 -14 1043 -14 l 981 -14 q 764 54 851 -14 l 764 54 l 815 175 q 968 126 888 126 l 968 126 q 1036 175 1036 126 l 1036 175 q 971 218 1036 218 l 971 218 l 907 218 l 928 329 l 971 329 q 1056 378 1056 329 l 1056 378 q 1007 415 1056 415 l 1007 415 q 896 386 947 415 z "},"⅔":{"ha":1333,"x_min":33,"x_max":1281,"o":"m 385 -43 l 271 44 l 997 1014 l 1111 926 l 385 -43 z m 293 600 l 294 594 l 508 594 l 478 426 l 33 426 l 57 550 l 206 665 q 267 716 249 700 q 301 754 286 732 q 317 799 317 776 l 317 799 q 269 838 317 838 l 269 838 q 161 800 211 838 l 161 800 l 97 914 q 333 986 203 986 l 333 986 q 470 947 415 986 q 525 832 525 907 l 525 832 q 493 732 525 771 q 397 658 461 693 l 397 658 l 293 600 z m 913 386 l 913 386 l 860 503 q 1090 556 963 556 l 1090 556 q 1227 524 1174 556 q 1281 424 1281 493 l 1281 424 q 1235 329 1281 365 q 1115 286 1189 293 l 1115 286 l 1114 281 q 1218 249 1175 281 q 1261 160 1261 218 l 1261 160 q 1217 57 1261 99 q 1116 1 1172 15 q 997 -14 1060 -14 l 997 -14 q 781 54 868 -14 l 781 54 l 832 175 q 985 126 904 126 l 985 126 q 1053 175 1053 126 l 1053 175 q 988 218 1053 218 l 988 218 l 924 218 l 944 329 l 988 329 q 1072 378 1072 329 l 1072 378 q 1024 415 1072 415 l 1024 415 q 913 386 964 415 z "},"⅛":{"ha":1333,"x_min":96,"x_max":1274,"o":"m 332 -43 l 218 44 l 944 1014 l 1058 926 l 332 -43 z m 235 806 l 103 806 l 96 939 l 347 982 q 435 965 407 992 q 454 883 464 939 l 454 883 l 371 425 l 165 425 l 235 806 z m 988 -14 l 988 -14 q 826 29 888 -14 q 764 135 764 72 l 764 135 q 863 267 764 221 l 863 267 l 863 272 q 808 376 808 311 l 808 376 q 881 508 808 461 q 1064 556 953 556 l 1064 556 q 1213 518 1151 556 q 1274 410 1274 481 l 1274 410 q 1247 331 1274 365 q 1176 282 1221 297 l 1176 282 l 1176 276 q 1238 222 1218 250 q 1257 151 1257 193 l 1257 151 q 1177 31 1257 75 q 988 -14 1097 -14 z m 1063 132 l 1063 132 q 1049 156 1063 144 q 1003 185 1035 168 q 957 211 971 203 l 957 211 q 926 154 926 186 l 926 154 q 947 115 926 131 q 1003 99 968 99 l 1003 99 q 1063 132 1063 99 z m 1050 443 l 1050 443 q 989 413 989 443 l 989 413 q 1004 387 989 400 q 1050 356 1019 374 q 1088 335 1081 339 l 1088 335 q 1113 393 1113 365 l 1113 393 q 1050 443 1113 443 z "},"⅜":{"ha":1333,"x_min":53,"x_max":1254,"o":"m 354 -43 l 240 44 l 967 1014 l 1081 926 l 354 -43 z m 185 818 l 185 818 l 132 935 q 363 988 235 988 l 363 988 q 499 956 446 988 q 553 856 553 925 l 553 856 q 507 761 553 797 q 388 718 461 725 l 388 718 l 386 713 q 490 681 447 713 q 533 592 533 650 l 533 592 q 489 489 533 531 q 388 433 444 447 q 269 418 332 418 l 269 418 q 53 486 140 418 l 53 486 l 104 607 q 257 558 178 558 l 257 558 q 325 607 325 558 l 325 607 q 260 650 325 650 l 260 650 l 196 650 l 217 761 l 260 761 q 344 810 344 761 l 344 810 q 296 847 344 847 l 296 847 q 185 818 236 847 z m 968 -14 l 968 -14 q 806 29 868 -14 q 744 135 744 72 l 744 135 q 843 267 744 221 l 843 267 l 843 272 q 789 376 789 311 l 789 376 q 861 508 789 461 q 1044 556 933 556 l 1044 556 q 1193 518 1132 556 q 1254 410 1254 481 l 1254 410 q 1228 331 1254 365 q 1157 282 1201 297 l 1157 282 l 1157 276 q 1218 222 1199 250 q 1238 151 1238 193 l 1238 151 q 1158 31 1238 75 q 968 -14 1078 -14 z m 1043 132 l 1043 132 q 1029 156 1043 144 q 983 185 1015 168 q 938 211 951 203 l 938 211 q 907 154 907 186 l 907 154 q 928 115 907 131 q 983 99 949 99 l 983 99 q 1043 132 1043 99 z m 1031 443 l 1031 443 q 969 413 969 443 l 969 413 q 985 387 969 400 q 1031 356 1000 374 q 1068 335 1061 339 l 1068 335 q 1093 393 1093 365 l 1093 393 q 1031 443 1093 443 z "},"⅝":{"ha":1333,"x_min":69,"x_max":1267,"o":"m 367 -43 l 253 44 l 979 1014 l 1093 926 l 367 -43 z m 69 475 l 69 475 l 117 586 q 261 547 181 547 q 342 600 342 547 l 342 600 q 239 646 342 646 l 239 646 q 125 639 176 646 l 125 639 l 121 644 l 181 974 l 583 974 l 556 819 l 274 819 l 258 738 q 356 749 306 749 l 356 749 q 494 714 438 749 q 550 604 550 679 l 550 604 q 472 463 550 511 q 285 414 394 414 l 285 414 q 69 475 150 414 z m 981 -14 l 981 -14 q 819 29 881 -14 q 757 135 757 72 l 757 135 q 856 267 757 221 l 856 267 l 856 272 q 801 376 801 311 l 801 376 q 874 508 801 461 q 1057 556 946 556 l 1057 556 q 1206 518 1144 556 q 1267 410 1267 481 l 1267 410 q 1240 331 1267 365 q 1169 282 1214 297 l 1169 282 l 1169 276 q 1231 222 1211 250 q 1250 151 1250 193 l 1250 151 q 1170 31 1250 75 q 981 -14 1090 -14 z m 1056 132 l 1056 132 q 1042 156 1056 144 q 996 185 1028 168 q 950 211 964 203 l 950 211 q 919 154 919 186 l 919 154 q 940 115 919 131 q 996 99 961 99 l 996 99 q 1056 132 1056 99 z m 1043 443 l 1043 443 q 982 413 982 443 l 982 413 q 997 387 982 400 q 1043 356 1013 374 q 1081 335 1074 339 l 1081 335 q 1106 393 1106 365 l 1106 393 q 1043 443 1106 443 z "},"⅞":{"ha":1333,"x_min":121,"x_max":1246,"o":"m 296 -43 l 182 44 l 908 1014 l 1022 926 l 296 -43 z m 129 804 l 160 972 l 610 972 l 588 849 l 242 406 l 121 513 l 400 799 l 397 804 l 129 804 z m 960 -14 l 960 -14 q 798 29 860 -14 q 736 135 736 72 l 736 135 q 835 267 736 221 l 835 267 l 835 272 q 781 376 781 311 l 781 376 q 853 508 781 461 q 1036 556 925 556 l 1036 556 q 1185 518 1124 556 q 1246 410 1246 481 l 1246 410 q 1219 331 1246 365 q 1149 282 1193 297 l 1149 282 l 1149 276 q 1210 222 1190 250 q 1229 151 1229 193 l 1229 151 q 1149 31 1229 75 q 960 -14 1069 -14 z m 1035 132 l 1035 132 q 1021 156 1035 144 q 975 185 1007 168 q 929 211 943 203 l 929 211 q 899 154 899 186 l 899 154 q 919 115 899 131 q 975 99 940 99 l 975 99 q 1035 132 1035 99 z m 1022 443 l 1022 443 q 961 413 961 443 l 961 413 q 976 387 961 400 q 1022 356 992 374 q 1060 335 1053 339 l 1060 335 q 1085 393 1085 365 l 1085 393 q 1022 443 1085 443 z "},"−":{"ha":860,"x_min":56,"x_max":804,"o":"m 804 474 l 804 307 l 56 307 l 56 474 l 804 474 z "},"":{"ha":556,"x_min":35,"x_max":301,"o":"m 119 -319 l 119 -319 l 35 -237 q 112 -167 85 -206 q 139 -69 139 -129 l 139 -69 q 138 -39 139 -54 l 138 -39 l 293 -39 q 301 -110 301 -76 l 301 -110 q 119 -319 301 -268 z "},"":{"ha":424,"x_min":118,"x_max":476,"o":"m 257 1033 l 125 1033 l 118 1167 l 369 1210 q 458 1193 429 1219 q 476 1111 486 1167 l 476 1111 l 393 653 l 188 653 l 257 1033 z "},"":{"ha":519,"x_min":76,"x_max":568,"o":"m 336 826 l 338 821 l 551 821 l 521 653 l 76 653 l 100 776 l 249 892 q 310 942 292 926 q 344 981 329 958 q 360 1025 360 1003 l 360 1025 q 313 1064 360 1064 l 313 1064 q 204 1026 254 1064 l 204 1026 l 140 1140 q 376 1213 246 1213 l 376 1213 q 513 1173 458 1213 q 568 1058 568 1133 l 568 1058 q 536 958 568 997 q 440 885 504 919 l 440 885 l 336 826 z "},"":{"ha":535,"x_min":83,"x_max":583,"o":"m 215 1043 l 215 1043 l 163 1160 q 393 1213 265 1213 l 393 1213 q 530 1181 476 1213 q 583 1081 583 1150 l 583 1081 q 538 986 583 1022 q 418 943 492 950 l 418 943 l 417 938 q 521 906 478 938 q 564 817 564 875 l 564 817 q 519 714 564 756 q 419 658 475 672 q 300 643 363 643 l 300 643 q 83 711 171 643 l 83 711 l 135 832 q 288 783 207 783 l 288 783 q 356 832 356 783 l 356 832 q 290 875 356 875 l 290 875 l 226 875 l 247 986 l 290 986 q 375 1035 375 986 l 375 1035 q 326 1072 375 1072 l 326 1072 q 215 1043 267 1072 z "},"":{"ha":556,"x_min":172,"x_max":647,"o":"m 172 1322 l 172 1322 l 292 1322 q 397 1214 303 1214 l 397 1214 q 488 1246 456 1214 q 528 1322 519 1278 l 528 1322 l 647 1322 q 564 1145 632 1211 q 388 1079 496 1079 l 388 1079 q 226 1146 286 1079 q 172 1322 167 1213 z "},"":{"ha":476,"x_min":74,"x_max":532,"o":"m 422 606 l 422 606 l 496 501 q 289 418 419 418 l 289 418 q 129 474 185 418 q 74 619 74 531 l 74 619 q 163 835 74 743 q 374 928 251 928 l 374 928 q 532 881 458 928 l 532 881 l 475 771 q 404 788 442 788 l 404 788 q 312 740 347 788 q 276 633 276 693 l 276 633 q 338 572 276 572 l 338 572 q 422 606 389 572 z "},"":{"ha":556,"x_min":143,"x_max":651,"o":"m 211 1056 l 143 1149 l 365 1340 l 485 1340 l 651 1139 l 569 1056 l 417 1213 l 211 1056 z "},"":{"ha":417,"x_min":-69,"x_max":576,"o":"m 510 921 l 488 794 l 385 794 l 357 586 q 346 510 350 535 q 332 440 342 485 q 311 372 322 396 q 279 318 300 349 q 233 272 258 288 q 169 246 207 257 q 83 235 131 235 l 83 235 q -69 274 4 235 l -69 274 l -10 408 q 54 393 22 393 l 54 393 q 119 427 97 393 q 151 535 142 461 l 151 535 l 186 794 l 114 794 l 132 892 l 203 921 l 208 961 q 282 1088 219 1042 q 443 1135 344 1135 l 443 1135 q 576 1107 515 1135 l 576 1107 l 540 992 q 485 1001 513 1001 l 485 1001 q 404 940 413 1001 l 404 940 l 401 921 l 510 921 z "},"":{"ha":911,"x_min":-229,"x_max":875,"o":"m 399 -292 l 399 -292 l 353 -97 q 471 -37 428 -79 q 529 108 514 6 l 529 108 l 597 556 l 415 556 l 353 96 q 335 -4 344 36 q 300 -104 326 -44 q 235 -201 274 -164 q 128 -265 197 -237 q -35 -292 58 -292 l -35 -292 q -229 -243 -149 -292 l -229 -243 l -154 -47 q -64 -65 -108 -65 l -64 -65 q 36 -11 1 -65 q 86 157 71 43 l 86 157 l 140 556 l 42 556 l 68 694 l 165 736 l 175 808 q 297 993 193 931 q 542 1056 401 1056 l 542 1056 q 788 1000 679 1056 l 788 1000 l 724 838 q 586 864 667 864 l 586 864 q 490 840 529 864 q 444 765 451 815 l 444 765 l 440 736 l 754 736 q 863 695 839 736 q 875 576 888 654 l 875 576 l 789 8 q 399 -292 747 -268 z "},"":{"ha":576,"x_min":26,"x_max":626,"o":"m 401 767 l 401 767 l 406 789 q 382 794 397 794 l 382 794 q 306 745 335 794 q 278 643 278 696 l 278 643 q 293 608 278 608 l 293 608 q 353 652 319 608 q 401 767 388 696 z m 358 482 l 372 551 l 367 551 q 214 450 314 450 l 214 450 q 110 499 146 450 q 75 624 75 549 l 75 624 q 158 834 75 740 q 361 928 240 928 l 361 928 q 461 900 421 928 l 461 900 q 549 928 479 928 l 549 928 l 626 928 l 546 489 q 218 235 500 235 l 218 235 q 26 269 114 235 l 26 269 l 69 396 q 206 372 135 372 l 206 372 q 358 482 338 372 l 358 482 z "},"":{"ha":319,"x_min":-58,"x_max":371,"o":"m 90 499 l 90 499 l 146 797 q 143 908 158 858 l 143 908 l 254 925 q 351 831 372 942 l 351 831 l 276 422 q -24 235 244 247 l -24 235 l -58 382 q -15 391 -29 388 q 25 406 -1 394 q 67 441 51 418 q 90 499 83 464 z m 286 1192 l 286 1192 q 371 1110 371 1192 l 371 1110 q 345 1027 371 1054 q 261 1000 319 1000 l 261 1000 q 178 1083 178 1000 l 178 1083 q 286 1192 178 1192 z "},"":{"ha":628,"x_min":58,"x_max":669,"o":"m 404 471 l 404 471 l 310 671 l 446 844 q 500 908 481 889 q 546 932 519 926 l 546 932 l 669 853 l 667 846 q 568 782 617 835 l 568 782 l 506 711 l 635 449 l 631 443 l 506 422 q 440 426 461 415 q 404 471 419 438 z m 371 1040 l 371 1040 l 261 446 l 69 418 l 58 428 l 165 1007 q 163 1118 178 1072 l 163 1118 l 274 1135 q 358 1118 336 1144 q 371 1040 381 1092 z "},"":{"ha":583,"x_min":47,"x_max":614,"o":"m 286 583 l 286 583 l 282 560 l 299 558 l 300 558 q 357 577 333 558 q 392 626 381 596 q 407 682 403 657 q 411 731 411 707 l 411 731 q 392 769 411 769 l 392 769 q 335 724 364 769 q 286 583 306 679 z m 257 421 l 257 421 l 250 385 q 253 271 236 319 l 253 271 l 51 235 q 47 367 32 282 l 47 367 l 128 801 q 125 908 139 861 l 125 908 l 236 925 q 315 910 293 933 q 329 842 338 888 l 329 842 l 326 828 l 332 828 q 482 928 393 928 l 482 928 q 582 872 550 928 q 614 736 614 817 l 614 736 q 525 510 614 601 q 293 418 436 418 l 293 418 q 257 421 274 418 z "},"":{"ha":582,"x_min":67,"x_max":632,"o":"m 403 767 l 403 767 l 407 789 q 383 794 396 794 l 383 794 q 302 733 335 794 q 269 611 269 671 l 269 611 q 285 576 269 576 l 285 576 q 349 631 310 576 q 403 767 388 685 z m 560 928 l 560 928 l 632 928 l 529 371 q 535 271 519 319 l 535 271 l 333 235 q 329 367 314 279 l 329 367 l 343 444 l 364 519 l 358 519 q 207 418 304 418 l 207 418 q 102 468 138 418 q 67 592 67 518 l 67 592 q 155 825 67 722 q 363 928 243 928 l 363 928 q 463 900 422 928 l 463 900 q 495 923 475 918 q 560 928 515 928 z "},"":{"ha":564,"x_min":86,"x_max":613,"o":"m 379 736 l 379 736 l 410 900 l 601 928 l 613 918 l 547 571 q 550 454 535 501 l 550 454 l 354 418 q 344 518 335 460 l 344 518 l 339 518 q 188 418 281 418 l 188 418 q 94 474 117 418 q 86 618 71 531 l 86 618 l 119 797 q 117 908 131 858 l 117 908 l 228 925 q 311 909 288 935 q 325 831 335 883 l 325 831 l 288 632 q 293 576 276 576 l 293 576 q 319 592 304 576 q 352 647 335 608 q 379 736 369 685 z "},"":{"ha":904,"x_min":56,"x_max":883,"o":"m 546 986 l 546 986 q 801 882 718 986 q 883 604 883 778 l 883 604 q 866 424 883 511 q 810 256 849 336 q 717 117 772 176 q 580 22 663 57 q 399 -14 497 -14 l 399 -14 q 238 18 307 -14 q 131 106 169 50 q 74 228 93 161 q 56 374 56 294 l 56 374 q 86 592 56 485 q 175 788 117 699 q 330 931 233 876 q 546 986 426 986 z m 510 785 l 510 785 q 416 740 456 785 q 358 628 376 696 q 333 503 340 560 q 325 399 325 446 l 325 399 q 326 343 325 360 l 326 343 l 574 756 q 510 785 549 785 z m 431 188 l 431 188 q 525 232 486 188 q 582 347 564 276 q 607 478 600 417 q 614 599 614 539 l 614 599 q 613 626 614 617 l 613 626 l 367 214 q 431 188 389 188 z "},"":{"ha":567,"x_min":90,"x_max":615,"o":"m 410 874 l 410 874 l 563 935 q 615 813 615 881 l 615 813 q 414 469 615 663 l 414 469 l 206 418 l 197 424 l 121 804 q 90 899 108 869 l 90 899 l 206 922 q 292 918 267 935 q 321 857 317 901 l 321 857 l 349 606 l 354 606 q 422 800 422 725 l 422 800 q 410 874 422 842 z "},"":{"ha":847,"x_min":90,"x_max":896,"o":"m 314 857 l 314 857 l 340 614 l 346 614 q 376 740 357 686 l 376 740 l 422 872 l 622 921 l 631 915 l 628 614 l 633 614 q 714 815 714 714 l 714 815 q 701 878 714 849 l 701 878 l 844 935 q 896 817 896 883 l 896 817 q 841 646 896 740 q 710 468 786 551 l 710 468 l 507 418 l 499 424 l 501 749 l 496 749 q 457 610 479 672 l 457 610 l 408 468 l 206 418 l 197 424 l 121 804 q 90 899 108 872 l 90 899 l 199 922 q 284 919 258 935 q 314 857 310 903 z "},"":{"ha":554,"x_min":35,"x_max":621,"o":"m 113 863 l 113 863 l 194 904 q 272 928 242 928 l 272 928 q 336 879 315 928 l 336 879 l 367 803 l 372 803 l 414 860 q 565 926 474 940 l 565 926 l 621 778 q 493 715 540 760 l 493 715 l 444 669 l 551 432 l 551 425 l 339 425 l 289 543 l 283 543 l 242 486 q 90 419 182 406 l 90 419 l 35 568 q 163 631 115 586 l 163 631 l 211 676 l 158 794 q 113 863 143 832 z "},"":{"ha":575,"x_min":25,"x_max":624,"o":"m 417 874 l 417 874 l 569 935 q 624 815 624 883 l 624 815 q 579 666 624 763 q 467 474 535 569 q 308 306 400 378 q 136 235 217 235 l 136 235 q 25 268 78 235 l 25 268 l 90 424 q 163 399 122 399 l 163 399 q 235 425 204 399 l 235 425 l 128 774 q 79 869 111 833 l 79 869 l 169 907 q 242 925 210 925 l 242 925 q 314 850 296 925 l 314 850 l 376 606 l 382 606 q 436 785 436 707 l 436 785 q 417 874 436 833 z "},"":{"ha":564,"x_min":53,"x_max":599,"o":"m 394 425 l 394 425 l 53 425 l 76 550 l 235 694 q 272 724 251 710 q 303 746 292 739 l 303 746 l 315 753 l 314 758 l 110 758 l 139 921 l 576 921 l 553 796 l 394 651 q 358 622 378 636 q 328 600 339 607 l 328 600 l 315 593 l 317 588 l 379 588 q 476 671 444 588 l 476 671 l 599 629 q 586 577 592 596 q 565 526 581 558 q 531 474 550 493 q 476 440 511 456 q 394 425 440 425 z "}}}
